<svg xmlns="http://www.w3.org/2000/svg" fill="none" viewBox="0 0 200 200" id="Banker--Streamline-Milano.svg"><desc>Banker Streamline Illustration: https://streamlinehq.com</desc><g id="banker--finance-banker-money"><g id="money bag"><path id="vector" fill="#ffffff" d="M104.619 49.8859c1.201 -1.355 1.529 -1.252 1.679 -1.402 0.573 -0.572 -0.05 -1.34 -0.679 -1.042 -0.918 0.458 -1.357 0.982 -1.791 1.763 -1.935 -1.379 -5.035 -1.572 -7.489 0.22 -1.587 1.159 -2.106 3.35 -1.121 5.074 0.979 1.957 2.867 2.994 4.189 4.558 1.199 1.416 2.709 3.56 1.997 5.815 -1.878 5.973 -12.651 6.383 -14.486 -0.591 -0.601 -2.164 -0.078 -4.472 1.391 -6.168 0.497 -0.497 -0.308 -1.307 -0.808 -0.808 -2.773 2.773 -2.43 7.454 -0.364 10.094 0.317 0.36 0.664 0.698 1.032 1.007 -0.54 0.56 -1.194 1.575 -1.455 2.275 -0.5 1.346 0.761 2.055 1.236 0.625 0.271 -0.812 0.917 -1.519 1.311 -2.11 6.984 4.318 16.016 -2.046 12.768 -8.532 -3.498 -5.247 -5.093 -4.578 -6.054 -7.452 -0.238 -1.193 0.27 -2.4 1.25 -2.946 1.956 -1.38 4.625 -1.283 6.483 0.226 1.693 1.58 2.308 4.027 1.566 6.234 -0.175 0.52 0.349 0.714 0.594 0.275 1.275 -2.279 0.491 -5.318 -1.25 -7.115h0.001Z" stroke-width="1"></path><path id="vector_2" fill="#ffffff" d="M112.985 11.304c-0.52 0.189 -0.852 0.585 -1.094 1.06 -2.797 -0.987 -2.54 -1.334 -4.863 -2.72802 -2.976 -0.992 -3.834 2.51302 -5.123 4.17002 -0.833 1.389 -2.3899 0.868 -3.5739 1.787 -1.31 1.072 0.953 2.502 1.549 3.098 6.0749 5.063 10.1249 4.715 10.3649 4.408 2.088 -2.666 3.574 -5.719 4.051 -9.055 0.119 -0.834 0.357 -3.336 -1.311 -2.74Zm-11.316 3.707c1.405 -0.937 1.261 -2.645 3.334 -4.422 1.191 -0.83402 2.145 0 3.098 0.715 1.111 0.694 2.147 1.344 3.49 1.799 -0.437 1.299 -0.705 2.997 -2.061 2.609 -0.715 -0.357 -1.43 -0.357 -2.264 -0.238 -0.715 0.238 -1.311 0.834 -2.145 1.072 -2.001 0.25 -3.008 -0.559 -4.582 -1.048 0.335 -0.123 0.615 -0.194 1.129 -0.487h0.001Zm11.812 -1.031c-0.335 2.84 -1.973 5.339 -3.544 7.723 -0.276 0.419 -0.783 0.624 -1.273 0.515 -4.665 -1.037 -6.94 -3.623 -8.308 -4.718 -0.3569 -0.238 -0.5959 -0.477 -0.9529 -0.834 -0.119 -0.119 -0.477 -0.357 -0.357 -0.596s0.477 0 0.477 0c1.1969 0.2 1.2879 0.509 4.0509 1.43 1.191 0.238 2.512 -0.101 3.574 -0.715 0.602 -0.347 1.311 -0.357 1.906 -0.119 0.477 0.238 1.072 0.238 1.549 0.119 0.953 -0.477 1.549 -1.311 1.668 -2.264 0.119 -0.596 0.357 -1.072 0.596 -1.668 0.622 -0.622 0.727 0.179 0.615 1.127h-0.001Z" stroke-width="1"></path><path id="vector_3" fill="#ffffff" d="M111.794 21.073c-0.257 -0.514 -0.715 -0.198 -0.715 0 -0.097 0.193 -1.17 1.366 -1.222 1.413 -0.844 0.15 -1.28 -0.14 -1.28 0.255 0.119 0.477 0.357 0.953 0.596 1.311 1.445 1.445 3.886 0.184 2.621 -2.979Z" stroke-width="1"></path><path id="Subtract" fill="#ffffff" fill-rule="evenodd" d="M104.712 91.2014c-0.419 0.0628 -0.839 0.1179 -1.259 0.1655 -5.7339 0.637 -13.9999 0.046 -20.1349 -2.145 -10.361 -3.522 -15.562 -12.505 -12.152 -23.113 0.953 -3.336 2.383 -6.552 4.051 -9.531 4.3455 -7.6886 10.9567 -9.6763 17.4116 -11.617 4.2669 -1.2828 8.4653 -2.5451 11.8963 -5.42 4.922 -4.102 6.501 -10.739 5.078 -16.851 -0.191 -0.822 0.812 -1.07 1.118 -0.663 3.763 5.0162 8.638 13.0446 12.146 20.5597 -0.279 0.2833 -0.57 0.5871 -0.871 0.9132 -3.065 -6.6937 -7.156 -13.0962 -10.985 -18.8729 1.178 6.322 -1.784 13.045 -7.024 16.895 -3.082 2.1897 -6.7838 3.2175 -10.5669 4.2678 -6.7524 1.8746 -13.7628 3.8209 -17.964 12.5732 -3.098 5.957 -5.838 13.463 -3.217 20.016 4.1368 10.7551 20.4491 13.5302 32.4619 11.8333 -0.001 0.3463 0.003 0.676 0.011 0.9892Z" clip-rule="evenodd" stroke-width="1"></path></g><g id="paper"><path id="Subtract_2" fill="#ffffff" fill-rule="evenodd" d="M122.036 101.671c-0.543 2.238 -1.071 4.551 -1.573 6.907 0.364 0.02 0.724 0.04 1.083 0.058 0.507 -2.4 1.02 -4.657 1.519 -6.739 -0.348 -0.076 -0.691 -0.151 -1.029 -0.226Zm56.974 -0.414c3.14 12.167 7.807 24.34 12.473 35.83 -13.759 1.447 -24.824 1.369 -45.903 1.221l-0.001 0 -0.002 0c-1.634 -0.012 -3.328 -0.024 -5.088 -0.035l0.359 1.045 1.488 0.018 0.001 0c19.805 0.236 35.823 0.427 49.995 -1.148 0.357 0 0.715 -0.357 0.596 -0.715 -4.715 -11.733 -9.773 -24.43 -13.044 -37.456 -0.285 0.407 -0.578 0.822 -0.874 1.24Zm-47.023 9.36 -0.179 -0.014c0.01 0.322 0.032 0.644 0.064 0.966 4.226 0.338 8.802 0.499 13.541 0.638 0.047 0.612 0.139 1.832 0.311 4.178 -6.745 0 -10.524 -0.056 -12.78 -0.118 0.061 0.186 0.122 0.371 0.185 0.556 4.835 0.073 11.434 0.157 12.639 0.157l0.461 6.375c-1.557 0.012 -2.967 0.024 -4.25 0.035l-0.006 0 -0.001 0c-2.674 0.024 -4.801 0.042 -6.569 0.044l0.213 0.622 10.669 0.073c0.264 3.677 0.293 5.017 0.307 5.69 0.011 0.484 0.014 0.623 0.091 1.038l-8.708 0.082 0.276 0.804c17.477 -0.031 43.239 -0.107 43.239 -0.107 0.117 0 0.596 -0.005 0.596 -0.715 -0.822 -3.288 -1.962 -6.488 -3.106 -9.702 -1.179 -3.308 -2.362 -6.63 -3.208 -10.075v-0.001c-0.118 -0.236 -0.498 -0.389 -0.787 -0.196 -4.071 0.352 -21.155 0.989 -36.887 0.103 -2.069 -0.117 -4.085 -0.274 -6.111 -0.433Zm32.22 12.587c4.594 -0.057 9.576 -0.176 14.203 -0.301h0.001c-0.195 -0.552 -0.391 -1.103 -0.587 -1.654 -0.492 -1.378 -0.982 -2.754 -1.447 -4.136 -0.754 0.041 -0.766 0.041 -2.214 0.027 -1.475 -0.014 -4.438 -0.043 -11.188 -0.057 0 0 1.116 5.516 1.232 6.121Zm11.916 -6.85c-0.505 -1.536 -0.973 -3.081 -1.37 -4.644v0.001c-2.327 0.277 -6.995 0.505 -12.752 0.601 0.313 1.358 0.621 2.716 0.846 4.074 4.481 0 6.976 -0.048 8.677 -0.08 1.984 -0.038 2.887 -0.055 4.599 0.048Zm-13.984 0.031c-0.361 -1.776 -0.676 -3.25 -0.884 -4.062h-0.001c-4.602 0.066 -9.845 0.049 -15.119 -0.095 0.163 0.857 0.198 1.449 0.344 3.861l0.018 0.296h15.642Zm0.142 0.694 -15.746 -0.098c0.09 1.476 0.217 3.503 0.414 6.37l1.467 -0.01c5.026 -0.035 10.042 -0.069 15.064 -0.128 -0.393 -2.054 -0.816 -4.23 -1.199 -6.134Zm-15.279 7.049c0.008 0.104 0.429 5.877 0.362 6.722l17.526 -0.148c-0.147 -0.794 -0.651 -3.505 -1.249 -6.643 -5.536 0.069 -16.639 0.069 -16.639 0.069Zm17.368 -0.078 1.278 6.646 15.186 -0.128c-0.597 -2.297 -1.334 -4.542 -2.11 -6.769 -3.439 0.104 -12.014 0.219 -14 0.246l-0.001 0 -0.001 0 -0.352 0.005Z" clip-rule="evenodd" stroke-width="1"></path></g><g id="pen stand"><path id="vector_4" fill="#ffffff" d="M55.3221 86.5999c-0.005 -0.1 -0.273 -5.557 -0.392 -6.272 0 -0.175 -0.118 -0.521 -0.504 -0.532 -10.37 -0.299 -12.155 -0.744 -16.736 -0.345 -2.964 0.539 -4.538 1.751 -7.863 2.859 -0.433 0.173 -0.425 0.724 -0.16 0.92 -0.124 2.015 -0.034 2.83 0.398 8.015 0 0.238 0.119 0.357 0.357 0.357 5.868 1.036 11.737 1.627 17.605 2.095 0.831 0.066 1.089 0.178 2.172 -0.904 2.297 -1.722 1.424 -1.101 3.693 -2.859 0.471 -0.365 1.191 -0.715 1.43 -1.311 0.119 -0.715 0.119 -1.311 0 -2.025v0.002Zm-17.394 -6.314c2.74 -0.119 5.357 -0.06 8.102 0.119 2.24 0.146 4.565 0.115 6.836 0.184 -2.486 1.496 -1.639 0.999 -3.739 2.199 -0.596 0.477 -1.191 0.715 -1.906 0.953 -0.939 0.134 -1.497 -0.055 -4.766 -0.357 -2.01 -0.186 -8.077 -0.705 -10.682 -0.789 3.324 -1.358 4.398 -1.83 6.154 -2.309h0.001Zm-7.567 2.943c9.573 0.364 15.605 1.696 16.846 1.314 0.527 2.718 0.817 5.409 0.945 8.223 -5.799 -0.36 -11.492 -1.041 -17.183 -1.833 -0.299 -2.1 -0.417 -5.912 -0.608 -7.704Zm23.889 4.801c-0.098 0.837 -0.953 1.191 -1.549 1.668 0 0 -3.459 2.678 -3.582 2.768 -0.052 -2.849 -0.374 -5.486 -0.902 -8.266 1.22 -0.459 1.134 -0.465 5.98 -3.316 0.057 1.057 0.241 5.535 0.053 7.146Z" stroke-width="1"></path><path id="vector_5" fill="#ffffff" d="M49.454 33.8209c0 -1.19 -1.044 -2.234 -2.234 -2.234s-2.234 1.044 -2.232 2.197c-1.223 14.888 -0.955 36.059 -0.001 46.62 0 1.19 1.044 2.234 2.234 2.234 0.872 0 2.09 -0.811 2.232 -2.199 0.009 -0.09 0.717 -9.241 0.835 -23.968 0.223 -7.023 -0.051 -14.446 -0.834 -22.65Z" stroke-width="1"></path><path id="vector_6" fill="#ffffff" d="M40.191 81.5959c0 -1.126 -3.455 -0.538 -3.455 0.238 0 0.554 0.995 0.715 1.549 0.715 0.601 0 1.906 -0.352 1.906 -0.953Z" stroke-width="1"></path><path id="vector_7" fill="#ffffff" d="M60.346 77.49c-0.724 -1.81 -2.634 -2.895 -3.344 -4.664 -0.55 -0.99 -0.488 -2.149 0.222 -3.048 0.703 -0.89 1.321 -2.109 1.342 -2.209 1.309 -6.108 -6.852 -7.961 -5.844 -12.012 0.407 -1.086 0.76 -1.863 1.192 -2.625 1.688 -4.822 -3.935 -7.333 -4.737 -11.275 0.176 -0.217 -0.295 -0.366 -0.32 -0.107 -0.364 3.884 4.527 5.816 4.527 9.545 0 0.926 -0.397 1.717 -0.818 2.553 -1.406 2.794 -1.155 3.828 0.888 6.002 1.649 1.751 3.483 3.07 4.112 5.205 0.322 0.752 0.362 1.647 0.119 2.503 -0.341 0.796 -0.931 1.594 -1.42 2.365 -2.311 3.642 3.163 6.08 3.554 9.029 0.139 1.048 -0.359 2.045 -1.251 2.604 -0.536 0.402 -0.893 1.05 -1.012 1.533 -0.122 1.095 0.929 1.97 0.833 2.862 -0.119 1.112 -2.354 0.372 -3.238 0.246 -0.779 -0.157 -0.973 0.96 -0.304 1.127 0.959 0.24 1.751 0.221 2.738 0.221 1.846 -0.001 2.201 -2.036 1.192 -3.338 -0.342 -0.442 -0.305 -1.112 -0.114 -1.495 0.23 -0.346 0.59 -0.583 0.803 -0.8 1.243 -0.994 1.626 -2.856 0.879 -4.223l0.001 0.001Z" stroke-width="1"></path><path id="vector_8" fill="#ffffff" d="M38.196 103.636c-4.099 2.884 -4.455 8.407 -4.588 13.129 -0.078 2.747 -0.158 5.587 -1.181 8.263 -2.85 7.362 -10.545 11.681 -18.299 10.272 -2.916 -0.564 -7.84499 -2.194 -8.09899 -6.768 -0.133 -4.246 3.193 -7.644 5.18799 -9.292 2.78 -2.298 6.324 -4.525 8.254 -7.903 1.528 -2.586 2.454 -6.365 0.463 -9.227 -0.59 -0.708 -1.2 -1.44 -1.916 -2.035 -2.279 -2.2802 -0.169 -6.1932 2.03 -8.4902 2.609 -2.726 6.277 -4.307 10.198 -4.188 0.231 -0.009 0.501 -0.563 -0.023 -0.704l-0.029 -0.005c-3.672 -0.252 -7.095 0.817 -9.637 3.012 -2.762 2.261 -5.057 5.743 -4.578 9.327 0.495 1.9832 2.394 2.7702 3.228 4.4392 0.77 1.54 0.82 3.484 0.229 5.371 -2.363 7.537 -12.63499 9.354 -14.41799 17.879 -0.791 3.783 1.263 7.075 4.852 8.511 8.86699 3.833 19.23899 -0.151 23.07399 -9.018l0.721 -1.807c0.645 -2.577 0.925 -4.967 0.958 -7.3 0.065 -4.626 0.256 -9.833 4.103 -12.508 0.508 -0.353 0.003 -1.335 -0.53 -0.96v0.002Z" stroke-width="1"></path></g><g id="document"><path id="Subtract_3" fill="#ffffff" fill-rule="evenodd" d="m153.612 177.05 -114.617 -1.072c-0.369 -0.004 -0.608 -0.393 -0.442 -0.724 2.0831 -4.166 2.477 -4.981 8.5075 -22.876 0.2214 0.431 0.4278 0.866 0.6201 1.301 -5.5052 16.325 -5.9917 17.419 -7.8806 21.305v0.001l113.109 1.058 -19.904 -58.064c-1.033 -2.871 -1.935 -5.924 -1.649 -8.909 -6.162 0.487 -12.42 -0.044 -20.154 -0.7 -11.358 -0.963 -25.9004 -2.196 -47.998 -0.872 -0.9728 2.889 -1.8993 5.642 -2.782 8.267 -0.3485 0.027 -0.713 0.063 -1.092 0.108 0.9588 -2.849 1.9694 -5.85 3.035 -9.013 0.065 -0.193 0.24 -0.327 0.443 -0.339 22.5743 -1.378 37.0716 -0.126 48.379 0.85 7.901 0.682 14.244 1.229 20.697 0.652 0.332 -0.027 0.587 0.259 0.539 0.574 -0.456 2.962 0.464 6.099 1.525 9.048l20.137 58.743c0.111 0.325 -0.131 0.662 -0.473 0.662Zm-75.906 -63.494c0.9212 0.166 1.4353 0.177 3.1843 0.216 1.0628 0.023 2.5816 0.057 4.9247 0.141 0.373 0.013 24.176 0.366 24.549 0.357 0.322 -0.007 0.507 -0.185 0.507 -0.507s-0.185 -0.507 -0.494 -0.507l-0.019 -0.002c-0.282 -0.024 -0.507 -0.044 -0.731 -0.06 -0.865 -0.061 -1.734 -0.067 -5.949 -0.097l-0.001 0c-3.8001 -0.027 -10.321 -0.074 -22.012 -0.198 -1.483 -0.134 -2.782 -0.096 -3.945 0.119 -0.337 0 -0.387 0.531 -0.014 0.538Zm20.9122 4.531c15.8338 0.473 15.9108 0.475 17.8368 0.65v0.001c0.3 0 0.493 0.295 0.493 0.507 0 0.314 -0.295 0.503 -0.507 0.507 -0.565 0.011 -36.3421 -1.311 -36.3421 -1.311 -1.191 0 -2.404 -0.121 -3.599 -0.36 -0.165 -0.03 -0.476 -0.535 -0.09 -0.535 1.3 -0.119 2.751 -0.119 4.183 0 7.5897 0.229 13.4542 0.404 18.0133 0.541l0.0105 0 0.0015 0Zm-21.6222 4.881c1.899 0.237 22.132 1.108 23.361 0.953 0.335 0 0.388 -0.628 0.024 -0.657 -0.938 -0.266 -19.454 -0.954 -23.375 -0.954 -0.44 0 -0.548 0.65 -0.01 0.657v0.001Zm-2.2499 5.758c2.0075 -0.062 35.5359 1.397 39.5519 1.658h0.001c1.148 0.074 0.666 1.113 0.181 1.113 -1.296 0.102 -37.0201 -1.58 -39.5459 -1.837 -0.0224 -0.328 -0.0816 -0.644 -0.188 -0.934Zm-8.7715 16.508c-1.3241 3.316 -2.5529 6.686 -3.7048 10.072 -1.5857 0.431 -3.096 1.256 -4.2069 2.539 -2.099 2.423 -2.194 5.881 -0.119 8.221 2.9912 3.373 8.3785 2.521 11.3512 -0.47 0.52 -0.086 1.034 -0.163 1.5138 -0.126 0.477 0 0.834 0.238 1.191 0.596 0.238 0.357 0.715 0.477 1.072 0.477 0.2662 -0.067 0.4768 -0.119 0.6497 -0.161l0.001 -0.001c0.3601 -0.088 0.5561 -0.137 0.75 -0.192 0.2317 -0.067 0.4604 -0.144 0.9622 -0.313 0.2383 -0.08 0.5381 -0.181 0.9291 -0.311 0.676 -0.225 1.156 0.065 0.759 0.263 -0.159 0.079 -1.305 1.668 2.383 1.668 2.979 -0.238 5.838 -0.596 8.697 -1.191 0.379 -0.379 0.248 -0.715 0 -0.715l0.001 -0.001c-3.8789 0.337 -6.1023 0.72 -7.545 0.968l-0.0001 0 -0.0001 0c-1.2634 0.218 -1.9282 0.332 -2.5818 0.223 -0.9464 0 -0.596 -0.702 -0.4237 -1.047 0.0306 -0.061 0.0557 -0.111 0.0667 -0.144 0.344 -1.377 -1.166 -1.081 -2.264 -0.715 -0.2955 0.098 -0.5582 0.187 -0.7925 0.265l-0.0022 0.001c-1.7734 0.596 -1.9147 0.643 -2.3033 0.449 -0.119 -0.119 -0.238 -0.238 -0.357 -0.477 -0.5577 -0.558 -1.2084 -0.584 -1.8908 -0.476 0.8297 -1.154 1.3249 -2.532 1.2968 -4.05l-0.001 -0.001c0 -0.052 -0.0007 -0.104 -0.0021 -0.157 20.2672 0.285 47.8302 1.277 61.1202 2.184 0.169 0 0.477 -0.127 0.477 -0.596 -1.551 -4.773 -5.177 -13.603 -6.91 -17.275v-0.001c-0.03 -0.063 -0.06 -0.128 -0.09 -0.193 -0.32 -0.69 -0.698 -1.506 -1.459 -1.832 -2.853 -0.634 -38.0684 -2.201 -54.0151 -1.847 -0.2062 0.264 -0.4186 0.524 -0.637 0.779 3.2787 0.065 6.6111 0.102 9.958 0.136 -0.303 0.88 -0.76 2.48 -1.273 4.385 -5.365 -0.131 -9.933 -0.197 -11.863 -0.124 0.2644 -0.675 0.5318 -1.348 0.8024 -2.018 -0.2851 0.246 -0.577 0.484 -0.8753 0.715 -0.2219 0.172 -0.4434 0.336 -0.6644 0.493Zm7.4702 -9.348c1.2195 0.065 2.5045 0.049 3.6801 -0.05 0.7205 0 1.412 -0.001 2.0776 -0.001 4.3139 -0.003 7.5419 -0.005 10.5454 0.12 0 0 11.9111 0.536 12.6101 0.594 1.442 0.24 3.031 0.24 4.433 0.24 0.235 0 0.413 -0.343 0.263 -0.567 -0.027 -0.137 -0.161 -0.206 -0.227 -0.205 -1.698 -0.424 -2.981 -0.457 -3.84 -0.479 -0.259 -0.006 -0.479 -0.012 -0.66 -0.027l-0.379 -0.032c-0.483 -0.04 -0.794 -0.066 -1.106 -0.087 -0.57 -0.039 -1.142 -0.06 -2.7576 -0.122l-0.0001 0h-0.0001l-0.0004 0 -0.0007 0 -0.0013 0 -0.0025 0c-1.535 -0.058 -4.0112 -0.152 -8.3194 -0.33 -3.6534 -0.151 -12.0852 0.01 -16.0496 0.28 -0.0848 0.224 -0.1733 0.446 -0.2655 0.666Zm-3.2207 26.317c-0.2862 0.994 -0.8207 1.948 -1.5838 2.726 -0.5548 0.082 -1.1026 0.073 -1.6124 -0.227 0.2497 -0.193 0.5129 -0.394 0.7836 -0.601l0.0005 -0.001c0.7912 -0.604 1.6461 -1.257 2.4121 -1.897Zm0.2432 -1.787c0.0018 0.112 0.0003 0.225 -0.0045 0.338 -0.2262 -0.144 -0.5236 -0.248 -0.8449 -0.288 -0.5988 0.027 -1.1913 0.104 -1.7705 0.228 0.0106 -0.103 0.0175 -0.206 0.0208 -0.309 0.8503 0.009 1.7173 0.019 2.5991 0.031Zm-7.5864 2.86c1.0891 -1.035 2.4237 -1.815 3.879 -2.29 0.0457 -0.202 0.0741 -0.406 0.0832 -0.611 -2.0026 -0.018 -3.9057 -0.027 -5.6842 -0.027 -0.238 0 -0.476 -0.358 -0.357 -0.596 0.1341 -0.418 0.2692 -0.836 0.4054 -1.254 -1.3999 1.184 -2.1576 3.167 -1.0004 5.066 0.809 1.327 2.621 1.549 3.932 0.715 0.9694 -0.522 1.8496 -1.423 2.3287 -2.448 -1.1331 0.417 -2.256 1.023 -3.2077 1.816 -0.4 0.333 -0.848 0.075 -0.379 -0.371Zm5.977 -2.052c-0.3727 0.051 -0.7582 0.126 -1.1497 0.224 -0.4496 1.692 -1.7891 3.295 -3.4503 4.022 -1.787 0.834 -3.932 0.238 -4.885 -1.549 -0.953 -1.787 -0.596 -4.05 0.834 -5.48 0.4253 -0.425 0.8827 -0.761 1.3529 -1.018 0.1587 -0.48 0.3189 -0.96 0.4807 -1.44 -1.3948 0.506 -2.7251 1.446 -3.7396 2.934 -1.549 2.263 -0.954 5.361 1.191 7.029 2.264 1.549 5.242 1.549 7.625 0.119 0.1746 -0.092 0.3428 -0.191 0.5044 -0.297 -0.5727 -0.025 -1.113 -0.19 -1.5784 -0.655 -0.119 -0.12 -0.119 -0.358 0 -0.477l2.502 -1.906c1.494 -1.195 1.237 -1.634 0.313 -1.506Zm6.386 -1.75c-1.3179 -0.023 -2.6359 -0.04 -3.9538 -0.052 -0.2512 -1.253 -0.9056 -2.424 -1.9092 -3.245 -1.3269 -1.032 -3.6296 -1.468 -5.9397 -1.118 0.269 -0.805 0.5433 -1.608 0.8227 -2.408 0.7522 0.063 0.8544 0.065 1.8107 0.087 1.2063 0.028 3.7717 0.088 10.7153 0.34 -0.681 2.725 -1.271 5.175 -1.546 6.396Zm-6.697 -2.821c-1.2524 -0.939 -3.2704 -1.386 -5.3031 -1 -0.139 0.421 -0.2764 0.842 -0.4124 1.265 1.7955 -0.471 3.5276 0.033 4.1665 0.927 0.4043 0.471 0.6571 1 0.7809 1.555 0.8599 0.004 1.7198 0.008 2.5797 0.014 -0.2294 -1.11 -0.8228 -2.102 -1.8116 -2.761Zm-1.8174 2.744c-0.1071 -0.37 -0.2913 -0.732 -0.5656 -1.075 -1.0045 -1.005 -2.3601 -1.106 -3.5753 -0.644 -0.1808 0.57 -0.3588 1.141 -0.5337 1.714 1.5583 0 3.1165 0.001 4.6746 0.005Zm62.6625 -4.731c-0.698 -1.821 -1.426 -3.625 -2.194 -5.416 -2.124 -0.117 -3.55 -0.23 -5.269 -0.367l-0.001 0c-2.16 -0.171 -4.781 -0.379 -9.824 -0.677 0.093 1.515 0.191 3.524 0.277 5.509 5.664 0.289 11.332 0.607 17.011 0.951Zm-18.102 -6.508c-5.955 -0.339 -11.9631 -0.611 -17.9211 -0.815h-0.001c-0.242 1.727 -0.517 3.655 -0.781 5.488 6.273 0.238 12.5391 0.518 18.8091 0.834 -0.017 -0.854 -0.032 -1.699 -0.047 -2.49l0 -0.003 0 -0.004 0 -0.011c-0.021 -1.172 -0.041 -2.222 -0.059 -2.999Zm-32.2643 4.223 0.0036 0c2.6057 0.081 9.1335 0.284 12.6726 0.416v-0.001l0.908 -5.479c-0.794 -0.026 -8.733 -0.167 -13.39 -0.225 -0.4 1.657 -0.856 3.49 -1.306 5.254 0.0276 0.001 0.4381 0.014 1.1118 0.035Zm45.7543 -8.475c-0.357 -0.477 -1.072 -0.477 -1.668 -0.477h0.001c-7.766 -0.518 -8.68 -0.57 -9.546 -0.619l-0.001 0c-0.43 -0.024 -0.849 -0.048 -2.092 -0.128 0.609 1.393 0.59 2.849 0.576 3.924 -0.004 0.343 -0.008 0.647 0.009 0.898 2.806 0.169 4.959 0.289 6.701 0.386 3.826 0.213 5.671 0.315 8.104 0.586 -0.215 -0.492 -0.432 -0.983 -0.654 -1.473 -0.358 -1.072 -0.834 -2.144 -1.43 -3.097Zm-13.993 -0.494c-0.082 -0.188 -0.16 -0.366 -0.222 -0.787 -3.529 -0.217 -8.005 -0.441 -16.4881 -0.642 -0.064 0.654 -0.301 2.428 -0.607 4.631 8.7291 0.3 9.6721 0.357 14.8471 0.667 0.852 0.051 1.819 0.109 2.954 0.176 -0.102 -3.174 -0.304 -3.634 -0.484 -4.045Zm-17.2823 -1.441c-0.1241 0.718 -0.4169 2.469 -0.7738 4.618 -4.265 -0.146 -8.998 -0.291 -13.295 -0.399 0.468 -1.964 0.831 -3.587 0.972 -4.401l0.8811 0.009 0.001 0h0.0004c4.0828 0.041 8.1786 0.081 12.2143 0.173Zm-15.1738 5.109c-4.831 -0.064 -9.691 -0.153 -11.899 -0.316 -0.665 1.72 -1.308 3.455 -1.927 5.205 1.3013 -0.031 2.501 0.05 3.7315 0.134l0.0001 0c0.8668 0.059 1.7489 0.119 2.6924 0.141 0.9384 0.022 1.8601 0.024 2.7776 0.026h0.0007c1.0906 0.002 2.1755 0.004 3.2757 0.04 0.44 -1.749 0.908 -3.572 1.348 -5.23Zm-0.612 6.023c-0.687 2.671 -1.338 5.095 -1.73 6.384 5.02 0.098 9.599 0.204 14.551 0.347l1.024 -6.21c-1.177 -0.049 -2.0314 -0.091 -2.8676 -0.132h-0.0006c-2.1205 -0.104 -4.1245 -0.203 -10.9768 -0.389Zm33.6941 1.404c-6.315 -0.319 -12.6311 -0.586 -18.9461 -0.846 -0.399 2.756 -0.756 5.18 -0.914 6.203 6.701 0.199 13.3921 0.449 20.0761 0.755 -0.095 -1.193 -0.163 -3.62 -0.216 -6.112Zm1.003 0.051c0.11 2.599 0.198 5.031 0.231 6.109l-0.001 0.001c6.437 0.3 12.869 0.652 19.3 1.063 -0.717 -2.086 -1.454 -4.153 -2.227 -6.202 -3.008 -0.156 -9.061 -0.502 -13.173 -0.737l-0.006 0 -0.001 0c-2.119 -0.122 -3.721 -0.213 -4.123 -0.234Z" clip-rule="evenodd" stroke-width="1"></path></g><g id="machine"><path id="Subtract_4" fill="#ffffff" fill-rule="evenodd" d="M187.364 23.706c0.412 0 0.566 0.457 0.566 0.559l-0.001 -0.001c0 0.7203 -0.102 1.7727 -0.236 3.1566 -0.303 3.1213 -0.77 7.9287 -0.597 14.4137 -0.472 0.1715 -0.858 0.3587 -0.858 0.3587 -0.028 -0.0038 -0.056 -0.0076 -0.085 -0.0114 -0.024 -5.886 0.305 -12.0681 0.951 -17.2905 -0.955 0.6059 -2.557 1.5431 -4.004 2.2417 0.163 3.2859 0.384 7.7804 0.38 7.9713 -0.012 0.61 -0.366 0.898 -0.494 0.054 -0.206 -1.3586 -0.565 -4.6458 -0.565 -7.7111 -0.566 0.2501 -1.085 0.4443 -1.499 0.543 0.271 4.6622 0.973 9.2688 1.995 13.7829 -0.357 -0.0426 -0.715 -0.0847 -1.075 -0.1263 -0.991 -4.4964 -1.639 -9.028 -1.978 -13.5606 -12.61 -0.4375 -22.054 -0.7689 -29.158 -1.0181l-0.001 0c-20.131 -0.7064 -21.469 -0.7533 -22.801 -0.6886 -0.095 0.0046 -0.189 0.0098 -0.291 0.0153l-0.155 0.0084c0.601 1.923 1.243 3.8498 1.887 5.7819l0 0.0001c0.728 2.1861 1.458 4.3791 2.134 6.5809 -0.436 0.0215 -0.855 0.0468 -1.258 0.0812 -1.274 -4.3246 -2.583 -8.6074 -4.011 -12.8901 0 -0.231 0.113 -0.463 0.339 -0.585 0.077 -0.103 4.175 -2.228 5.846 -2.605 4.33 -0.9767 7.063 -0.8649 21.53 -0.2727 7.439 0.3045 17.982 0.736 33.439 1.2117Zm-30.133 15.9199c0.549 -1.1458 0.451 -2.5658 -0.52 -3.7318l-0.001 0.001c-0.989 -1.1534 -2.051 -1.2271 -2.935 -1.2885 -0.594 -0.0412 -1.108 -0.0769 -1.465 -0.4315 -0.704 -0.504 -0.588 -1.594 0.181 -1.99 0.704 -0.5268 1.363 -0.1949 1.88 0.0658 0.364 0.1832 0.657 0.3313 0.848 0.1212 0.184 -0.202 0.054 -0.605 0.012 -0.678 -0.285 -0.49 -0.95 -0.829 -1.488 -0.926l-0.119 -1.877c-0.018 -0.275 -0.26 -0.484 -0.531 -0.467 -0.275 0.018 -0.485 0.255 -0.467 0.531l0.117 1.84c-1.996 0.414 -2.353 2.431 -1.429 3.697 0.029 0.0299 0.058 0.0671 0.088 0.1071 0.071 0.0934 0.154 0.2017 0.287 0.2669 0.649 0.463 1.395 0.659 2.141 0.563 0.848 0 1.674 0.435 2.205 1.106 0.792 1.0019 0.652 2.1881 0.043 3.0265 0.382 0.021 0.767 0.0424 1.153 0.0643Zm-5.4 -0.2824c-0.437 -0.021 -0.868 -0.0413 -1.296 -0.0609 -0.006 -0.0625 -0.009 -0.1253 -0.007 -0.1885 0.015 -0.587 0.707 -0.86 0.937 -0.401 0.163 0.2121 0.246 0.3924 0.323 0.5594 0.014 0.0308 0.028 0.061 0.043 0.091Zm32.871 2.6492c0.248 0.0315 0.495 0.0633 0.742 0.0954 -0.149 -1.9249 -0.286 -4.4964 -0.324 -7.83 -0.008 -0.699 -0.577 -0.458 -0.58 0.055 -0.009 1.5446 -0.002 4.7808 0.162 7.6796Zm-3.987 -15.1885c1.356 -0.5441 3.414 -1.3703 5.044 -2.3222 -9.542 -0.3439 -17.252 -0.6427 -23.519 -0.8856 -22.769 -0.8823 -26.486 -1.0263 -29.779 0.085 -0.642 0.2167 -1.269 0.4813 -2.017 0.7974 -0.564 0.2383 -1.197 0.5058 -1.959 0.8042 0.542 -0.0111 8.105 0.2372 17.567 0.5479l0.001 0c11.843 0.3888 26.66 0.8752 34.414 1.0731l0.248 -0.0998Z" clip-rule="evenodd" stroke-width="1"></path><path id="Subtract_5" fill="#ffffff" fill-rule="evenodd" d="M194.424 49.0741c0.32 0.028 0.522 0.259 0.529 0.593l-0.002 -0.002c0.071 3.528 -0.876 22.736 -3.097 29.547 -1.85 5.2873 -3.178 7.5194 -5.291 11.0707 -0.492 0.8266 -1.026 1.7246 -1.619 2.7493 -3.397 5.868 -4.146 7.0969 -7.982 13.1049 -0.462 0.725 -1.072 1.549 -1.668 2.145 -0.031 0.031 -0.062 0.062 -0.092 0.093 -0.433 0.438 -0.759 0.768 -1.381 0.428 -14.126 1.145 -56.666 -6.744 -66.079 -10.1709 -0.104 -0.0231 -0.209 -0.045 -0.314 -0.067 -0.982 -0.2053 -1.995 -0.417 -2.426 -1.601 -2.954 -8.8628 1.811 -24.6462 5.89 -34.9462 0.118 0.5171 0.237 1.04 0.357 1.5677 -1.058 2.7399 -2.047 5.6659 -2.921 8.7158 -0.224 -0.0194 -0.369 -0.0294 -0.428 -0.0294 0.065 0.2822 0.13 0.5662 0.196 0.852 -1.261 4.5398 -2.262 9.3376 -2.854 14.1921 -0.239 2.621 -0.12 5.242 0.357 7.863 0.299 1.794 0.499 1.942 2.264 2.383 0.688 0.275 6.926 1.882 7.029 1.906 12.83 3.0129 24.024 5.1249 45.273 7.6249l-0.002 -0.001c2.749 0.331 9.612 1.025 12.917 0.812 -0.223 -0.506 -0.319 -1.099 -0.391 -1.549 -0.006 -0.033 -0.011 -0.066 -0.016 -0.097 -0.996 -6.137 0.431 -12.8432 1.295 -16.9018 0.092 -0.434 0.178 -0.8377 0.254 -1.2071 1.382 -7.944 3.32 -15.778 5.814 -23.392 -0.389 -0.01 -3.496 -0.448 -5.167 -0.913 -2.128 5.942 -3.653 12.109 -4.937 18.229 -1.191 5.004 -2.144 10.127 -2.74 15.25 -0.265 2.9109 -0.076 4.6429 0.033 5.6469 0.109 1.002 0.139 1.278 -0.44 1.276 -3.259 -0.011 -6.49 -0.388 -9.751 -0.767 -0.227 -0.027 -0.455 -0.054 -0.683 -0.08 -13.188 -1.529 -35.254 -4.3959 -47.894 -8.4589 -0.387 -0.194 -0.536 -0.813 -0.063 -1.012 -0.277 -2.02 -0.09 -4.127 0.302 -6.255 0.07 -0.3778 0.146 -0.8416 0.237 -1.3899 0.208 -1.2595 0.489 -2.9652 0.929 -5.1002 0.19 0.9133 0.378 1.8289 0.562 2.7427 -0.693 3.3199 -1.1 6.766 -1.017 10.1334 12.676 3.379 23.161 5.101 36.342 6.9579 1.401 0.165 2.787 0.344 4.169 0.523 2.615 0.338 5.214 0.673 7.864 0.907l0.001 0c2.808 0.216 5.617 0.432 8.426 0.737 -0.257 -1.856 -0.304 -3.7383 -0.087 -5.6209 1.145 -9.164 4.361 -25.219 7.938 -34.729 -2.246 -0.2394 -4.321 -0.4443 -6.3 -0.6298 -0.017 -0.3554 -0.032 -0.7108 -0.045 -1.0663 3.044 0.272 5.314 0.475 6.407 0.5931 -0.007 -0.0703 -0.028 -0.1955 -0.055 -0.3561 -0.104 -0.6298 -0.298 -1.803 -0.125 -2.3329 0.033 -0.1363 0.121 -0.4023 0.199 -0.6392 0.049 -0.1489 0.095 -0.2864 0.12 -0.3728 -0.622 -0.0442 -3.097 -0.251 -6.603 -0.5488 0.002 -0.3341 0.006 -0.6682 0.012 -1.0023 3.726 0.3388 6.353 0.5808 6.892 0.6381 0.595 -1.6419 1.461 -3.2781 2.233 -4.7364l0.048 -0.0906c1.852 -3.706 4.867 -7.576 8.348 -9.896 -1.783 -0.1271 -5.027 -0.4051 -9.038 -0.7491 -11.749 -1.0073 -30.091 -2.5799 -37.673 -2.5799 -1.576 0 -3.15 0.0643 -4.726 0.1286 -1.045 0.0427 -2.091 0.0854 -3.137 0.1094 -2.825 0.064 -4.077 0.464 -6.195 2.502 -1.69 1.627 -2.717 2.656 -3.812 4.408v0.001c-0.161 0.2255 -0.313 0.4379 -0.456 0.6385 -1.693 2.3686 -2.197 3.0732 -2.731 4.0665 -0.495 -0.052 -0.939 -0.0979 -1.326 -0.1371 2.625 -4.6267 5.405 -7.9461 8.682 -10.5279 0.715 -0.596 1.667 -1.192 2.74 -1.43 1.073 -0.238 2.145 -0.334 3.217 -0.357 7.862 -0.17 13.263 -0.251 24.424 0.477 15.331 0.9997 19.326 1.4455 23.993 1.9663 1.989 0.222 4.101 0.4577 7.265 0.7557 0.601 -0.245 1.251 -0.39 1.863 -0.458 1.31 0 2.621 0.357 3.812 0.834 0.239 0 0.477 0.239 0.477 0.477 -0.095 1.5213 -0.087 2.0708 -0.083 2.3791 0.005 0.3094 0.006 0.3759 -0.104 0.9379 0.532 1.052 1.298 2.32 2.041 3.238Zm-79.567 4.0122c-0.789 1.5439 -1.569 3.2181 -2.349 5.0388 -0.444 1.0197 -0.915 2.1413 -1.397 3.3437 0.223 0.0187 0.542 0.0486 0.947 0.0886 1.018 -2.4695 2.086 -4.7627 3.166 -6.8286 -0.122 -0.5517 -0.245 -1.0995 -0.367 -1.6425Zm1.497 6.9104c-0.261 0.6537 -0.512 1.297 -0.755 1.9299 0.374 0.04 0.766 0.0821 1.175 0.1263 -0.138 -0.6852 -0.278 -1.3712 -0.42 -2.0562Zm-3.653 10.2602c-0.259 0.8312 -0.501 1.636 -0.726 2.4141 0.393 0.0417 0.81 0.0863 1.249 0.1335 -0.171 -0.8492 -0.346 -1.6995 -0.523 -2.5476Zm78.678 -24.7598c0.011 0 0.031 -0.003 0.031 -0.003 -0.016 -0.3581 0.032 -0.6891 0.085 -1.0523 0.045 -0.3062 0.093 -0.6353 0.109 -1.0227 -3.72 2.252 -6.616 5.208 -9.518 11.013 -0.417 0.7745 -0.727 1.6726 -1.037 2.5708 -0.271 0.7867 -0.542 1.5735 -0.886 2.2772 0.128 0.496 0.464 1.962 0.705 3.135 2.34 -6.194 5.563 -12.521 10.511 -16.918Zm-0.347 -2.85c-0.96 -0.336 -1.974 -0.458 -2.989 -0.366l0.001 -0.001c-1.073 0.239 -2.145 0.715 -2.979 1.43 -3.584 2.561 -5.671 5.525 -7.744 9.412 -0.477 0.8937 -0.826 1.8396 -1.176 2.7856 -0.31 0.8396 -0.62 1.6792 -1.019 2.4824 0.13 0.0034 0.161 0.0072 0.328 0.0275 0.272 0.0334 0.908 0.1112 2.939 0.3045 0.357 0 0.715 0 1.027 0.089 0.935 -3.34 2.876 -7.064 4.811 -9.859 1.836 -2.484 4.163 -4.675 6.801 -6.305Zm-15.995 20.06c1.438 0.334 4.44 0.9 4.879 0.9 -0.119 -0.873 -0.604 -3.846 -0.69 -3.932 -0.107 -0.107 -4.274 -0.363 -4.477 -0.363 0 0.9056 0.104 1.781 0.193 2.5207 0.038 0.3196 0.073 0.6139 0.095 0.8743Zm6.471 11.4105c2.371 -5.7168 6.608 -15.9352 9.752 -21.1135 0.205 -0.3373 0.391 -0.7181 0.581 -1.1084 0.445 -0.9095 0.914 -1.8708 1.706 -2.4536 -0.732 -0.785 -1.348 -1.632 -1.893 -2.539 -8.028 8.343 -11.121 18.917 -13.976 30.525 -1.047 4.578 -3.461 16.421 -3.583 17.093 0.086 -0.2532 0.173 -0.5082 0.26 -0.7647 2.111 -6.1999 4.54 -13.3364 7.016 -19.3073l0.137 -0.3315Z" clip-rule="evenodd" stroke-width="1"></path><path id="vector_9" fill="#ffffff" d="m171.154 55.4101 -50.229 -4.194c-0.366 0 -0.608 -0.381 -0.453 -0.712 1.738 -3.708 3.498 -5.975 6.494 -8.366 1.481 -1.182 3.993 -1.611 5.319 -1.611 10.456 -0.648 39.446 1.589 45.709 2.241 0.515 0.053 0.617 0.763 0.139 0.96 -2.308 0.95 -6.636 7.892 -6.48 11.158 0.014 0.285 -0.214 0.524 -0.5 0.524h0.001Zm-49.449 -5.16c6.249 0.369 43.754 3.658 48.958 4.115 0.221 -3.174 3.201 -8.535 5.814 -10.74 -8.349 -0.778 -34.378 -2.704 -44.16 -2.099 -1.255 0 -3.522 0.433 -4.726 1.394 -2.677 2.135 -4.322 4.171 -5.886 7.33Z" stroke-width="1"></path><path id="Subtract_6" fill="#ffffff" fill-rule="evenodd" d="M116.254 61.9968c-0.855 -4.2346 -1.741 -8.2148 -2.445 -11.2637 -0.073 -0.315 0.168 -0.613 0.487 -0.613 0.745 0 14.33 1.5118 28.551 3.0944 9.096 1.0122 18.453 2.0534 24.877 2.7466 0.257 0.028 0.451 0.247 0.446 0.506 -0.116 6.704 0.562 13.601 2.015 20.5 0.065 0.312 -0.173 0.603 -0.489 0.603v-0.001c-0.167 0 -2.129 -0.2728 -5.204 -0.7148 -0.031 -0.3396 -0.06 -0.6793 -0.087 -1.0192 1.93 0.275 3.525 0.4971 4.659 0.647 -1.337 -6.585 -1.976 -13.165 -1.899 -19.576 -2.329 -0.2517 -9.306 -1.0233 -17.439 -1.923 -14.581 -1.6127 -32.88 -3.6368 -34.79 -3.814 0.696 3.0372 1.545 6.8798 2.361 10.9403 -0.36 -0.039 -0.708 -0.0765 -1.043 -0.1126Zm28.32 3.1321c-0.327 -0.0364 -0.655 -0.0729 -0.984 -0.1094 -0.03 -0.4609 -0.198 -0.9306 -0.542 -1.3655 -0.531 -0.671 -1.357 -1.106 -2.205 -1.106 -0.746 0.096 -1.492 -0.1 -2.141 -0.563 -0.133 -0.0652 -0.216 -0.1735 -0.287 -0.2669 -0.03 -0.04 -0.059 -0.0772 -0.088 -0.1071 -0.924 -1.266 -0.567 -3.283 1.429 -3.697l-0.117 -1.84c-0.018 -0.276 0.192 -0.513 0.467 -0.531 0.271 -0.017 0.513 0.192 0.531 0.467l0.119 1.877c0.538 0.097 1.203 0.436 1.488 0.926 0.042 0.073 0.172 0.476 -0.012 0.678 -0.191 0.2101 -0.485 0.062 -0.848 -0.1212 -0.517 -0.2607 -1.176 -0.5926 -1.88 -0.0658 -0.769 0.396 -0.885 1.486 -0.181 1.99 0.357 0.3546 0.871 0.3903 1.465 0.4315 0.884 0.0614 1.946 0.1351 2.935 1.2885l0.001 -0.001c0.546 0.6562 0.816 1.3929 0.85 2.1159Z" clip-rule="evenodd" stroke-width="1"></path><path id="Subtract_7" fill="#ffffff" fill-rule="evenodd" d="M112.703 72.7486c-0.851 -4.207 -1.73 -8.1585 -2.43 -11.1896 -0.073 -0.315 0.168 -0.613 0.487 -0.613 0.745 0 14.329 1.5117 28.55 3.0943l0.001 0.0001c9.096 1.0122 18.453 2.0534 24.877 2.7466 0.257 0.028 0.451 0.247 0.446 0.506 -0.116 6.704 0.562 13.601 2.015 20.5 0.065 0.312 -0.173 0.603 -0.489 0.603v-0.001c-0.155 0 -1.839 -0.2327 -4.519 -0.6165 -0.031 -0.3399 -0.061 -0.68 -0.088 -1.0203 1.624 0.2304 2.978 0.418 3.975 0.5498 -1.337 -6.585 -1.976 -13.165 -1.899 -19.576 -2.329 -0.2517 -9.305 -1.0233 -17.438 -1.9228l-0.001 -0.0002c-14.581 -1.6127 -32.88 -3.6368 -34.79 -3.814 0.692 3.0186 1.534 6.8328 2.346 10.8657 -0.362 -0.039 -0.71 -0.0764 -1.043 -0.1121Zm28.331 3.1306c-0.329 -0.0365 -0.657 -0.0731 -0.986 -0.1097 -0.043 -0.4363 -0.211 -0.8783 -0.536 -1.2894 -0.531 -0.671 -1.357 -1.106 -2.205 -1.106 -0.746 0.096 -1.492 -0.1 -2.141 -0.563 -0.133 -0.0651 -0.216 -0.1734 -0.287 -0.2668 -0.03 -0.04 -0.059 -0.0772 -0.088 -0.1072 -0.924 -1.266 -0.567 -3.283 1.429 -3.697l-0.117 -1.84c-0.018 -0.276 0.192 -0.513 0.467 -0.531 0.271 -0.017 0.513 0.192 0.531 0.467l0.119 1.877c0.538 0.097 1.203 0.436 1.488 0.926 0.042 0.073 0.172 0.476 -0.012 0.678 -0.191 0.2101 -0.485 0.0621 -0.848 -0.1212 -0.517 -0.2606 -1.176 -0.5925 -1.88 -0.0658 -0.769 0.396 -0.885 1.486 -0.181 1.99 0.357 0.3547 0.871 0.3903 1.465 0.4316 0.884 0.0613 1.946 0.135 2.935 1.2884l0.001 -0.001c0.527 0.6333 0.797 1.3416 0.846 2.0401Z" clip-rule="evenodd" stroke-width="1"></path><path id="vector_10" fill="#ffffff" d="M132.927 82.947c0.888 0.882 2.746 -0.209 4.4 1.72l0.001 -0.001c1.801 2.163 0.598 5.2 -2.165 5.739l-0.998 0.067c-1.326 -0.078 -3.053 -1.272 -3.02 -2.606 0.015 -0.587 0.707 -0.86 0.937 -0.401 0.534 0.697 0.213 1.05 1.628 1.718 2.233 1.053 4.579 -1.805 2.942 -3.876 -0.531 -0.671 -1.357 -1.106 -2.205 -1.106 -0.746 0.096 -1.492 -0.1 -2.141 -0.563 -0.19 -0.093 -0.277 -0.274 -0.375 -0.374 -0.924 -1.266 -0.567 -3.283 1.429 -3.697l-0.117 -1.84c-0.018 -0.276 0.192 -0.513 0.467 -0.531 0.271 -0.017 0.513 0.192 0.531 0.467l0.119 1.877c0.538 0.097 1.203 0.436 1.488 0.926 0.042 0.073 0.172 0.476 -0.012 0.678 -0.462 0.509 -1.529 -1.084 -2.728 -0.187 -0.769 0.396 -0.885 1.486 -0.181 1.99Z" stroke-width="1"></path><path id="Subtract_8" fill="#ffffff" fill-rule="evenodd" d="M156.901 98.3349c3.756 0.5423 6.211 0.887 6.399 0.887v0.001c0.316 0 0.554 -0.291 0.489 -0.603 -1.453 -6.899 -2.131 -13.796 -2.015 -20.5 0.005 -0.259 -0.189 -0.478 -0.446 -0.506 -6.424 -0.6932 -15.781 -1.7344 -24.877 -2.7466 -14.221 -1.5826 -27.806 -3.0944 -28.551 -3.0944 -0.319 0 -0.56 0.298 -0.487 0.613 1.124 4.87 2.713 12.116 3.899 18.98 0.037 0.215 0.21 0.381 0.427 0.41 0.583 0.0771 1.388 0.1881 2.378 0.3274 -0.065 -0.3467 -0.128 -0.6931 -0.189 -1.0395 -0.645 -0.0894 -1.212 -0.1669 -1.694 -0.2309v-0.001c-1.129 -6.472 -2.6 -13.236 -3.694 -18.01 1.91 0.1772 20.21 2.2013 34.791 3.8141 8.133 0.8996 15.109 1.6712 17.438 1.9229 -0.077 6.411 0.562 12.991 1.899 19.576 -1.381 -0.1824 -3.444 -0.4721 -5.965 -0.8337l0.198 1.0337Z" clip-rule="evenodd" stroke-width="1"></path><path id="vector_11" fill="#ffffff" d="M157.424 90.1741c-0.119 -1.311 -0.477 -2.74 -0.834 -4.051 -0.238 -0.953 -0.953 -1.668 -1.906 -2.145 -1.191 -0.238 -2.502 -0.119 -3.693 0.357 -7.305 2.989 -9.485 5.484 -15.607 5.361 -2.98 -0.06 -5.838 -0.953 -8.34 -2.502 -2.502 -1.311 -4.766 -2.979 -6.791 -4.885 -1.311 -1.191 -3.693 -3.455 -5.719 -2.621 -1.594 0.797 -2.514 2.202 -2.145 4.051 0.538 3.77 1.112 7.148 2.288 12.755 0.025 0.121 0.119 0.218 0.239 0.247 3.927 0.945 12.413 2.555 16.177 3.201 11.459 1.9639 27.71 3.7469 28.335 3.8059 0.37 0.035 0.67 -0.296 0.599 -0.66 -0.02 -0.105 -2.312 -11.6499 -2.605 -12.9149l0.002 0.001Zm-11.676 10.8409c-16.087 -2.2659 -22.635 -3.6659 -30.075 -5.3549 -0.71 -3.528 -1.91 -10.351 -2.117 -11.695 -0.119 -1.191 -0.333 -2.489 1.216 -2.012 2.145 0.477 3.594 2.596 5.123 3.812 2.053 1.634 4.17 3.098 6.434 4.289 4.408 2.263 9.65 2.621 14.297 0.953 3.908 -1.367 6.33 -3.546 10.365 -4.646 1.31 -0.357 2.502 -0.357 3.097 0.953 0.477 1.311 0.834 2.621 0.953 4.051 0.516 2.235 2.062 10.4169 2.188 11.0289 -3.856 -0.361 -7.615 -0.924 -11.481 -1.379Z" stroke-width="1"></path></g><g id="hand"><path id="vector_12" fill="#ffffff" d="M76.052 121.389c-1.211 -4.151 -5.431 -7.5 -10.704 -5.98 -2.827 -0.442 -6.276 -0.321 -9.192 0.262 -8.615 1.723 -15.149 7.666 -17.513 16.68 -0.22 0.839 -0.357 1.668 -0.596 2.502 -0.585 1.559 -1.183 2.09 -1.953 2.956l1.025 0.264c3.269 -3.278 1.355 -5.401 4.621 -10.845 1.311 -2.502 3.217 -4.646 5.361 -6.434 5.731 -4.119 10.743 -4.939 16.171 -4.572 -1.323 0.654 -2.56 1.491 -3.542 2.427 -0.366 0.349 0.119 0.953 0.596 0.715 2.621 -1.906 5.838 -3.932 9.174 -3.217 4.077 1.142 6.428 4.92 5.838 8.459 -0.119 0.477 -0.834 2.502 -1.668 1.787 -0.119 -0.238 -0.357 -0.477 -0.357 -0.715 -0.119 -0.238 -0.357 -0.596 -0.477 -0.834 -2.065 -3.441 -6.03 -3.074 -8.102 -0.119 -1.822 2.599 -3.432 6.596 -2.482 10.023 0.219 0.789 0.763 0.267 0.734 -0.24 -0.2 -3.47 0.443 -7.516 3.058 -10.259 1.279 -1.341 3.336 -1.43 4.766 -0.238 0.596 0.477 1.072 1.191 1.43 1.906 0.357 0.477 0.477 1.191 1.072 1.549 1.68 1.176 4.037 -2.509 2.74 -6.076v-0.001Z" stroke-width="1"></path><path id="Subtract_9" fill="#ffffff" fill-rule="evenodd" d="m78.5541 131.516 1.906 2.621h0.001c0.238 0.239 -0.12 0.715 -0.477 0.596 -1.6106 -0.716 -2.5837 -0.996 -3.5065 -1.262 -0.6322 -0.181 -1.2408 -0.357 -2.0145 -0.66 0.106 -0.428 0.1988 -0.86 0.2779 -1.295 0.358 -1.43 0.358 -3.217 -0.953 -3.932 -1.868 -0.83 -3.4322 0.726 -4.4943 2.57 -0.9345 -0.548 -2.0066 -1.199 -3.2486 -1.974 -10.4184 -6.503 -18.3856 -13.836 -27.6586 -22.371 -0.3103 -0.286 -0.6221 -0.573 -0.9354 -0.861 -1.429 -1.31 -2.74 -2.74 -3.812 -4.408 -0.823 -1.097 -0.141 -3.013 2.167 -2.412 2.1671 0.5645 4.1994 1.7416 6.1535 2.873 0.2858 0.166 0.5699 0.331 0.8525 0.492 3.217 1.906 6.433 3.931 9.412 6.195 6.91 5.123 13.582 10.603 19.896 16.441 1.046 0.958 4.421 4.569 6.434 7.387Zm-1.472 -0.47c-0.026 0.689 -0.615 1.188 -1.234 1.459 0.335 0.085 2.52 0.824 3.202 1.086 -0.377 -0.516 -1.719 -2.245 -1.968 -2.545Z" clip-rule="evenodd" stroke-width="1"></path><path id="vector_13" fill="#ffffff" d="M75.0991 128.418c-0.596 -1.311 -2.145 -1.906 -3.336 -1.311 -1.906 0.715 -2.539 2.715 -3.574 4.289 -1.236 1.878 -3.336 2.859 -5.6 2.74 -0.596 0 -0.596 0.953 0 1.072 3.488 0.249 5.942 -1.995 7.506 -5.123 0.357 -0.715 0.953 -1.311 1.668 -1.787 0.715 -0.596 1.787 -0.357 2.383 0.357 0.715 1.311 0.119 3.217 -0.238 4.527 -2.254 7.889 -7.495 12.956 -14.535 14.773 -0.953 0.238 -2.025 0.238 -2.979 0.596 -0.954 0.358 -1.191 1.191 -1.787 1.787 -0.299 0.424 -0.599 0.843 -0.897 1.259 0.069 0.348 0.124 0.714 0.168 1.076 0.364 -0.506 0.725 -1.008 1.087 -1.501 0.749 -0.999 1.125 -2.025 2.383 -2.025 7.933 -0.992 14.981 -6.902 17.514 -16.083 0.596 -1.43 0.715 -3.098 0.238 -4.646h-0.001Z" stroke-width="1"></path><path id="vector_14" fill="#ffffff" d="M26.133 142.834c1.311 -0.953 2.502 -2.025 3.574 -3.098 0.477 -0.596 1.072 -1.072 1.787 -1.549 0.834 -0.238 1.668 -0.357 2.502 -0.119 9.442 0.363 18.218 6.127 19.181 14.535 0.292 2.552 -1.761 4.759 -4.051 10.484 -0.119 0.477 0.477 0.715 0.715 0.357 0.477 -0.834 0.953 -1.668 1.311 -2.502 0.477 -0.953 0.83 -1.908 1.311 -2.74 0.828 -1.433 1.43 -3.098 1.787 -4.766 -0.413 -10.322 -11.383 -16.203 -21.922 -16.203 -0.715 0.119 -1.311 0.596 -1.787 1.072 -1.549 1.311 -3.098 2.74 -4.527 4.289 -0.357 0 -0.238 0.357 0.119 0.238v0.002Z" stroke-width="1"></path><path id="vector_15" fill="#ffffff" d="M54.021 151.532c-2.5 -10.28 -12.309 -14.198 -20.674 -14.439 -0.848 -0.19 -2.099 0.038 -3.02 0.96l-2.982 2.676c-4.573 0.501 -5.001 1.585 -18.70996 14.488 -0.184 0.173 -0.21 0.456 -0.061 0.659L33.951 190.545c0.206 0.282 0.634 0.27 0.824 -0.025 3.916 -6.087 13.434 -20.326 15.661 -27.915l3.023 -6.5c0.422 -1.047 0.899 -2.234 0.562 -4.575v0.002Zm-3.31 8.111c-0.672 -5.969 -3.705 -11.156 -8.633 -14.708 -3.929 -2.832 -8.754 -4.366 -13.128 -4.303l2.065 -1.854c0.728 -0.728 1.682 -0.819 2.146 -0.703 0.103 0.026 16.528 -0.122 19.879 13.644 0.396 2.768 -0.354 3.679 -2.329 7.922v0.002Z" stroke-width="1"></path></g></g></svg>