<svg xmlns="http://www.w3.org/2000/svg" viewBox="0 0 200 200" id="Business-Deal-3--Streamline-Milano.svg"><desc>Business Deal 3 Streamline Illustration: https://streamlinehq.com</desc><g fill="#fafafa"><path d="M105.47 35.23a5.67 5.67 0 0 0 3.46 0.79c0.46 0 7.66 -0.11 7.91 -0.09s6.8 2.27 7.51 2.46a0.51 0.51 0 0 0 0.56 -0.27c0.36 -0.71 -1.14 -0.67 -1.15 -3 1.63 0 5.9 0.46 6.86 -0.92 0.71 -1 0.58 -3.35 0.55 -13.6 0 -3.06 -1.34 -5.66 -4.38 -5.56 -0.29 0 -19.11 0.39 -19.57 0.44 -2.54 0.22 -3.81 1.59 -4 4.31 -0.08 0.9 0 10.54 0.28 12a5 5 0 0 0 1.97 3.44zm0 -18.25c1.2 -0.75 2.36 -0.56 8.18 -0.71 5.16 -0.14 13.78 -0.37 14.28 -0.23a3.36 3.36 0 0 1 2.2 2.5c0.34 1.27 0.34 14.06 0 14.7 -0.81 1.46 -2.9 0.73 -6.8 1a0.48 0.48 0 0 0 -0.46 0.46 4.49 4.49 0 0 0 0.41 2.43c-4.19 -1.27 -4.66 -1.87 -6.2 -2.09 -2 -0.28 -7.92 0.11 -9 0 -2.41 -0.13 -3.61 -1.79 -3.71 -4.94 0 -1 -0.16 -8.59 -0.16 -8.77 -0.08 -1.59 -0.08 -3.42 1.23 -4.33z" stroke-width="1"></path><path d="M115.57 31.21a0.45 0.45 0 0 0 0.73 -0.09 87.26 87.26 0 0 1 7.3 -10.79 0.24 0.24 0 0 0 -0.33 -0.34 38.09 38.09 0 0 0 -7.45 10.09 43.3 43.3 0 0 0 -4.58 -4.55c-0.5 -0.34 -0.79 -0.05 -0.65 0.45 0.04 0.14 4.22 4.25 4.98 5.23zM61 46.68c-1.52 0.89 -3.57 0 -4.87 -1.09a0.41 0.41 0 0 0 -0.69 0.31 3.7 3.7 0 0 0 2 2.92 0.24 0.24 0 0 0 0.25 -0.4 3.13 3.13 0 0 1 -1.16 -1.57c1.07 0.71 3.1 1.69 4.72 0.15a0.2 0.2 0 0 0 -0.25 -0.32zm0.86 -3.82a0.23 0.23 0 0 0 0.1 0.44 1.46 1.46 0 0 0 1.37 -1.93c-0.32 -0.7 -1 -0.61 -1.13 -2.17a0.21 0.21 0 1 0 -0.42 0 8.47 8.47 0 0 0 0 1.11c0.16 0.92 0.89 1.07 0.77 1.7a1.24 1.24 0 0 1 -0.69 0.85zM57 37.7c0.13 1.27 -0.3 2.09 0.07 2.51a0.69 0.69 0 0 0 1.21 -0.44 11 11 0 0 0 -0.28 -2.21 0.52 0.52 0 0 0 -1 0.14zm8.3 -0.58a0.52 0.52 0 0 0 -1 0.14 10.42 10.42 0 0 1 -0.1 2 0.68 0.68 0 0 0 0.69 0.72c1 0.02 0.65 -1.43 0.41 -2.86zm-8.03 -2.41a0.4 0.4 0 0 0 -0.07 -0.79c-1.21 -0.1 -2 1.25 -2.14 1.77 -0.1 0.27 0.32 0.42 0.43 0.14a2.29 2.29 0 0 1 1.78 -1.12zm6.42 -0.23c1.49 0 1.53 0.59 1.79 0.59a0.22 0.22 0 0 0 0.19 -0.34 0.09 0.09 0 0 0 0 -0.06c-0.14 -0.28 -0.56 -1.14 -2.09 -0.89 -0.38 0.05 -0.34 0.71 0.11 0.7zM62.24 66a0.69 0.69 0 1 0 0 -1.38 0.69 0.69 0 1 0 0 1.38zm0.19 3.15a0.76 0.76 0 0 0 1.51 0 0.76 0.76 0 0 0 -1.51 0zm81.81 -23.87a1.64 1.64 0 0 1 -1.89 -0.66c0.15 -0.32 1.51 -2.29 1.73 -2.73a0.25 0.25 0 0 0 -0.12 -0.34c-0.38 -0.2 -0.18 0.29 -2.25 2.47 -1 1 1.42 2.95 2.75 1.64a0.23 0.23 0 0 0 -0.22 -0.38zm4.82 3.19a3.06 3.06 0 0 1 -0.87 1.49 0.23 0.23 0 0 0 0.2 0.4 2.6 2.6 0 0 0 1.61 -2.57c0 -0.14 0 -0.34 -0.12 -0.51s-0.48 -0.33 -0.62 -0.11a5.13 5.13 0 0 1 -3.54 2.21c-0.32 0 -0.3 0.51 0 0.49a5 5 0 0 0 3.34 -1.4zM141 38.19a0.52 0.52 0 0 0 -1 -0.06 11.74 11.74 0 0 0 -0.25 2.39 0.65 0.65 0 0 0 1.17 0.11 11.68 11.68 0 0 0 0.08 -2.44zm7.72 3.03a11.71 11.71 0 0 0 0.11 -2.44 0.52 0.52 0 0 0 -1 -0.06 12.5 12.5 0 0 0 -0.24 2.39 0.65 0.65 0 0 0 1.13 0.11zm-9.27 -3.82a1.21 1.21 0 0 1 1.3 -0.46c0.42 0.05 0.54 -0.66 0.1 -0.71a1.56 1.56 0 0 0 -1.78 1 0.21 0.21 0 0 0 0.38 0.17zm9.03 0.16a1 1 0 0 1 1.06 0.63 0.22 0.22 0 0 0 0.43 -0.11c-0.19 -1.11 -1.8 -1.66 -1.8 -0.88a0.34 0.34 0 0 0 0.31 0.36zm-83.55 136.2c-1.42 -1 -7.23 -6 -8.06 -6.66a4.22 4.22 0 0 0 -2 -5 5.47 5.47 0 0 0 -5.57 0.8c-2.42 1.89 -2.59 5.26 0.29 6.84a6.18 6.18 0 0 0 4.71 0.48 4 4 0 0 0 2.37 -2.46c0.67 0.6 7.83 6.42 8.17 6.42a0.23 0.23 0 0 0 0.09 -0.42zm-8.56 -7.55c-1 5.43 -7.09 3.51 -8 1.43 -1.11 -2.71 1.73 -5.29 4.51 -5.29a3.38 3.38 0 0 1 3.49 3.86z" stroke-width="1"></path><path d="M51.12 167.23c-0.09 -0.6 -0.34 -2.25 -0.51 -2.85a0.23 0.23 0 0 0 -0.45 0.12c0.22 0.86 0 3.38 0.42 3.64s0.65 0 1 -0.23c0.64 -0.46 3.33 -2.28 4 -2.69a0.18 0.18 0 0 0 -0.16 -0.32c-0.34 0.1 -3.42 1.87 -4.3 2.33zm19.6 3.4c-1.53 -1.14 -10.81 -8.8 -11.73 -9.38a0.32 0.32 0 0 0 -0.4 0.5c0.56 0.65 11.79 9.29 12 9.29a0.23 0.23 0 0 0 0.13 -0.41zm2.96 -5.12c-1.43 -1.06 -8.72 -7.5 -9.4 -8 -0.34 -0.24 -0.68 0.23 -0.44 0.52 0.72 0.88 9.49 7.86 9.72 7.86a0.22 0.22 0 0 0 0.12 -0.38zm-6.39 -11.41c-0.37 -0.28 -0.82 0.29 -0.48 0.6 1 0.92 7.7 6.49 8.3 6.49a0.22 0.22 0 0 0 0.11 -0.42c-0.7 -0.41 -6.62 -5.67 -7.93 -6.67z" stroke-width="1"></path><path d="M133.38 149.21c-0.55 -0.41 -1.06 -0.11 -1.51 0.16a34.73 34.73 0 0 0 -6.16 4.45c-1.42 -7 -2.38 -11.81 -2.43 -12 -0.3 -0.77 -1.16 -0.51 -1.74 -0.44l-1.94 0.25v-1.4a0.38 0.38 0 0 0 -0.36 -0.51c-2.87 0.05 -26.39 0.16 -26.39 0.16 -0.3 0 -5 14.77 -7.47 22.34a21.91 21.91 0 0 0 -3.92 -4.87l2.74 -7.88a1.84 1.84 0 0 1 0.07 1.09c-0.12 0.67 -1.2 5.24 -1.35 5.83a0.19 0.19 0 0 0 0.35 0.13A62.18 62.18 0 0 0 85 150a1.53 1.53 0 0 0 -0.64 -1.21 10 10 0 0 0 0.16 -1.25c0 -0.54 0.11 -1.22 -0.46 -1.61 -1.53 -1 -2.74 1.52 -2.58 1.56 -0.26 0.57 -1.53 3.76 -3 7.42 -2 -1.44 -9.11 -6.06 -9.61 -6.2 -0.23 -0.07 -27.41 15.84 -27.59 16 -0.46 0.47 0 1.07 0.27 1.43 1 1.38 17.06 13.57 19 14.79a2.4 2.4 0 0 0 1.23 0.55c0.81 0 15.18 -7.3 21 -11.32 -1.53 4.81 -2.11 6.53 -2.23 7.2s0.33 0.63 0.54 0.51 1.89 0 4.18 0c0.52 2.64 0.07 3.57 0.36 3.87s36.34 -0.8 43.56 -1.94c6.79 5.59 6.24 5.65 7.6 4.69 0.75 -0.53 14.9 -12.28 16.51 -13.77a0.35 0.35 0 0 0 0.12 -0.28c0.05 -0.44 -19.67 -20.96 -20.04 -21.23zM81.93 148a6.43 6.43 0 0 1 1.47 0.68c0.15 0.15 0.12 0.26 0 0.53 0 0 -6.15 17.75 -6.56 19a10.48 10.48 0 0 1 -2.54 -0.9c5.31 -13.15 6.88 -17.56 7.63 -19.31zm-5.1 20.88c0.2 2.33 -0.33 1.74 -2.16 4 0.17 -0.56 0.39 -1.26 0.49 -1.6a1.08 1.08 0 1 0 -0.59 -0.2c-0.12 0.38 -0.42 1.37 -0.62 2.07 -0.53 -2.12 -1.82 -2.23 0.18 -5.11a9.71 9.71 0 0 0 2.7 0.84zm-3.19 -1.19c-2.46 3.46 -0.33 3.78 -0.15 6.86a0.31 0.31 0 0 0 0.12 0.24c-4 2.17 -7.25 3.77 -11.36 5.8 -0.27 0.14 -0.44 0.21 -0.62 0.09A195.4 195.4 0 0 1 42 165.29c0 -0.1 0 -0.08 0.06 -0.14l26.81 -15.78c0.31 0.21 8.21 5.25 9.41 6.08 -5.2 13.06 -4.84 11.98 -4.64 12.24zm2.94 4.07a3.09 3.09 0 0 0 0.84 -3c0.36 -0.94 2.1 -5.87 3.73 -10.54a22.15 22.15 0 0 1 3.95 4.85c-0.69 2.13 -1.35 4.19 -1.94 6.06a83.56 83.56 0 0 1 -8.91 5.33 25.92 25.92 0 0 1 2.33 -2.7zm7.24 -23.6a8.1 8.1 0 0 0 -1.67 -0.78c0.31 -0.7 1 -1.4 1.65 -0.93 0.32 0.29 0.11 1.14 0.02 1.71zm36.76 28.73a0.35 0.35 0 0 0 0.47 -0.35c-0.31 -4.11 -1.21 -26.7 -1.43 -34.11 2.95 -0.34 2.87 -0.39 2.92 -0.27s7 35.13 7.42 36.82c-2.91 0.42 -39.89 2.25 -43.66 2.15a12.86 12.86 0 0 0 -0.28 -3.34c10.17 -0.19 32.59 -0.79 34.56 -0.9zm-1.71 -36.36c-0.14 4.93 1.06 32.05 1.42 35.71 -21 0.4 -36.83 0.9 -38.84 1 1.25 -3.84 7.35 -22.52 11.6 -36.52 5.48 -0.12 20.95 -0.19 25.82 -0.19zm11.84 38.87a0.17 0.17 0 0 0 0.09 -0.17c0 -0.33 0.27 1.35 -2.71 -13.55a0.37 0.37 0 0 0 0.46 0.1c0.41 -0.21 6.8 -6.28 8.16 -7.48 0.21 -0.19 -0.08 -0.51 -0.3 -0.32 -1.45 1.25 -8.09 6.89 -8.35 7.3 -0.07 0.1 0.1 0.77 -1 -4.84 1.23 -1 5 -4.41 6 -5.26 0.25 -0.2 -0.07 -0.56 -0.32 -0.37 -1.35 1 -4.54 3.55 -5.89 4.76 -0.34 -1.72 -0.67 -3.36 -1 -4.9a56.47 56.47 0 0 1 7 -4.85c1 0.94 18.13 18.92 19.66 20.53 -0.37 0.31 -15.87 13.15 -16.64 13.71 -0.58 -0.26 -4.91 -3.72 -5.84 -4.45a3.35 3.35 0 0 0 0.68 -0.21z" stroke-width="1"></path><path d="M140.15 162.76c0.23 -0.18 -0.06 -0.52 -0.29 -0.34 -1.8 1.45 -9.37 8.06 -10.11 8.9a0.36 0.36 0 0 0 0.27 0.6c0.34 0 7.77 -7.24 10.13 -9.16zm-9.04 13.4a0.36 0.36 0 0 0 0.25 0.59c0.18 0 0.12 0.07 6.19 -4.9 5.92 -4.85 5.63 -4.49 5.62 -4.66a0.21 0.21 0 0 0 -0.32 -0.16c-3.06 2.1 -11.36 8.63 -11.74 9.13zm3.6 2.84a0.36 0.36 0 0 0 0.5 0.52c0.76 -0.61 9.59 -8.25 10.67 -9.09a0.2 0.2 0 0 0 -0.23 -0.33c-1.65 1.27 -9.23 7.16 -10.94 8.9zm-46.41 -5.25c6.58 0.36 19.54 0.19 26.09 0.09a0.23 0.23 0 1 0 0 -0.46l-7.94 -0.12c1.77 -1.54 1.56 -2.42 1.51 -1a0.34 0.34 0 0 0 0.5 0.31c1.2 -0.62 1 -0.59 1.14 -0.44s0.42 0.49 0.73 0.24a7.91 7.91 0 0 1 4 -1.66 0.21 0.21 0 0 0 0 -0.42 6.66 6.66 0 0 0 -4.2 1.34c-0.56 -0.59 -0.5 -0.49 -1.49 0.07 0 -1 0.07 -1.34 -0.24 -1.42s-0.29 0.18 -0.89 0.9c0.49 -1.18 0.76 -2 1 -2.81a2.71 2.71 0 0 0 0.18 -1.69c-1 -2 -3.33 1.34 -4.14 3.45a3.6 3.6 0 0 1 -0.73 1.33 1 1 0 0 1 -1.24 0.13c-0.18 -0.15 -0.09 -0.45 -0.21 -0.74 -0.46 -0.81 -1.27 -0.24 -2 0.3 -0.2 0.16 -0.16 0.15 -0.14 0 0.22 -1.15 0.37 -2.46 -0.8 -2.25 -0.24 0.06 -0.4 0.19 -0.81 0.57 -2.25 2 -1.44 1.74 -1 -0.09 0.27 -1.67 -1.29 -1.5 -2.72 -0.58 0.42 -0.85 1 -2.08 0 -2.7 -0.77 -0.38 -1.73 0.24 -2.38 0.94a9.36 9.36 0 0 0 -1.44 2.36 0.23 0.23 0 0 0 0.41 0.22 6.53 6.53 0 0 1 2 -2.65c0.18 -0.12 0.74 -0.48 1.1 -0.31 0.77 0.35 -0.53 1.95 -1.63 4.44 -0.19 0.43 0.43 0.78 0.64 0.34a5 5 0 0 1 2.7 -2.51c0.72 -0.27 0.9 -0.23 0.55 0.6 -0.13 0.3 -0.78 2.14 -0.94 2.57a0.37 0.37 0 0 0 0.6 0.37c4.08 -3.87 3.37 -3.75 2.87 -0.51a0.35 0.35 0 0 0 0.58 0.34c1.31 -1 1.45 -1.19 1.72 -1.2a0.82 0.82 0 0 1 0 0.18 1.34 1.34 0 0 0 1.75 1.12c1.85 -0.42 1.28 -2.7 3.59 -5 0.18 -0.2 0.51 -0.59 0.75 -0.59 0.79 0 -1.62 5.25 -2 6a0.4 0.4 0 0 0 0.09 0.47c-5.79 -0.1 -11.76 -0.3 -17.65 -0.16a0.33 0.33 0 0 0 0.09 0.63zm24.07 -10.88c-1.43 0.08 -15.44 -0.17 -16.75 -0.26a7.71 7.71 0 0 0 -2.21 0.09c-0.73 0.14 -1.51 0.65 -2.18 0.35 -0.24 -0.12 -0.43 0.26 -0.18 0.37 1 0.47 1.76 -0.36 3.7 -0.3 1.55 0 16 0.67 17.65 0.52 0.47 -0.05 0.47 -0.79 -0.03 -0.77zM91 158.7c4 0.59 12.07 0.85 17.94 1.05 3.11 0.1 5.56 0.18 6.18 0.27a0.42 0.42 0 0 0 0.48 -0.35c0.11 -0.6 0.25 -0.57 -14 -1 -5 -0.14 -9.72 -0.28 -10.52 -0.38a0.2 0.2 0 0 0 -0.08 0.41zm1.6 -4.11a0.2 0.2 0 0 0 0 0.4c21.55 0.49 21 0.76 21.06 0.17s0.24 -0.35 -21.06 -0.57zm-0.26 -3.48c3 -0.32 21.34 -0.18 23 0 0.46 0 0.48 -0.65 0 -0.7 -3 -0.34 -21.33 0.13 -23.12 0.34a0.2 0.2 0 0 0 0.12 0.36zm2.01 -4.04a10.24 10.24 0 0 1 6.07 -0.55 7.22 7.22 0 0 0 2 0 9.3 9.3 0 0 1 2 0.08c1.45 0.16 6.12 -0.26 11.18 -0.32 0.37 0 0.44 -0.59 0.06 -0.65a69.73 69.73 0 0 0 -8.57 0.13c-3.06 0.33 -2.89 -0.17 -4.27 -0.07a12.41 12.41 0 0 1 -2 0.12c-2.43 -0.25 -2.39 -0.61 -6.59 0.76a0.25 0.25 0 0 0 0.12 0.5zm0.03 -3.88c2 0.44 3.78 -1.17 5.62 -0.22 1 0.32 2 -0.29 2.87 -0.3 0 0 9 0.61 10.61 0.61 0.33 0 0.7 0 0.7 -0.28a0.25 0.25 0 0 0 -0.24 -0.25c-1.38 -0.11 -9.79 -0.74 -10.5 -0.81a13.6 13.6 0 0 0 -2.77 0.39 3.31 3.31 0 0 1 -0.88 -0.24c-1.9 -0.6 -3.52 1 -5.29 0.63a0.24 0.24 0 1 0 -0.12 0.47z" stroke-width="1"></path><path d="M194.82 153.66a182.54 182.54 0 0 0 -26.82 -9.18c0 -1.45 -0.22 -4.32 -0.35 -5.29a6.57 6.57 0 0 0 1.41 -1.71c0.72 -1.19 7.38 -15.69 7.67 -17.24a4.73 4.73 0 0 0 -0.66 -3.65c-0.62 -0.84 -2.93 -1.84 -4.07 -2.45 1.32 -1.08 4.88 -4.14 4.88 -4.14 3.94 -3.24 4.56 -6.57 4.24 -10.87 -0.93 -12.33 -2.78 -26.31 -11.73 -36.32 -2 -2.21 -4.19 -4.26 -7 -4.34a3.78 3.78 0 0 0 -2.31 -2.58c1.26 -1.51 -0.56 -2.49 -2.35 -2.5 1.12 -2 0.88 -3.5 0.95 -9a3.1 3.1 0 0 0 2.09 -1.84 4.65 4.65 0 0 0 -0.16 -3.55c0.46 -1.34 2.23 -7.32 -1.16 -11.65 -4.75 -6.78 -20.87 -3.32 -18.6 1.11a10.12 10.12 0 0 0 -1.32 6.4 4 4 0 0 0 -2.53 3.3 4.39 4.39 0 0 0 2 4.4c-0.34 5.52 0.34 9.68 4.49 12.85 0 0 0.11 1.43 0.17 2.11 -1 1 -1.91 1.87 -2.76 2.76a18.81 18.81 0 0 0 -10.49 10.2c-1.21 2.74 -5.3 14.23 -6.42 17.21a2.33 2.33 0 0 1 -1 1.4c-0.64 0.32 -16.94 5.12 -17.58 5.4a2 2 0 0 0 -1 0.94c-1.47 -0.22 -2.8 -1.05 -4.32 -1.25a3.87 3.87 0 0 0 -3.64 1.07c-1.09 -0.15 -4 -0.26 -5.07 -0.26a1.4 1.4 0 0 0 -1.18 -1.15c-0.54 -0.1 -14.21 -2 -14.56 -2 -0.7 -7.56 -2.1 -16 -3 -20.52 0.89 -6.17 -1.38 -7.78 -3.78 -15.43a8.25 8.25 0 0 0 2.1 1.6 0.15 0.15 0 0 0 0.2 -0.21 52.52 52.52 0 0 1 -4 -10.09 55.56 55.56 0 0 0 -0.22 -14h1a0.15 0.15 0 0 0 0.15 -0.14A12 12 0 0 0 62 21.79a6.54 6.54 0 0 1 1.86 0.06 0.15 0.15 0 0 0 0.12 -0.28A14.77 14.77 0 0 0 53.76 20a4 4 0 0 1 0.92 -1.52 0.16 0.16 0 0 0 0 -0.17c-0.11 -0.34 -1.79 0 -2.63 1.31a1.39 1.39 0 0 1 -0.05 -1.46c0.33 -0.55 -1.55 -0.1 -1.46 1.41a4.3 4.3 0 0 0 -4.05 0.16 0.15 0.15 0 0 0 0.1 0.28 3.54 3.54 0 0 1 1.8 0.52C39 24.18 37.21 33.76 36.77 37.72c-0.47 4.3 0.24 4.75 -0.18 11.2 -0.64 9.72 -6.92 28.15 -8.88 33.56C25.19 88.3 29 92.09 35 94c0.09 3.14 0.24 7.45 0.5 8.78a8.47 8.47 0 0 0 2.5 4.77 10.61 10.61 0 0 0 -0.36 3.51 5.14 5.14 0 0 0 -1.62 2.3c-0.79 1.63 -3.28 18.24 -6 36.75 -7 3.08 -14.63 7 -24.65 12.39 -1 0.54 -0.25 1 0.39 0.65 30.71 -15.85 43.7 -21.39 83.15 -24.75 7.11 -0.6 14.41 -0.56 21.45 -0.62 28 -0.16 57.54 7.32 84.23 16.44 0.71 0.25 0.62 -0.39 0.23 -0.56zM146 99.2c1.77 1.17 9.32 5.63 12.15 7.1l-5.15 6.22a2.15 2.15 0 0 0 -0.6 1.76 4.08 4.08 0 0 1 -3 0.69 1.9 1.9 0 0 0 -0.67 0 0.78 0.78 0 0 0 -0.61 0.76 2.11 2.11 0 0 0 1 1.44 7.76 7.76 0 0 1 -1 0.77 65.34 65.34 0 0 1 -12.33 -8.45c0.74 -2.49 2.5 -8.59 4.89 -11 1.8 -1.87 2.88 -0.94 5.32 0.71zm-86 26.51a0.75 0.75 0 0 1 1.47 -0.33c0.95 4.25 2.4 10.48 3.4 14.76l-1.48 0.25c-0.95 -4.27 -2.39 -10.45 -3.34 -14.68zm85.14 -5c0.08 0.22 0.34 0.48 1.12 0.51 -0.45 0.75 -0.09 1.76 1.4 1.51a1.56 1.56 0 0 0 1.65 1.65c1.37 0 2.42 -1.26 4.37 -2.78 10.9 5.14 15.27 7.47 18.7 6.76l-3.23 7c-0.69 1.49 -1.73 3.74 -3.74 3.87 -1.08 0 -12.31 -5.51 -20.5 -9.53 -10.74 -5.27 -9.89 -4.6 -10.72 -5.41 -1.83 -1.88 -2 -4.71 -0.48 -8.68 0.69 -1.93 1.3 -3.74 1.86 -5.53 0.77 0.8 3.87 3.71 11.8 8.28 -0.71 0.48 -2.46 1.56 -2.18 2.36zm26.13 -6c0.9 0.62 3.8 2 4.06 2.3a3.3 3.3 0 0 1 0.65 1.68c0.13 1.26 -2.66 7.66 -3.21 8.85a11.05 11.05 0 0 1 -3.57 -0.07c-0.88 -0.18 -7.61 -3.08 -11.93 -5a2.24 2.24 0 0 0 1.24 0 46.06 46.06 0 0 0 12.81 -7.79zm-17 6.47c0.43 -0.35 0.88 -0.71 1.13 -0.93 0.73 1.21 1.11 1.87 1.64 2.15zm-5.63 2.28c-0.52 -0.4 0.91 -1.41 1.45 -1.81 0.24 -0.18 0.55 -0.33 0.41 -0.53a0.19 0.19 0 0 0 -0.26 -0.06 6.06 6.06 0 0 1 -2.53 1.13c-0.27 0 -0.9 0.1 -1 -0.2 -0.18 -0.75 1.83 -1.37 2.21 -1.57 1.36 -0.7 1.5 -0.75 1.39 -1 -0.25 -0.48 -2.18 1.27 -4.39 1.08 0.24 -0.52 3.22 -2.55 3.74 -3a2.93 2.93 0 0 0 0.69 0.26 0.28 0.28 0 0 0 0.26 -0.46c-0.36 -0.33 -1.72 -1.08 -1.79 -1.52 0 -0.14 0.09 -0.11 0.23 -0.08a5 5 0 0 0 3.5 -0.77c0.34 0.72 1.67 3.34 2.41 4.62 -3.45 2.73 -4.96 4.88 -6.27 3.88zm-15 1.43c0.82 1.08 27.52 13.5 28.92 14.33a4.59 4.59 0 0 0 4 0.6c0.08 1.07 0.15 3.21 0.19 4.4a234 234 0 0 0 -23.75 -4.8 75.42 75.42 0 0 0 -2 -8 0.58 0.58 0 0 0 -1.09 0.39c0.36 1 1.16 5.58 1.53 7.43q-6.39 -0.9 -12.91 -1.47c0.05 -1 1.06 -20.46 1.2 -22.67a15 15 0 0 0 3 1.32c-0.94 2.89 -1.39 6.03 0.97 8.44zm-60.36 14c-0.76 -3.13 -1.89 -7.83 -2.88 -12.06a0.75 0.75 0 0 1 1.46 -0.34c1 4.3 2.16 9.08 2.92 12.21zm23.13 -34.94a5.83 5.83 0 0 0 1.58 -1.79c0.76 -0.13 1.54 -0.4 1 0.45 -1.59 2.36 -2.58 1.78 -2.55 1.42a0.22 0.22 0 0 0 0.03 -0.09zm-0.63 -2.79c-0.23 0.84 -1.2 1.3 -1.92 1.81 -0.29 0.13 -0.64 0.41 -0.85 0.21 -0.57 -0.53 1.37 -2.32 2.36 -2.31 0.32 0 0.47 0.13 0.47 0.28zm1.31 1.16c-1 1.23 -2.67 2.68 -2.77 1.08 0.72 -0.51 1.7 -0.93 2.08 -1.85 0.24 -0.13 1.6 -0.26 0.75 0.76zM35.8 74.68c-0.32 -6.07 3.26 -10.66 7 -11.79 4.33 -1.31 9.24 1.93 11.48 5.68a0.15 0.15 0 0 0 0.28 -0.06 5.18 5.18 0 0 0 -1.14 -3.91 12.13 12.13 0 0 1 -1.27 -2.37c2 2 4.6 4.06 6.62 4.74a0.42 0.42 0 0 0 0.58 -0.27c0.27 -1.27 1.6 -7.36 1.62 -7.86a1 1 0 0 0 -0.53 -0.85c-0.43 -0.29 -6.77 -4.63 -10 -7.14C47.59 44 47.39 41 47.14 40.8a3 3 0 0 1 -2.48 -0.66 2.25 2.25 0 0 1 1.76 -3.85 3.49 3.49 0 0 1 2.28 2.29 0.15 0.15 0 0 0 0.22 0.08c2.54 -1.5 2.36 -3.72 3.76 -8.55A14.67 14.67 0 0 0 60.12 33c0.75 0 -1.51 -3 -2 -3.56 -0.31 -0.39 -0.08 -1.22 0.89 -0.34 1.94 1.75 4.5 3.79 7.12 4a59.18 59.18 0 0 1 0.1 14.21 7 7 0 0 1 -5.4 4.52 0.14 0.14 0 0 0 -0.13 0.14 5.06 5.06 0 0 0 2.3 4.14 21.91 21.91 0 0 0 -1.2 2.32 0.41 0.41 0 0 0 0.07 0.45c0.37 0.37 3.49 11.54 3.5 11.86s-0.19 0.82 -0.61 0.7a0.37 0.37 0 0 0 -0.29 0.67c0.57 0.43 1.6 0 1.75 -1.06a69.93 69.93 0 0 0 -3.44 -11.23c4.28 4.57 2.92 4.13 4.5 2.33l4.56 8.58c1 5.77 2.8 18.79 3 21a6.74 6.74 0 0 1 -3.13 -1.21c-1.08 -0.79 -9.55 -14 -11.61 -16.59a0.15 0.15 0 0 0 -0.25 0.18c1.85 2.92 9.46 14.82 10.37 16a6.17 6.17 0 0 0 3.37 2.22c1.1 0.29 16.5 2.4 16.53 2.4 0.62 0.21 0.41 1.24 0.38 1.83 -0.1 1.88 -0.26 3.55 -0.49 5.11 -1.7 0.1 -19.28 1.4 -20 1.46 -8.36 0.57 -11.66 -0.48 -20.42 -11C45.1 86.8 41 80.55 41.55 73.79a0.26 0.26 0 0 0 -0.51 0C40.14 82.33 46 89.55 51.72 96c8.27 9.29 12.15 8.37 23.28 7.54a33.41 33.41 0 0 1 -0.32 4c-7.31 5.1 -17.53 5.66 -30.38 1.68 -3.65 -1.21 -6.41 -1.27 -7.71 -5.54 -1.47 -4.74 -0.19 -18.01 -0.79 -29zm15.72 -20.62a0.15 0.15 0 0 0 0.19 -0.21c-0.2 -0.42 -0.41 -0.86 -0.62 -1.32 4.21 3.29 9 6.19 9 6.31s-0.92 4.74 -1.43 7.15a35.33 35.33 0 0 1 -7.27 -5.45 59.79 59.79 0 0 1 -2.54 -8.24 13 13 0 0 0 2.67 1.76zm15.56 7.15a12.64 12.64 0 0 0 -1 1.17 45.81 45.81 0 0 0 -3.59 -3.89 11.15 11.15 0 0 1 1.06 -2.15 1.09 1.09 0 0 1 0.8 -0.49c0.12 0 0.41 0 1.31 1.37s1.56 2.21 1.42 3.99zm8.65 42.32 2 -0.15c2.22 7.33 3.18 9.79 3 10l-3.32 2.12c-0.43 -2 -0.51 -2.86 -2.52 -4.57a27.27 27.27 0 0 0 0.84 -7.4zm5 10.82c0.56 2.9 2.08 3.4 2 4.23a0.73 0.73 0 0 1 -1 0.56 0.37 0.37 0 0 0 -0.47 0.35c0 2.68 2.21 4.24 -1.81 7.28 0 -0.29 -1.5 -8.08 -2 -10.37zm20.16 -15.27a0.22 0.22 0 0 0 -0.27 0.35c0.73 0.69 1.77 1.55 1.6 2.67a0.87 0.87 0 0 1 -0.26 0.56 3.71 3.71 0 0 0 -1.79 -1.79 0.18 0.18 0 0 0 -0.18 0.32c1.52 1.07 2 2.84 1.47 3 -0.27 0.08 -1.58 -1.1 -1.82 -1.33 0.51 -1 0 -1.58 -0.92 -1.47a4.8 4.8 0 0 0 -0.66 0.12c-0.2 -0.61 -1 -0.75 -1.64 -0.58 -0.51 -1.48 -2.63 -0.45 -3.65 0.75a18.19 18.19 0 0 0 -2 -0.27c0.15 -1.4 0.45 -4.77 0.46 -5.71 0.36 0 3.91 0.24 4.56 0.26 -1 2.06 0.36 4.26 2.18 2.47 0.24 -0.25 1.32 -1.43 1.65 -1.25a14.27 14.27 0 0 1 2 1.79 3.16 3.16 0 0 1 0.57 1.18 4.83 4.83 0 0 0 -1.25 -1.07zm-62.51 12a11.64 11.64 0 0 1 0.27 -3 13.26 13.26 0 0 0 3.43 1.38c10.88 3.22 23 5.83 32.4 -1 -0.15 0.84 -0.35 1.67 -0.56 2.5 -6.06 4.48 -11.87 4.86 -19.78 4 -4.41 -0.17 -10.72 -0.96 -15.71 -3.86zm14.81 11.06c-0.75 8.08 -1 15.64 -1.1 20.55l-1.51 0.36c0.08 -4.92 0.34 -12.71 1.12 -21a0.75 0.75 0 0 1 1.54 0.11zM171 66c6.32 8.86 8.08 20.13 9 30 0.58 5.49 1 9.83 -3.85 13.57 -5.39 4.65 -11.05 9.56 -17.72 12.13a1.05 1.05 0 0 1 -1.19 -0.31c-0.32 -0.41 -3.8 -6.59 -3.92 -7.07a1.47 1.47 0 0 1 0.5 -1.33c0.12 -0.13 11.63 -13.49 12.3 -15.34 0.38 -1 -0.48 -2 -0.91 -2.82a33.55 33.55 0 0 1 -3.69 -11.94c0 -0.33 -0.55 -0.31 -0.52 0a30 30 0 0 0 4.24 13.72c0.4 1 -1.68 3.25 -6.45 9 -2.64 -1.24 -7.61 -4.25 -10.58 -6.13 0.06 -0.82 0.11 -1.64 0.17 -2.42 0.76 -1.41 11.67 -21.84 12.57 -23.67a0.15 0.15 0 0 0 0 -0.17 26.3 26.3 0 0 1 -1.74 -2.38c-0.2 -0.6 5.06 -1 5.53 -1s1.47 0 1.47 -0.95c0 -0.41 -2.78 -8 -3.51 -9.83 3.36 0.36 6.43 4.44 8.3 6.94zm-11.5 -9.37c1.19 0.18 1.88 1.42 2.25 2.46 0.49 1.25 3.44 9.18 3.46 9.23 0.1 0.24 0.29 0.68 0.13 0.79s-1.13 0.14 -2 0.23c-1.32 0.14 -2.81 0.29 -3.3 0.41s-1.41 0.23 -1.67 0.75c-0.34 0.7 0.66 1.43 1.86 3 -1.45 1.82 -10.53 19.38 -11.73 21.7 0.35 -4.56 1.12 -14.47 2.3 -18.83a44.32 44.32 0 0 1 4.11 -9.82c1.12 -1.92 1.87 -4 3.25 -5.8a5.69 5.69 0 0 0 1.32 -4.17zm-10.95 -20.94a2.5 2.5 0 0 1 2 0.79c1.75 2 0.59 7.61 -3.58 5.41 -1.63 -0.89 -1.97 -6.2 1.58 -6.2zm6.87 -0.83c0.28 2 -0.55 3.66 -0.78 5H152a5.11 5.11 0 0 0 -0.7 -3.59 3.52 3.52 0 0 0 -5.09 -0.49 4.6 4.6 0 0 0 -1.34 3.22 2.29 2.29 0 0 0 -0.94 0c0.34 -2.58 -1.06 -4.69 -3.69 -4.37a9.27 9.27 0 0 1 1.11 -5.44 6.36 6.36 0 0 0 3.85 2.21c2.8 0.37 4 -2.17 6.28 -1.64 2.06 0.55 3.65 3.05 3.94 5.1zm-12.62 1.72c1.16 1.45 0.24 4.71 -1 5.32a2.74 2.74 0 0 1 -2.14 0.23c-1.82 -0.68 -2 -2 -2.06 -3.3 -0.03 -2.36 3.19 -4.83 5.2 -2.25zm2.11 19c-4.76 -3.45 -5.52 -6.67 -5.37 -12.76a3.26 3.26 0 0 0 4.26 -2.92 1.68 1.68 0 0 1 1.11 -0.09c0.52 4 5.69 4.83 6.93 0.77 1 0.06 1.85 0.1 2.74 0.1a1.51 1.51 0 0 0 1.41 1.4c1 -0.07 1.11 -1.73 2.33 -2.44 0.61 -0.35 1.08 -0.39 1.38 -0.11 0.66 0.6 0.47 2.51 0.26 3a2.54 2.54 0 0 1 -3.16 1.27 0.25 0.25 0 0 0 -0.19 0.46 3.41 3.41 0 0 0 1.42 0.29c0 0.94 -0.14 4.35 -0.16 5.13a5.54 5.54 0 0 1 -1.12 3.87c-3.07 0.54 -3.89 -0.11 -4.08 0.13a6.69 6.69 0 0 1 -7.76 1.88zm-1.29 2.91c-0.07 1.06 -0.14 1.17 0 1.25a12.41 12.41 0 0 0 2 1.45c0 -1.3 0.07 -3.34 0.11 -3.65 0.06 -0.5 1.1 -0.4 1.06 0.1s0 2.9 0 4a7.21 7.21 0 0 0 1.85 0.71c0.07 -1.18 0.21 -3.15 0.24 -3.49a0.61 0.61 0 1 1 1.21 0.13c0 0.33 -0.12 2.51 -0.09 3.65a10.43 10.43 0 0 0 3.4 -0.13c0.17 -1.22 0.35 -4.13 0.35 -4.13 0 -0.48 1 -0.43 1 0 0 0 -0.13 2.36 -0.32 3.83 1.08 -0.37 1.41 -0.77 1.61 -0.41 0.89 1.56 -6.22 4.66 -12.64 -0.83a0.15 0.15 0 0 0 -0.24 0.06c-2.63 7 -4.76 17.14 -5.74 27.31 -0.5 -1.79 -2.92 -10.23 -3 -10.51a38 38 0 0 1 3 -4.67 1.17 1.17 0 0 0 -0.21 -1.61c-0.81 -0.74 -2.54 -2.67 -2.49 -3s6.47 -7.55 8.9 -10.08zm-38.41 37.05c0.57 -0.44 16.22 -5.08 17 -5.33a3.61 3.61 0 0 0 1.67 -0.83c0.31 -0.32 2.44 -6 5 -12.87 2 -5.47 3.89 -11.48 10.71 -14.9 -3 3.36 -5 5.87 -5.11 6a1.73 1.73 0 0 0 -0.61 1.51 18.77 18.77 0 0 0 2.61 2.78c0.39 0.39 0.57 0.49 0.17 1 0 0 -3 3.89 -3.08 4.72s3.29 12.17 3.5 13.71c-2.37 21.44 -0.63 14.76 -4.06 24.32a10.13 10.13 0 0 1 -4.53 -2.47 1.79 1.79 0 0 1 -0.57 -1.14c0 -0.57 1.9 -22.38 2.3 -24.86a0.22 0.22 0 0 0 -0.44 -0.09c-0.36 2.07 -2.11 15.06 -2.3 17 -4.45 0.45 -22.17 1.28 -22.59 1 -0.15 -0.75 -0.09 -9.04 0.33 -9.55zm0 10.33c1.11 0 16.17 -0.26 22.24 -1 -0.07 1.06 -0.33 5.76 -0.34 5.9 -0.13 2 0.07 2.58 1.72 3.74 -0.61 6 -1.35 20.46 -1.37 23.15a256.4 256.4 0 0 0 -45.74 0.3c-0.63 -3.22 -1.31 -6.84 -1.94 -10.22 1.88 -1.23 3.48 -3.22 2.89 -5.59a19.85 19.85 0 0 1 -0.53 -2.22 1.41 1.41 0 0 0 1 -2.32 8.1 8.1 0 0 1 -1.78 -3.69c0.22 -0.21 0.36 -0.66 0 -1.63 -0.15 -0.39 -2.68 -8.44 -2.84 -8.94l11.82 -0.86c0.32 0 0.41 -0.27 0.44 -0.5l1 0.21c0.72 0.15 0.6 0.09 0.57 0.22 -0.35 1 0.44 1.81 1.38 1.4 0.27 1 1.23 1.2 2.1 0.62a1.18 1.18 0 0 0 1.06 0.66c0.87 0 1.94 -1.12 2.45 -1.76 0.37 0.36 1.6 1.47 2.15 1.47a0.85 0.85 0 0 0 0.7 -0.43c0.42 0 1.34 0.11 1.76 0.16a1.21 1.21 0 0 0 1.23 1.33zm-5.54 -10.94c0.64 0.09 3.59 1 4.43 1.15 -0.11 1.1 -0.13 6.68 -0.13 7.75 -2.11 -0.28 -1.48 0.15 -1.74 -0.63a1.5 1.5 0 0 0 0.67 -1.51c0.43 -1.54 -0.8 -4 -3.24 -5.2 -0.61 -0.08 -1 0.39 -1.29 0.77 -0.44 0.54 -1.32 1.52 -1.73 1a2 2 0 0 1 -0.07 -1.67 2.76 2.76 0 0 1 3.1 -1.66zM41.31 121.3a0.75 0.75 0 0 1 1.47 0.32 182.43 182.43 0 0 0 -3.27 24.74l-1.54 0.55a187.33 187.33 0 0 1 3.34 -25.61z" stroke-width="1"></path></g></svg>