<svg xmlns="http://www.w3.org/2000/svg" viewBox="0 0 200 200" id="Business-Trip-4--Streamline-Milano.svg"><desc>BUSINESS TRIP 4 Streamline Illustration: https://streamlinehq.com</desc><g><g><path d="M172.947 172.416a8.649 8.649 0 0 0 -2.243 -0.271c-1.159 -0.074 -2.292 -0.2 -3.451 -0.209 -4.622 0 -16.268 0.2 -17.439 0.283a4.823 4.823 0 0 0 -2.28 0.518 1.824 1.824 0 0 0 0.85 3.475c2.443 -0.047 -6.741 0.157 22.813 -0.53 3.163 0.48 3.923 -2.502 1.75 -3.266Z" fill="#000000" stroke-width="1"></path><path d="M191.654 177.719a11.014 11.014 0 0 0 -0.9 -2.633c-1.21 -3.447 -3.511 -8.261 -5.672 -12.94a18.253 18.253 0 0 0 -4.614 -2.918c-4.424 -1.9 -15.918 -6.093 -21.368 -10.532a35.857 35.857 0 0 1 -3.919 -3.722 39.964 39.964 0 0 0 -8.5 -7.244 38.68 38.68 0 0 0 -11.185 -3.519c-4.264 -0.7 -8.517 -1.441 -13.047 -2a225.852 225.852 0 0 0 -25.688 -1.765c-9.96 -0.107 -20.863 0.886 -27.832 8.062 -2.344 2.414 -4.085 4.4 -6.016 6.638a15.706 15.706 0 0 1 -3.039 3.158 10.158 10.158 0 0 1 -3.415 1 6.881 6.881 0 0 0 -3.173 1.431 8.775 8.775 0 0 0 -2.054 2.8 28.717 28.717 0 0 0 -2.568 11.989 3.155 3.155 0 0 0 0.471 2.025 14.854 14.854 0 0 0 1.576 1.49c0.248 0.248 1.482 1.542 1.747 1.7a0.438 0.438 0 0 0 0.7 0.341c0.093 5.459 1.594 9.686 3.526 9.905a6.311 6.311 0 0 0 5.093 -0.359 5.112 5.112 0 0 0 1.592 -2.437 14.407 14.407 0 0 0 0.59 -1.9 153.889 153.889 0 0 0 22.692 9.17 0.577 0.577 0 0 0 0.905 -0.4c0.393 -4.843 -0.178 -13.217 3 -16.82a3.047 3.047 0 0 1 3.282 -1.029 5.954 5.954 0 0 1 1.9 1.347 13.9 13.9 0 0 0 -2.54 0.529c-2.834 0.165 -5.038 5.782 -5.038 12.938 0 6.966 2.089 12.47 4.814 12.91l0.024 0.01a11.8 11.8 0 0 0 6.815 -0.563c1.283 -0.624 2.338 -3.179 2.77 -4.545 3.409 0.815 10.7 2.018 14.157 2.517a210.756 210.756 0 0 0 30.391 2.185 209.135 209.135 0 0 0 29.585 -2.071 3.082 3.082 0 0 0 1.442 2.1c0.98 0.515 3.714 0.616 6.03 -0.448a4.376 4.376 0 0 0 1.412 -1.221 5.2 5.2 0 0 0 0.99 -2.39c0.242 -0.058 0.524 -0.082 0.634 -0.34 1.016 -2.383 0.593 -2.647 3.756 -9.754a4.856 4.856 0 0 0 0.674 -2.695Zm-5.346 11.872a210.071 210.071 0 0 1 -69.973 1.462 15.3 15.3 0 0 0 0.535 -2.791c0.261 -1.551 0.573 -3.7 0.575 -3.71 8.537 2.048 17.461 2.319 26.178 2.708a212.83 212.83 0 0 0 29.15 -0.655c2.662 -0.271 5.336 -0.676 7.958 -1.061a64.847 64.847 0 0 0 7.375 -1.464c-0.294 0.74 -0.644 1.593 -1.187 3.279a10.675 10.675 0 0 0 -0.611 2.232Zm-78.658 -0.04c-0.012 -1.481 -0.288 -7.6 -0.352 -8.668a41.583 41.583 0 0 0 -1.25 -8.726 20.1 20.1 0 0 0 -3.933 -6.743c-7.531 -8.712 -7.544 -15.575 -11.532 -25.774a24.4 24.4 0 0 0 -1.619 -3.938 4.52 4.52 0 0 0 -2.959 -1.771 20.647 20.647 0 0 0 -6.78 -0.48 52.331 52.331 0 0 1 15.152 -1.886 226.392 226.392 0 0 1 38.112 3.288 57.736 57.736 0 0 1 11.277 2.782 27.584 27.584 0 0 1 3 1.6c-1.854 -0.1 -3.712 -0.112 -5.523 -0.126 -14.791 -0.112 -38.334 -2.188 -48.78 -2.909 -0.029 -0.033 -0.053 -0.07 -0.083 -0.1 -0.457 -0.508 -1.164 0.552 -0.527 0.851a31.634 31.634 0 0 1 3.479 8.778c0.741 3.06 1.618 6.4 3.68 8.761a0.549 0.549 0 0 0 0.5 0.211c2.059 0.517 11.348 1.522 13.407 1.761 17.806 2.072 40.916 3.055 58.8 0.5l0.013 -0.008c8.719 3.588 10.282 4.021 11.852 5.587 -2.344 2.312 -4.587 4.258 -7.486 5.1a27.389 27.389 0 0 1 -5.7 0.853c-2.694 0.185 -5.451 0.247 -8.049 0.3 -17.8 0.632 -28.145 -2.711 -57.667 -7.038a0.628 0.628 0 0 0 -0.2 1.239c0.15 0.023 -0.221 -0.339 3.186 3.378a12.96 12.96 0 0 0 3.346 3.081c0.453 0.193 -0.117 -0.344 1.741 2.412 0.5 0.74 1.014 1.5 1.49 2.3a15.092 15.092 0 0 1 2.4 5.058 20.68 20.68 0 0 1 -0.477 6.17c-0.684 4.457 -0.747 3.684 -0.9 5.511 -2.404 -0.385 -5.228 -0.855 -7.618 -1.354Zm-7.125 -1.411a42.447 42.447 0 0 0 -0.044 -9.879 22.538 22.538 0 0 0 -2.931 -9.1c-1.4 -2.366 -4.073 -4.237 -6.639 -2.75 -2.532 1.469 -3.4 4.941 -3.867 7.8A54.39 54.39 0 0 0 86.4 184.5c-6.106 -2.31 -9.154 -3.294 -15.259 -6.008 0.293 -3.581 0.039 -7.373 1.5 -14.508a13.5 13.5 0 0 1 0.839 -2.877 10.144 10.144 0 0 1 1.794 -2.4c1.277 -1.5 0.732 -3.328 1.089 -4.889a78.045 78.045 0 0 0 15.468 1.993c0.161 0 0.525 -0.145 0.525 -0.424 0 -0.821 -3.055 -9.465 -3.7 -11.534 -0.751 -2.405 -1.526 -4.892 -3.886 -6.223a7.6 7.6 0 0 0 -3.423 -0.974c-3.992 -0.188 -8.993 2.571 -12.026 5.179a24.655 24.655 0 0 0 -5.779 7.245 0.585 0.585 0 0 0 0.3 0.789 86.106 86.106 0 0 0 11.458 3.715 6.318 6.318 0 0 0 -0.269 1.93 3.869 3.869 0 0 1 -1.138 2.762 9.467 9.467 0 0 0 -2.552 5.356 70.711 70.711 0 0 0 -1.113 7.185 40.9 40.9 0 0 0 -0.329 7.113c-0.551 -0.251 -6.207 -2.977 -7.291 -3.473a29.186 29.186 0 0 0 -1.893 -13.309c-0.522 -1.284 -1.843 -4.246 -4.261 -3.753 -2.32 0.478 -3.366 3.4 -3.784 5.109a20.821 20.821 0 0 0 -0.432 6.523c-0.756 -0.74 -1.215 -1.226 -1.8 -1.751a2.075 2.075 0 0 1 -0.648 -1.86A29.555 29.555 0 0 1 51.829 155a9.454 9.454 0 0 1 1.776 -2.988 5.4 5.4 0 0 1 2.94 -1.47 17.744 17.744 0 0 0 3.056 -0.758 7.745 7.745 0 0 0 2.772 -2.24c1.828 -2.062 3.568 -4.184 5.42 -6.172a23.687 23.687 0 0 1 5.793 -5.088 17.013 17.013 0 0 1 10.133 -1.613 10.043 10.043 0 0 1 3.468 0.859c1.032 0.556 1.478 1.847 1.908 3.095 5.15 14.928 5.688 19.237 10.687 25.7 1.681 2.179 3.677 4.273 4.691 6.812a32.259 32.259 0 0 1 1.56 8.811c0.1 2.082 0.243 3.683 0.279 6.217 0.015 1.051 0.049 2.118 0.152 3.133 -2.005 -0.431 -3.908 -0.847 -5.939 -1.158Zm-43.787 -11.517c-1.292 0 -2.064 -3.086 -2.064 -6.07s0.772 -6.058 2.064 -6.058 2.065 3.08 2.065 6.058 -0.772 6.07 -2.065 6.07Zm15.939 -24.9a78.737 78.737 0 0 1 -7.848 -2.67 23.393 23.393 0 0 1 13.336 -10.877 49.071 49.071 0 0 0 -5.488 13.549Zm6.842 -13.846a8.89 8.89 0 0 1 2.039 -0.095 34.246 34.246 0 0 0 -3.883 6.977 40.49 40.49 0 0 0 -2.339 7.675c-0.484 -0.12 -0.967 -0.242 -1.449 -0.37a60.161 60.161 0 0 1 5.632 -14.185Zm-3 14.836c0.336 -1.293 0.515 -2.453 0.813 -3.5a42.746 42.746 0 0 1 5.277 -11.285c3.19 0.726 4.084 3.152 5.077 6.249 0.038 0.116 2.49 7.66 3.574 10.5a78.547 78.547 0 0 1 -14.737 -1.962Zm66.861 4.475c-17.808 -0.163 -42.611 -3.179 -43.575 -3.363a29.563 29.563 0 0 1 -3.335 -8.425c-0.788 -2.842 -1.583 -5.879 -3.289 -8.294 14.522 1.517 28.914 2.55 42.792 3.05 2.01 0.074 9.009 0.269 9.964 0.269 0.84 0 1.68 -0.022 2.5 -0.084a27.5 27.5 0 0 1 4.468 4 46.223 46.223 0 0 0 7.9 7.052 76.368 76.368 0 0 0 8.44 4.485 197.165 197.165 0 0 1 -25.861 1.312Zm-34.554 8.947 -2.752 -2.924c4.534 0.68 9.1 1.429 13.584 2.175a2.43 2.43 0 0 1 -0.662 4.443 2.689 2.689 0 0 0 -0.371 0.116c-1.884 -0.244 -3.8 -0.51 -5.629 -0.911a8.057 8.057 0 0 1 -4.166 -2.897Zm15.7 0.062c0.981 1.844 0.349 3.879 -1.236 4.332 -0.151 0.042 0.254 0.058 -2.734 -0.33a3.408 3.408 0 0 0 0.69 -4.548Zm56 3.527a5.12 5.12 0 0 0 1.949 2.265 22.956 22.956 0 0 0 -7.679 6.284 1.569 1.569 0 0 1 -1.244 0.2c-9.449 -0.771 -15.128 -0.446 -25.1 0.264a4.568 4.568 0 0 1 -2.444 -0.206c-2.051 -1 -2.442 -2.076 -7.1 -4a66.91 66.91 0 0 0 -14.033 -3.745 4.16 4.16 0 0 0 0.756 -4.4c17.825 2.962 25.385 4.382 43.677 3.426a36.331 36.331 0 0 0 6.23 -0.735 14 14 0 0 0 4.7 -2.085 4.451 4.451 0 0 0 0.291 2.734Zm3.011 -5.156c-0.968 1.742 -0.755 4.245 1.017 5.378a2.34 2.34 0 0 0 1.141 0.459c-0.658 0.294 -1.319 0.61 -1.978 0.941a9.166 9.166 0 0 1 -1.155 -0.7 3.745 3.745 0 0 1 -1.33 -3.045 5.8 5.8 0 0 1 0.386 -1.636c2.382 -1.893 2.582 -2.58 1.922 -1.395Zm1.635 4.506a3.221 3.221 0 0 1 -0.916 -4.158 3.937 3.937 0 0 1 0.34 -0.737l2.475 5.362a5.809 5.809 0 0 1 -1.896 -0.465Zm5.258 9.091a47.148 47.148 0 0 1 -13.611 3.577c-5.293 0.677 -10.535 0.914 -14.511 1.045a250.627 250.627 0 0 1 -29.766 -1.01 57.453 57.453 0 0 1 -14.965 -3.169 15.578 15.578 0 0 0 -2.388 -4.922 32.953 32.953 0 0 0 -2.345 -3.629c3.67 0.981 12.668 1.153 23.651 4.7a32.983 32.983 0 0 1 7.674 3.887 8 8 0 0 0 1.671 1.032c1.465 0.5 1.945 0.194 7.312 -0.118a131.7 131.7 0 0 1 20.316 0.079 2.526 2.526 0 0 0 2.136 -0.474c0.59 -0.524 1 -1.182 1.511 -1.707a21.387 21.387 0 0 1 3.514 -2.921 42.389 42.389 0 0 1 7.379 -3.843c1.405 4.679 1.9 4.813 2.457 6.9a4.9 4.9 0 0 1 -0.032 0.575Zm-1.834 4.684c-7.482 1.166 -18.681 5.251 -56.817 2.749a113.055 113.055 0 0 1 -14.2 -1.878 20.234 20.234 0 0 0 0.145 -4.109 43.839 43.839 0 0 0 12.621 2.974 239.676 239.676 0 0 0 25.17 1.488 193.5 193.5 0 0 0 20.442 -1.081 49.377 49.377 0 0 0 14.107 -3.421 26.12 26.12 0 0 0 -1.464 3.28ZM53.384 166.82a16.555 16.555 0 0 1 0.456 -4.269c0.387 -1.953 2 -4.8 3.8 -3.9a3.743 3.743 0 0 1 1.123 1.132c-3.873 -0.207 -4.863 3.14 -5.379 7.037Zm128.742 24.837a3.62 3.62 0 0 1 -2.313 2.1 2.076 2.076 0 0 1 -2.1 -1.44c5.43 -0.892 4.587 -1.003 4.413 -0.66Zm-119.7 -13.794a4.437 4.437 0 0 1 -1.185 1.919 5.1 5.1 0 0 1 -3.062 0.527c3.123 -3.377 3.119 -16.182 -0.014 -19.527a4.158 4.158 0 0 1 1.206 0.084c1.77 3.517 2.141 6.375 2.315 10.242 0.119 2.625 -0.031 3.256 -0.1 3.4a0.467 0.467 0 0 0 0.2 0.63c0.418 0.231 0.845 0.447 1.267 0.673a13.754 13.754 0 0 1 -0.63 2.052Zm28.183 4.167c0 -3.962 1.156 -7.185 2.576 -7.185 1.4 0 2.588 3.29 2.588 7.185 0 4.234 -1.364 7.185 -2.588 7.185s-2.579 -2.951 -2.579 -7.185Zm8.717 11.479a9.379 9.379 0 0 1 -4.182 0.676c4.621 -4.148 4.511 -20.727 -0.234 -24.492a11.169 11.169 0 0 1 1.565 -0.178 21.989 21.989 0 0 1 2.968 8.621 68.372 68.372 0 0 1 0.364 10 0.531 0.531 0 0 0 0.073 1.007c0.572 0.162 1.149 0.312 1.727 0.459a7.792 7.792 0 0 1 -2.284 3.907Z" fill="#000000" stroke-width="1"></path><path d="M39.638 150.9C7.908 133.7 8.946 132.5 8.38 133.5a0.351 0.351 0 0 0 0.117 0.47c11.524 7.278 21.38 12.73 30.742 17.659a0.415 0.415 0 0 0 0.6 -0.475 0.48 0.48 0 0 0 -0.201 -0.254Z" fill="#000000" stroke-width="1"></path><path d="M18.411 133.642a0.351 0.351 0 0 0 -0.451 0.165l-0.013 0.024a0.35 0.35 0 0 0 0.168 0.475c6.013 2.736 25.079 11.693 28.64 13.347a0.408 0.408 0 0 0 0.368 -0.728c-8.084 -4.111 -16.939 -8.207 -28.712 -13.283Z" fill="#000000" stroke-width="1"></path><path d="M23.14 116.1a190.643 190.643 0 0 0 45.342 18.417c0.506 0.128 0.72 -0.716 0.178 -0.862a195.541 195.541 0 0 1 -45.343 -18.371 0.536 0.536 0 0 0 -0.336 0 0.425 0.425 0 0 0 0.159 0.816Z" fill="#000000" stroke-width="1"></path></g><g><path d="M127.6 18.819c-0.3 0.145 -0.649 0.292 -0.6 0.616 0.014 0.1 0.161 0.408 0.425 0.409 0.014 0 0.028 -0.005 0.042 -0.005a6.4 6.4 0 0 0 0.512 1.089 4.274 4.274 0 0 0 1.034 1.354 1.355 1.355 0 0 0 1.676 0.02 9.43 9.43 0 0 0 1.544 -2.082c0.18 -0.277 0.01 -1.235 -0.786 -0.753a1.641 1.641 0 0 1 -0.464 0 4.994 4.994 0 0 1 -1.129 -0.12 8.415 8.415 0 0 1 -1.137 -0.278c-0.003 -0.406 -0.369 -0.682 -1.117 -0.25Zm1.085 1.325a8.46 8.46 0 0 0 2.265 0.3 5.906 5.906 0 0 1 -0.817 1.007 0.523 0.523 0 0 1 -0.3 0.133 0.577 0.577 0 0 1 -0.341 -0.222 5.391 5.391 0 0 1 -0.807 -1.218Z" fill="#000000" stroke-width="1"></path><path d="M125.469 15.612c0.2 -0.415 0.74 -1.216 1.239 -1.16a0.505 0.505 0 0 0 0.246 -0.945c-0.641 -0.33 -1.252 0.212 -1.639 0.555a2.547 2.547 0 0 0 -0.708 1.346 0.458 0.458 0 0 0 0.448 0.465 0.512 0.512 0 0 0 0.414 -0.261Z" fill="#000000" stroke-width="1"></path><path d="M126.724 15.277a1.587 1.587 0 0 0 -0.574 0.524c-0.342 0.908 0.274 1.87 0.907 1.87a0.693 0.693 0 0 0 0.641 -0.419 1.584 1.584 0 0 0 -0.213 -1.264 3.255 3.255 0 0 0 1.009 -0.848c0.216 -0.253 0.306 -0.619 0.058 -0.823a0.469 0.469 0 0 0 -0.512 -0.031c-0.522 0.332 -0.416 0.488 -1.316 0.991Z" fill="#000000" stroke-width="1"></path><path d="M114.812 64.229c-2.311 1.6 -6.392 2.522 -8.938 0.779a0.412 0.412 0 0 0 -0.639 0.468c-0.022 0.037 -1.794 2.106 -2.286 2.785 -0.567 0.833 -0.017 1.464 0.346 1.881a11.866 11.866 0 0 0 4.525 3.227 2.179 2.179 0 0 0 2.444 -0.176 12.232 12.232 0 0 0 1.836 -2.324 38.046 38.046 0 0 0 2.637 -4.208 6.357 6.357 0 0 0 0.692 -1.474c0.345 -1.098 -0.32 -1.164 -0.617 -0.958Zm-4.423 7.229c-0.617 0.817 -1.11 1.379 -1.871 1.118a11.245 11.245 0 0 1 -4.781 -3.359c-0.26 -0.336 -0.059 -0.452 0.722 -1.4 1.912 1.669 6.065 1.022 8.39 0.026a37.628 37.628 0 0 1 -2.46 3.615Zm3.344 -5.207c-2.194 1.6 -5.868 2.367 -8.665 0.818 0.246 -0.3 0.481 -0.611 0.7 -0.929 1.761 1.45 6.037 0.738 8.145 -0.241 -0.066 0.116 -0.113 0.235 -0.18 0.352Z" fill="#000000" stroke-width="1"></path><path d="M183.577 14.331a4.143 4.143 0 0 0 0.343 -0.378c1.447 -1.849 -0.236 -2.985 -1.494 -2.316 -0.429 0.228 -0.859 0.468 -1.244 0.722 0 0 -1.718 0.949 -1.912 1.063a0.551 0.551 0 0 0 -0.291 -0.014c-29.573 7.027 -38.746 8.967 -44.84 11.15l-0.014 0a4.789 4.789 0 0 1 -2.4 -0.345c2.6 -1.5 2.97 -5.086 2.083 -7.891 -0.061 -0.19 -0.137 -0.368 -0.2 -0.555 0.222 -0.68 0.94 -1.43 1.274 -2.145a3.511 3.511 0 0 0 -0.532 -3.774 8 8 0 0 0 -2.237 -1.548c-1.224 -0.722 -2.216 -1.773 -3.453 -2.465a8.853 8.853 0 0 0 -4.939 -1.032 10.66 10.66 0 0 0 -9.154 5.249 6.807 6.807 0 0 0 -0.858 3.732c0.036 1.072 0.775 2.033 0.776 3.045a2.051 2.051 0 0 1 -1.7 1.766 24.73 24.73 0 0 1 -2.7 0.258 2.609 2.609 0 0 0 -2.2 1.5c-0.33 1 0.254 1.961 -0.146 2.99 -0.136 0.321 -0.541 0.559 -0.678 0.474 -0.17 -0.106 -0.181 -0.348 -0.241 -0.564a2.373 2.373 0 0 0 -2.017 -1.479 5.2 5.2 0 0 0 -2.2 0.176 13.693 13.693 0 0 1 -1.372 0.441 1.574 1.574 0 0 1 -1.331 -0.271 1.466 1.466 0 0 1 -0.378 -1.17 11.1 11.1 0 0 1 1 -2.605c0.585 -1.506 0.175 -3.822 -1.36 -4.377a3.913 3.913 0 0 0 -2.042 -0.126c-3.159 0.586 -5.4 3.112 -6.713 5.193a11.785 11.785 0 0 0 -1.859 4.724 4 4 0 0 0 0.212 2.03 2 2 0 0 0 1.571 1.277 4.975 4.975 0 0 0 1.773 -0.425 1.384 1.384 0 0 1 1.566 0.353 1.068 1.068 0 0 1 0.14 0.6 2.4 2.4 0 0 1 -2.145 1.965 0.068 0.068 0 0 0 -0.024 0.128c1.908 0.95 3.95 -0.357 4.761 -2.259a3.117 3.117 0 0 0 0.289 -2.172c-0.312 -1.011 -1.216 -1.555 -1.605 -2.47a2.3 2.3 0 0 1 0.478 -2.466 2 2 0 0 1 2.258 -0.449c0.422 0.271 0.513 0.8 0.256 1.487 -0.859 2.29 -1.74 4.4 0.2 6.088a2.884 2.884 0 0 0 1.427 0.708 15.5 15.5 0 0 0 3.014 -0.308 1.082 1.082 0 0 1 0.745 0.2 0.833 0.833 0 0 1 0.2 0.74 3.081 3.081 0 0 1 -0.3 0.785 3.23 3.23 0 0 0 0.033 3.627c-8.658 3.556 -10.845 4.1 -18.851 7.11a39.146 39.146 0 0 1 -8.874 2.319 0.538 0.538 0 0 0 -0.257 0.959 5.474 5.474 0 0 0 -1.2 -0.082c-0.124 -0.826 -1.2 -1.12 -1.789 -1.085a9.08 9.08 0 0 0 -1.46 -0.089c-0.749 -2.81 -1.393 -3.3 -3.313 -4.641a5.074 5.074 0 0 0 -1.423 -0.889 9.3 9.3 0 0 0 -4.149 -0.682 42.6 42.6 0 0 0 -6.3 0.272 17.792 17.792 0 0 0 -5.3 1.374c-1.7 0.754 -2.1 2.57 -2.283 4.2a44.7 44.7 0 0 0 -0.162 6.01c0.093 4.538 -0.155 7.8 1.062 12.645a6.029 6.029 0 0 0 0.958 2.671 2.172 2.172 0 0 0 1.675 0.553 0.551 0.551 0 0 0 0.218 0.1 39.439 39.439 0 0 0 18.693 -0.913 1.866 1.866 0 0 0 1.514 -1.826c0.1 -1.02 0.058 -2.072 0.075 -3.165a19.107 19.107 0 0 0 -0.136 -2.629c0.484 -0.117 1.434 -0.373 1.911 -0.544a1.506 1.506 0 0 0 0.824 -0.585 4.579 4.579 0 0 0 0.187 -2.359c0.275 0 0.227 -0.014 0.307 -0.036a2.4 2.4 0 0 0 1.4 1.487c12.452 -1.331 23.626 -2.875 34.762 -8.429a28.057 28.057 0 0 1 -1.058 7.122 24.828 24.828 0 0 1 -3.481 5.979 63.137 63.137 0 0 1 -4.031 5.428 27.171 27.171 0 0 1 -5.612 5.08 0.575 0.575 0 0 0 -0.182 0.78 23.426 23.426 0 0 0 9.8 8.58c-0.157 0.833 -0.29 1.676 -0.437 2.522 -7.654 -2.219 -13.779 -4.166 -21.421 -6.385 -0.069 0.17 -0.155 0.332 -0.228 0.5l-6.119 -4.172a0.211 0.211 0 0 0 -0.3 0.073 14.47 14.47 0 0 0 -1.134 2.1 0.211 0.211 0 0 0 0.147 0.258 6.481 6.481 0 0 1 1.623 0.529 28.36 28.36 0 0 0 -5.11 4.82 0.21 0.21 0 0 0 0.21 0.345 28.306 28.306 0 0 0 4.622 -1.553 5.667 5.667 0 0 1 2.465 -0.813 4.08 4.08 0 0 1 1.837 1.011 70.381 70.381 0 0 0 7.653 8.294c5.579 4.926 10.981 9.231 18.376 10.267 0.868 0.255 1.215 -0.075 2.3 -0.259 2.348 -1.527 5.1 -2.059 9.894 -11.437 3.836 -7.423 4.53 -11.435 5.351 -13.35a0.43 0.43 0 0 1 0.8 0.239 24.324 24.324 0 0 1 -1 3.608 64.494 64.494 0 0 1 -7.531 15.8 22.9 22.9 0 0 1 -2.694 3.457l-2.847 8.056c-2.479 7.93 -4.143 9.693 -6.3 14.7a87.341 87.341 0 0 1 -5.188 10.562q0.693 0.318 1.411 0.564l-2.964 4.97a0.222 0.222 0 0 0 0.071 0.306 12 12 0 0 0 2.234 1.013 0.246 0.246 0 0 0 0.259 -0.21 6.028 6.028 0 0 1 0.421 -1.6 8.208 8.208 0 0 0 2.672 2.455 7.415 7.415 0 0 0 1.935 0.554 3.058 3.058 0 0 0 1.491 0 0.21 0.21 0 0 0 0.1 -0.345 11.207 11.207 0 0 1 -2.921 -2.945 4.04 4.04 0 0 1 -0.641 -2.022 3.8 3.8 0 0 1 0.476 -1.433c0.5 0.066 1 0.11 1.508 0.127 0.321 0.012 1.467 -1.689 1.713 -1.96 2.8 -3.093 5.546 -6.322 8.2 -9.527a106.993 106.993 0 0 0 18.44 -34.806c0.551 -0.194 1.315 -0.467 1.84 -0.664 1.91 -0.715 2.482 -2.522 2.769 -4.027 1.293 -8.139 1.584 -23.919 0.2 -33.236a7.864 7.864 0 0 0 0.9 -1.33c0.978 -1.965 1.043 -4.425 -0.611 -7.383 11.26 -2.659 27.825 -8.332 38.512 -13.892a0.533 0.533 0 0 0 0.241 -0.235c0.079 0 0.165 0.019 0.242 0.019a3.825 3.825 0 0 0 2.967 -1.152c1.83 -2.043 1.408 -5.141 0.221 -5.995ZM79.142 43.076c0.683 0.189 1.192 1.115 1.556 1.906a7.632 7.632 0 0 1 0.581 1.961l-0.169 0.034a1.536 1.536 0 0 0 0.112 3.049 8.841 8.841 0 0 1 -0.67 1.824c-0.762 0.087 -1.525 0.175 -2.28 0.258a4.858 4.858 0 0 0 0.982 -3.74 9.574 9.574 0 0 0 -2.434 -4.9c0.748 -0.11 1.488 -0.257 2.224 -0.421a0.327 0.327 0 0 0 0.098 0.029Zm4.945 4.539a0.538 0.538 0 0 0 -0.282 1 8.194 8.194 0 0 1 -2.172 0.428c-1.078 0.091 -1.011 -0.927 -0.311 -1.087 0.145 -0.028 2.042 -0.409 3.051 -0.7 0.868 -0.249 1.035 0.528 0.453 0.867 -0.07 0.041 -0.141 0.079 -0.212 0.118a0.529 0.529 0 0 0 -0.527 -0.626Zm-7.9 3.885a3.137 3.137 0 0 0 0.955 -0.911 3 3 0 0 0 0.464 -0.76 3.618 3.618 0 0 1 0.6 -0.177 4.013 4.013 0 0 1 -1.581 2.557 0.826 0.826 0 0 1 -0.434 -0.709Zm-1.329 -1.94a2.347 2.347 0 0 0 -1.861 0.1 1.276 1.276 0 0 0 -0.851 1.166 1.346 1.346 0 0 1 -0.257 -2.31c0.3 -0.358 0.072 -0.972 -0.619 -0.981 0.334 -1.093 1.108 -1.01 0.589 -2.043 0.05 -0.368 2.534 -1.756 4.91 -0.346l0.013 0a7.8 7.8 0 0 1 1.467 3.466c-0.109 0.024 -0.217 0.051 -0.322 0.081a3.8 3.8 0 0 0 -0.987 0.3 1.253 1.253 0 0 0 -0.306 0.527 2.71 2.71 0 0 1 -0.421 0.531 2.281 2.281 0 0 1 -1.021 0.679c-0.133 0 -0.013 0.044 0.046 -0.5a0.764 0.764 0 0 0 -0.376 -0.67Zm-0.738 3.468a1.68 1.68 0 0 1 -0.079 0.727c-0.178 0.315 -2.923 0.779 -3.376 0.965a1.019 1.019 0 0 1 -0.344 -1.075 5.514 5.514 0 0 0 2.395 -0.511 1.006 1.006 0 0 0 0.586 -0.539c0.111 -0.385 0.018 -0.239 -0.047 -1.7 -0.009 -0.218 0.479 -0.338 0.781 -0.322a0.763 0.763 0 0 0 0.048 0.852 12.816 12.816 0 0 1 0.04 1.603Zm-6.558 -0.728c0 3.212 -0.1 4.622 -0.185 6.163a6.258 6.258 0 0 1 -0.12 1.426c-0.034 0.265 -0.037 0.287 -0.237 0.375a17.521 17.521 0 0 1 -2.051 0.558A68.842 68.842 0 0 1 52.188 62.8a3.089 3.089 0 0 1 -0.837 0 0.971 0.971 0 0 1 -0.765 -0.816c-1.441 -4.819 -1.46 -8.536 -1.458 -13.565a50.139 50.139 0 0 1 0.151 -6.315c0.149 -1.078 0.353 -2.554 1.284 -3.115 4.01 -2.126 12.832 -2.321 15.573 -1.1A92.141 92.141 0 0 1 67.562 52.3ZM56.68 63.435a57.445 57.445 0 0 0 11.226 -2.387 0.519 0.519 0 0 0 0.355 -0.474 80.49 80.49 0 0 0 -0.579 -18.88 28.272 28.272 0 0 0 -0.609 -3.478c1.767 1.384 2.114 1.513 2.73 3.325 0.1 0.3 0.222 0.772 0.236 0.857a3.407 3.407 0 0 0 -0.723 0.116 0.485 0.485 0 0 0 -0.36 0.654c-0.651 0.98 0.363 2.4 1.087 2.1a8.063 8.063 0 0 1 0.816 -0.048 1 1 0 0 0 0.059 0.781 2.524 2.524 0 0 0 -0.736 2.045 0.824 0.824 0 0 0 0.373 0.406 2.4 2.4 0 0 0 0.28 2.649c0.14 0.168 0.12 -0.193 0.111 1.6l-0.469 0.145a0.331 0.331 0 0 0 -0.309 0 1.489 1.489 0 0 0 -0.708 1.606c0.156 0.752 0.87 1.279 1.325 1.2a2.149 2.149 0 0 0 0.516 -0.034v4.743c0 1.744 -0.315 1.59 -2.246 2.038a41.494 41.494 0 0 1 -12.375 1.036Zm16.157 -19.959a2.2 2.2 0 0 1 0.4 0.162 8.164 8.164 0 0 0 -1.629 0.626 10.344 10.344 0 0 0 -1.8 0.091c-0.319 -0.275 -0.273 -0.557 -0.031 -0.892a11.215 11.215 0 0 1 3.06 0.013Zm67.294 31.872c-0.232 2.306 -0.447 4.484 -2.343 5.2 -0.315 0.119 -0.717 0.265 -1.106 0.405 2.932 -10.138 3.069 -15.126 2.607 -20.543a30.014 30.014 0 0 1 -0.411 -3.395 1.463 1.463 0 0 0 0.594 -1.5 25.512 25.512 0 0 1 -0.44 -4.455c0.013 -0.115 0.715 -4.806 1.274 -5.671a138.953 138.953 0 0 1 0.636 14.08 146.436 146.436 0 0 1 -0.811 15.879Zm-6.019 -49.837a18.634 18.634 0 0 1 1.453 2.349c-0.583 -0.578 -1.872 -1.768 -2.651 -2.389 0.739 0.093 0.686 -0.009 1.198 0.04Zm4.832 19.764a26.19 26.19 0 0 0 -1.124 7.55 21.418 21.418 0 0 1 0.49 2.858c-0.087 0.319 -0.332 0.477 -0.777 0.741a12.914 12.914 0 0 1 -3.6 1.451 25.271 25.271 0 0 1 -9.227 0.382c1.923 -5.675 2.325 -12.444 1.543 -19.809a28.61 28.61 0 0 0 -2.758 -9.731c0.076 -0.066 0.161 -0.116 0.234 -0.187 0.666 -0.9 0.212 -1.094 0.639 -0.439a0.491 0.491 0 0 0 0.663 0.222 0.618 0.618 0 0 0 0.243 -0.746 17.19 17.19 0 0 0 -1.048 -1.848c1.644 0.389 4.991 0.619 6.428 0.072 0.027 0.065 0.053 0.125 0.08 0.192a0.584 0.584 0 1 0 1.162 -0.1c0.733 0.655 1.326 1.1 1.708 1.458a16.947 16.947 0 0 1 3.874 4.63 0.448 0.448 0 0 0 0.228 0.18c1.5 1.911 3.113 3.835 3.686 6.171a5.815 5.815 0 0 1 -0.274 3.861c-0.494 1.047 -1.6 1.889 -2.17 3.092Zm-0.617 -13.78a11.032 11.032 0 0 0 -0.561 -1.01 20.668 20.668 0 0 0 -2.653 -5.308c10.872 -3.081 21.491 -5.414 38.93 -9.488a7.793 7.793 0 0 0 -0.723 4.062 4.009 4.009 0 0 0 1.647 3.092C160.113 29.658 150.05 31.99 140.8 34.59a26.493 26.493 0 0 0 -2.473 -3.09Zm37.96 -9.273c-0.982 -0.316 -1.917 -0.849 -1.972 -2.966a6.98 6.98 0 0 1 0.991 -3.862l2.071 -0.485a5.692 5.692 0 0 0 -0.994 3.523 3.772 3.772 0 0 0 1.86 2.87c-0.643 0.314 -1.304 0.614 -1.956 0.92Zm2.2 -2.117c-1.891 -1.479 -0.95 -4.289 0.954 -5.707a36.1 36.1 0 0 1 3.652 -1.891c0.455 -0.1 0.362 0.134 0.271 0.337a3.456 3.456 0 0 1 -1.887 1.515 1.643 1.643 0 0 0 -1.594 0.375 0.5 0.5 0 0 0 -0.165 0.392 0.579 0.579 0 0 0 0.16 0.3 0.494 0.494 0 0 0 0.409 0.084c0.633 -0.215 0.7 -0.261 0.869 -0.179a0.981 0.981 0 0 1 0.529 0.778 0.7 0.7 0 0 1 -0.371 0.758 0.653 0.653 0 0 1 -0.07 -0.313v-0.023a0.562 0.562 0 0 0 -0.561 -0.556 0.556 0.556 0 0 0 -0.557 0.528 1.409 1.409 0 0 1 -1.087 1.237 1.814 1.814 0 0 0 -0.319 0.1 0.535 0.535 0 0 0 0.032 1.041 1.649 1.649 0 0 0 1.191 -0.27l0 0.1a1.33 1.33 0 0 0 0.618 1.025 2.626 2.626 0 0 0 1.546 0.084 0.434 0.434 0 0 1 0.093 0.056 2.517 2.517 0 0 1 -0.815 0.384 6.686 6.686 0 0 1 -2.8 -0.164 0.481 0.481 0 0 0 -0.096 0.009Zm4.405 -0.948a1.138 1.138 0 0 0 -0.744 -0.377 2.051 2.051 0 0 0 -0.474 0.012c-0.915 0.094 -0.763 -0.161 -0.763 -0.894a1.133 1.133 0 0 0 0.188 0.068c1.362 0.164 2.137 -1.577 1.322 -2.832 0.114 -0.054 0.218 -0.116 0.322 -0.176 0.666 0.285 0.765 1.354 0.772 1.848a4.058 4.058 0 0 1 -0.621 2.351Zm-60.153 10.115a28.891 28.891 0 0 1 2.423 8.716 51.191 51.191 0 0 1 -0.206 15.186c-2.061 -13.253 -2.007 -12.909 -1.82 -13.187l1.491 -0.389a0.533 0.533 0 0 0 0.377 -0.652c-0.026 -0.1 -2.436 -5.395 -4.194 -8.656 0.501 -0.218 1.828 -0.958 1.929 -1.018Zm-2.832 1.355c0.5 1.068 3.068 6.372 3.805 8a6.274 6.274 0 0 0 -1.454 0.511 1.16 1.16 0 0 0 -0.316 1.2s1.4 9.565 1.543 10.476a39.4 39.4 0 0 0 0.813 5.23c-2.921 10.6 -8.041 12.24 -11.389 22.653a22.57 22.57 0 0 1 -14.483 -9.485 38.1 38.1 0 0 0 8.763 -9.587 38.36 38.36 0 0 0 3.846 -6.129 22.518 22.518 0 0 0 1.385 -6.489c3.291 0.351 5.577 -4.074 6.581 -7.2a16.167 16.167 0 0 0 0.4 -9.082 2.148 2.148 0 0 0 0.506 -0.098Zm-1.046 -11.6a0.831 0.831 0 0 1 0.987 -0.637c0.579 0.144 1.207 1.062 1.615 1.578 0.453 0.576 1.422 1.148 1.563 1.849a5.453 5.453 0 0 1 0 0.767 1.867 1.867 0 0 0 2.252 1.6 0.068 0.068 0 0 0 0 -0.133c-1.008 -0.16 -1.8 -1.2 -1.194 -2.019 0.188 -0.2 0.385 -0.22 0.554 -0.585 0.178 -0.382 -0.088 -0.787 -0.3 -1.113 -1.267 -1.959 -1.361 -5.3 0.878 -6.881a12.274 12.274 0 0 0 2.1 -1.6 2.485 2.485 0 0 0 0.654 -2.411c0.977 0.308 2.076 1.8 2.655 2.645 -1.6 0.4 -0.538 2.2 0.116 1a0.26 0.26 0 0 1 0.14 -0.067 0.506 0.506 0 0 1 0.41 0.124c0.032 0.056 0.067 0.11 0.1 0.167 -0.381 0.26 -0.926 0.542 -1.028 0.943a1.807 1.807 0 0 0 0.363 1.375c0.807 0.844 1.515 -0.623 0.945 -1.306 0.064 -0.033 0.124 -0.065 0.182 -0.1a15.156 15.156 0 0 1 0.994 2.725c-0.021 0 -0.036 -0.011 -0.06 -0.013a2.986 2.986 0 0 1 -2.5 -1.333 1.424 1.424 0 0 1 -0.346 -0.93 0.35 0.35 0 0 0 -0.084 -0.227 0.651 0.651 0 0 0 -0.319 -0.169 0.348 0.348 0 0 0 -0.383 0.255 1.731 1.731 0 0 0 0.266 1.5 3.833 3.833 0 0 0 2.389 1.826l-0.1 0.129a0.533 0.533 0 0 0 0.408 0.861 0.494 0.494 0 0 0 0.389 -0.2l0.537 -0.684c0.32 2.429 -0.292 4.806 -2.65 5.506a0.591 0.591 0 0 0 -0.383 0.756s0.265 0.627 0.3 0.7c-1.415 0.433 -4.846 0.04 -6.857 -0.425a15.365 15.365 0 0 1 -1.336 -2.679c0.2 1.794 -1.019 2.954 -2.209 2.569a1.737 1.737 0 0 1 -0.863 -2.39 0.5 0.5 0 1 1 0.937 0.348c-0.416 1.144 0.478 1.41 0.883 0.8a1.893 1.893 0 0 0 0.2 -1.464 2.523 2.523 0 0 1 -1.43 -0.782 2.465 2.465 0 0 1 -0.775 -1.878Zm-2.022 11.021a3.266 3.266 0 0 0 1.692 0.7 18.241 18.241 0 0 1 -0.163 7.959c-0.734 2.689 -3.091 7.569 -5.874 7.275 0.042 -0.533 0.078 -1.068 0.108 -1.6 1.16 -0.606 2.31 -1.238 3.442 -1.919a0.546 0.546 0 0 0 -0.607 -0.9c-10.9 6.347 -21.152 8.685 -33.707 10.158a8.047 8.047 0 0 0 0.53 -1.735 7.314 7.314 0 0 0 3.07 -0.994A1.481 1.481 0 0 0 84.1 46.3c-0.5 0.144 -1.259 0.316 -1.884 0.451a7.96 7.96 0 0 0 -1.912 -4c2.063 -0.551 9 -3.072 10.992 -3.8 4.156 -1.533 8.408 -3.2 12.927 -5.051a7 7 0 0 0 2.961 0.894 5.638 5.638 0 0 0 4 -0.712c2.252 -1.38 1.917 -3.787 3.471 -4.732a1.331 1.331 0 0 1 1.3 -0.127 5.166 5.166 0 0 1 0.884 0.822Z" fill="#000000" stroke-width="1"></path><path d="M148.188 63.345a0.378 0.378 0 0 0 0.177 -0.039c7.7 -4.137 13.957 -11.526 19.134 -22.595 1.2 -2.661 2.457 -5.5 3.509 -8.354a0.444 0.444 0 0 0 -0.339 -0.539 0.4 0.4 0 0 0 -0.42 0.3c-3.475 9.364 -8.061 18.859 -15.742 25.748a33.462 33.462 0 0 1 -6.54 4.724 0.4 0.4 0 0 0 0.221 0.755Z" fill="#000000" stroke-width="1"></path><path d="M178.321 25.536a1.628 1.628 0 0 0 -0.222 -0.047 0.35 0.35 0 0 0 -0.35 0.345 28.8 28.8 0 0 1 -2.793 11.992 85.1 85.1 0 0 1 -18.718 26.806c-6.947 6.712 -9.6 7.809 -9.742 8.26a0.439 0.439 0 0 0 0.413 0.574 0.423 0.423 0 0 0 0.235 -0.063 87.113 87.113 0 0 0 28.274 -34.345 32.126 32.126 0 0 0 3.167 -13.152 0.428 0.428 0 0 0 -0.264 -0.37Z" fill="#000000" stroke-width="1"></path></g></g></svg>