<svg xmlns="http://www.w3.org/2000/svg" fill="none" viewBox="0 0 400 400" id="Car-Getting-Gas--Streamline-Milano.svg" height="400" width="400"><g id="Car-Getting-Gas--Streamline-Milano.svg"><g id="cloud"><path id="vector" fill="#153640" d="M110.71 163.016c-3.326 -0.04 -9.782 0.158 -9.728 -3.292 0.018 -1.09 0.738 -2.194 1.75 -2.684 5.428 -2.618 8.23 -3.092 11.174 -3.608 -0.33 -2.156 -0.912 -4.798 0.558 -6.512 0.808 -0.94 2.138 -1.378 3.85 -1.398 0.716 0.004 1.386 0.17 4.376 0.77 0.642 -4.492 2.428 -10.06 6.666 -11.568 6.478 -2.298 11.97 1.376 13.848 6.004 1.444 3.566 1.258 6.468 1.384 8.114 4.538 -0.794 10.782 -2.52 13.93 0.896 2.16 2.344 1.314 4.364 0.502 5.898 4.364 0.92 11.336 1.374 12.254 3.858 0.138 0.372 0.264 1.12 -0.432 1.946 -1.46 1.736 -4.654 2.004 -14.884 2.008 -18.4 0.008 -44.63 -0.498 -45.25 -0.43l0.002 -0.002Zm0.008 -2.008c48.586 0.276 57.114 0.906 58.596 -0.858 -0.636 -1.206 -10.222 -2.214 -12.118 -2.942 -0.548 -0.21 -0.798 -0.848 -0.54 -1.374 1.018 -2.074 1.986 -3.012 0.392 -4.742 -2.462 -2.67 -8.49 -0.852 -12.708 -0.182 -0.41 0.068 -0.808 -0.036 -1.11 -0.286 -1.312 -1.084 0.052 -4.374 -1.88 -9.144 -1.528 -3.768 -6.02 -6.756 -11.326 -4.872 -3.428 1.218 -4.8 6.336 -5.35 9.932 -0.118 0.778 -0.198 1.292 -0.686 1.634 -0.46 0.324 -0.956 0.226 -1.284 0.162 -3.574 -0.712 -3.97 -0.818 -4.468 -0.814 -3.072 0 -2.978 1.73 -2.452 4.99 0.734 4.576 -1.054 0.96 -12.184 6.328 -0.412 0.2 -0.9 0.962 -0.418 1.216 2.008 1.05 3.92 0.932 7.536 0.952Z" stroke-width="1"></path><path id="vector_2" fill="#153640" d="M20.452 99.986c0.09 -4.154 13.898 -6.346 18.07 -6.814 -0.214 -2.06 -0.716 -6.906 4.12 -10.458 1.598 -1.172 4.842 -2.09 6.376 -2.032 3.104 0.142 5.144 1.214 9.754 3.286 0.044 -0.408 0.082 -0.93 0.118 -1.416 0.278 -3.848 0.794 -11.012 6.082 -16.292 5.92 -5.91 11.952 -2.218 17.778 3.688 2.468 2.5 3.702 4.532 4.362 5.856 3.97 -8.022 11.434 -17.678 20.362 -19.31 6.586 -1.206 13.606 3.93 15.338 11.21 0.692 2.9 0.584 6.948 0.566 9.762 5.68 -3.684 14.056 -8.146 19.668 -4.458 6.402 4.2 5.75 11.412 2.48 18.336 -0.088 0.184 -0.182 0.384 -0.254 0.548 2.092 0.586 8.694 1.492 11.622 2.834 4.714 2.164 4 5.614 1.474 6.66 -2.616 1.086 -6.252 1.612 -8 1.638 -9.21 0.148 -3.722 0.616 -27.928 0.616 -47.372 0 -102.166 4.284 -101.992 -3.656l0.004 0.002Zm2.002 0.048c0.036 0 0.272 0.27 1.224 0.588 12.632 4.244 59.984 0.974 98.772 0.974 27.682 0 16.994 -0.394 27.894 -0.57 1.544 -0.022 4.918 -0.51 7.264 -1.486 0.37 -0.154 0.746 -0.49 0.752 -0.896 0.004 -0.244 -0.148 -1.114 -2.296 -2.098 -1.644 -0.754 -4.898 -1.402 -7.77 -1.974 -2.978 -0.59 -4.516 -0.75 -4.994 -1.73 -0.626 -1.28 0.8 -2.214 1.962 -6.444 1.518 -5.518 0.466 -9.242 -3.312 -11.72 -3.064 -2.014 -7.326 -0.792 -10.362 0.586 -7.498 3.41 -8.206 5.322 -9.534 4.61 -0.846 -0.456 -0.686 -1.49 -0.67 -3.158 0.024 -2.44 0.062 -6.128 -0.518 -8.552 -1.65 -6.93 -8.072 -10.612 -13.034 -9.708 -8.49 1.554 -15.672 11.354 -19.328 19.052 -0.516 1.086 -0.808 1.444 -1.448 1.426 -1.616 -0.044 -0.596 -2.384 -5.732 -7.588 -5.08 -5.148 -10.004 -8.608 -14.942 -3.676 -4.76 4.75 -5.242 11.43 -5.5 15.02 -0.146 2.038 -0.214 2.968 -0.958 3.414 -0.346 0.206 -0.764 0.228 -1.148 0.056 -5.446 -2.432 -7.114 -3.358 -9.852 -3.484 -1.04 -0.014 -3.802 0.69 -5.104 1.644 -3.912 2.876 -3.524 6.614 -3.316 8.624l0.05 0.526c0.114 1.508 -1.242 1.636 -2.438 1.75 -1.568 0.148 -4.486 0.424 -9.926 1.992 -4.022 1.158 -5.614 2.41 -5.742 2.822h0.006Z" stroke-width="1"></path></g><g id="ground"><path id="vector_3" fill="#153640" d="M113.978 347.546c-11.088 -0.172 -21.004 -0.27 -29.872 -0.306 -0.766 0.954 -1.626 1.77 -2.566 2.474 12.306 -0.092 24.494 -0.114 33.766 -0.006 -0.456 -0.662 -0.928 -1.464 -1.328 -2.162Z" stroke-width="1"></path><path id="vector_4" fill="#153640" d="M42.886 347.648c-38.42002 1.162 -32.66002 4.31 -32.47802 4.304 8.348 -0.23 6.132 -1.266 35.93402 -1.8 -1.268 -0.664 -2.41 -1.462 -3.456 -2.504Z" stroke-width="1"></path><path id="vector_5" fill="#153640" d="M220.376 349.492c-28.196 0.084 -33.59 -0.206 -51.706 -0.732 -0.966 0.928 -2.088 1.85 -3.4 2.718 55.348 2.126 58.086 1.96 65.926 1.298 -3.954 -0.566 -7.744 -1.07 -10.822 -3.286l0.002 0.002Z" stroke-width="1"></path><path id="vector_6" fill="#153640" d="M375.092 350.222c-1.904 -2.312 -13.296 -0.096 -30.522 -0.988 -13.294 -0.69 -49.36 -0.31 -85.13 0 -1.412 0.958 -2.914 1.766 -4.498 2.378 58.316 -1.45 122.846 1.888 120.148 -1.39h0.002Z" stroke-width="1"></path></g><g id="gas"><path id="vector_7" fill="#153640" d="M314.058 223.096c-9.498 0.066 -27.442 0.092 -36.35 -0.894 -4.668 -0.516 -4.544 -3.58 -4.516 -13.674 0.012 -4.208 0.148 -74.224 2.53 -77.378 2.382 -3.154 9.9 -2.864 13.714 -3.15 0.16 -0.012 20.936 -0.686 30.436 0.036 14.132 1.074 14.498 -0.024 15.294 6.066 0.524 4.012 0.542 3.966 0.538 4.006 -0.142 1.508 0.298 2.966 0.434 4.446 0.318 3.45 1.592 51.7 1.182 73.678 -0.136 7.268 -3.498 6.728 -23.262 6.864Zm0.714 -33.864c7.02 -5.566 2.276 -17.688 -0.714 -26.198 -5.866 -16.704 -4.958 -16.896 -7.214 -23.078 -0.212 -0.582 -1.03 -0.784 -1.44 0.438 -10.472 31.218 -17.332 43.212 -7.748 48.956 5.016 3.006 12.45 3.58 17.114 -0.118h0.002Zm-10.746 15.19c4.02 -0.124 11.48 -0.012 11.376 -1.616 -0.104 -1.604 -8.592 -1.044 -14.724 -1.346 -3.306 -0.162 -15.408 -0.484 -13.316 2.116 1.374 1.71 8.83 0.182 16.664 0.846Zm-14.76 3.322c-1.018 -0.012 -2.15 0.972 -1.484 1.748 1.608 1.874 9.752 0.894 11.258 1.186 2.452 0.474 10.602 -0.088 6.91 -1.722 -2.866 -1.268 -15.26 -1.196 -16.684 -1.212Zm-7.12 -61.638c4.4 -1.666 5.754 -6.532 3.564 -9.93 -2.106 -3.266 -3.738 -1.324 -4.138 -0.278 -1.016 2.65 2.15 2.624 2.236 3.072 0.162 0.848 0.5 1.726 -0.156 2.514 -0.726 0.874 -3.218 3.234 -2.46 4.032 0.258 0.272 0.488 0.59 0.956 0.59h-0.002Zm7.522 -1.21c0.312 0.73 1.182 0.816 1.64 0.168 0.896 -1.266 2.808 -7.614 1.108 -9.014 -0.702 -0.578 -1.788 -0.222 -1.994 0.664 -0.424 1.834 -1.494 6.454 -0.754 8.182Zm33.028 -9.884c0 0.042 1.066 0.004 1.428 -0.066 3.136 -0.602 3.974 -0.204 5.16 -0.918 2.868 -1.728 -9.432 -2.686 -8.682 0.2 0.242 0.93 1.298 0.784 2.094 0.784Zm6.866 9.33c0.894 -0.67 -0.3 -1.256 -1.414 -1.32 -1.202 -0.07 -3.982 -0.072 -5.212 -0.024 -1.066 0.042 -1.53 0.85 -1.378 1.342 0.63 2.03 6.972 0.778 8.006 0.004l-0.002 -0.002Zm-1.686 -5.852c0.014 -0.508 -0.968 -0.964 -1.152 -1.004 -5.786 -1.28 -5.77 2.096 -3.798 2.222 1.14 0.074 4.92 -0.074 4.95 -1.218Z" stroke-width="1"></path><path id="vector_8" fill="#153640" d="M284.836 103.458c0.774 0.674 4.468 1.288 4.942 -1.066 0.16 -0.796 -0.484 -1.442 -0.98 -1.3 -0.668 0.19 -2.164 0.026 -2.788 -0.812 -1.476 -1.978 6.734 -2.896 7.518 -2.608 1.386 0.508 1.262 1.84 0.258 2.342 -0.764 0.38 -1.198 0.238 -1.12 0.922 0.188 1.644 0.448 3.024 -1.734 4.978 -0.59 0.53 -1.554 1.098 -3.498 1.164 -7.452 0.254 -10.07 -8.638 -5.192 -14.142 3.21 -3.622 9.336 -2.28 10.282 1.136 0.48 1.734 -1.932 2.506 -2.576 1.018 -0.896 -2.074 -5.468 -2.76 -7.074 2.072 -0.834 2.506 -0.026 4.566 1.964 6.296h-0.002Z" stroke-width="1"></path><path id="vector_9" fill="#153640" d="M308.694 105.374c0.024 1.994 -1.624 2.112 -2.284 1.168 -1.398 -1.998 -1.35 -2.164 -1.548 -2.706 -0.14 -0.388 -0.278 -0.676 -0.872 -0.614 -0.578 0.06 -1.904 0.036 -3.748 0.292 -0.746 0.104 -0.224 -0.096 -0.802 1.874 -0.076 0.262 -0.602 1.73 -0.902 1.89 -0.938 0.5 -2.23 -0.296 -2.136 -1.374 0.272 -3.174 1.794 -11.436 3.29 -14.248 0.704 -1.326 3.162 -1.768 4.47 1.448 0.016 0.04 3.716 9.552 4.532 12.266v0.004Zm-5.044 -5.106c-0.412 -1.324 -1.756 -5.218 -2.1 -5.55 -0.344 0.422 -1.214 5.822 -1.16 5.904 0.806 0.096 2.582 -0.194 3.26 -0.354Z" stroke-width="1"></path><path id="vector_10" fill="#153640" d="M320.862 91.192c0.526 0.368 0.626 0.952 0.5 1.554 -0.26 1.25 -1.928 0.636 -3.092 0.102 -3.042 -1.392 -5.152 3.278 -2.686 3.6 3.006 0.394 4.814 -0.372 7.156 2.776 1.444 1.94 0.69 5.51 -3.392 6.858 -3.658 1.208 -7.482 -0.696 -6.68 -2.584 0.378 -0.894 2.268 -0.364 3.142 -0.172 2.904 0.64 5.808 -1.198 3.872 -3.17 -1.37 -1.394 -2.658 -0.46 -4.946 -1.018 -6.66 -1.624 -1.128 -13.042 6.128 -7.948l-0.002 0.002Z" stroke-width="1"></path><path id="vector_11" fill="#153640" d="M298.046 178.818c-0.436 0.834 -1.366 0.45 -1.214 -0.406 1.336 -7.49 5.972 -25.648 7.448 -25.096 1.424 0.534 -6.13 25.302 -6.234 25.502Z" stroke-width="1"></path><path id="vector_12" fill="#153640" d="M385.748 226.75c-6.348 -18.054 -7.288 -12.132 -8.806 -26.924 -0.356 -3.466 1.408 -12.106 2.476 -15.65 2.668 -8.834 3.726 -10.4 4.652 -18.542 0.774 -6.808 0.118 -15.204 -3.654 -20.928 -0.88 -1.338 -1.808 -2.71 -3.064 -3.63 -1.254 -0.918 -2.396 -2.042 -3.904 -2.546 -2.154 -0.72 -5.234 -2.07 -10.04 -1.222 -4.368 0.77 -9.222 3.25 -11.63 5.314 -1.234 1.058 0.434 -5.924 -3.294 -5.778 -0.344 0.014 -1.14 -0.278 -1.492 -0.152 -0.702 0.252 -1.416 0.158 -2.124 0.16 -0.856 0.002 -0.922 -0.074 -0.934 -0.942 -0.188 -13.752 -0.968 -14.112 -16.984 -15.232 -4.738 -0.332 -6.3 -0.466 -10.79 -0.616 -1.476 -0.048 -1.226 0.094 -1.358 -2.872 -0.024 -0.538 0.114 -0.396 2.12 -0.648 6.812 -0.854 9.904 -0.488 12.726 -3.216 5.45 -5.266 5.762 -12.762 3.892 -20.108 -0.82 -3.224 -2.782 -5.662 -5.984 -6.562 -5.676 -1.594 -19.046 -1.766 -24.912 -1.66 -14.208 0.256 -27.47 -0.98 -32.06 7.624 -0.956 1.792 -1.666 3.638 -1.8 5.664 -0.134 2.026 -0.234 4.076 0.126 6.116 2.294 12.956 5.854 12.28 21.474 12.796 1.858 0.062 1.306 0.032 1.066 2.44 -0.09 0.91 -0.02 0.702 -3.334 0.996 -25.786 2.298 -31.772 1.338 -32.356 9.54 -0.104 1.474 -2.742 13.952 -3.598 81.47 6.248 1.35 10.198 2.742 13.228 5.36 0.594 -45.052 1.84 -85.496 4.352 -90.744 1.642 -3.428 10.5 -2.664 14.408 -3.194 7.236 -0.982 25.858 -0.944 25.904 -0.944 6.844 -0.004 14.654 0.722 15.682 0.768 2.478 0.11 11.98 0.264 14.378 2.346 4.122 3.578 4.392 108.654 4.392 108.696 0.096 25.228 0.054 42.312 -1.21 114.358 -0.012 0.676 -0.016 0.684 -0.672 0.698 -41.996 0.8 -74.674 0.254 -76.554 0.382 -1.198 0.082 -1.03 -0.16 -1.034 -0.496 -0.01 -0.782 -0.024 -2.356 -0.038 -4.62 -2.42 2.772 -5.318 5.17 -8.598 6.734 7.212 0.544 27.828 0.308 86.834 -0.166 0.788 -0.006 1.706 -0.106 1.684 -0.672 -0.014 -0.352 3.432 -119.002 0.678 -186.32 -0.358 -8.736 -1.098 -5.788 4.338 -7.16 1.33 -0.336 2.018 -2.724 1.916 -4.974 -0.126 -2.782 -0.812 -2.78 2.874 -5.226 1.55 -1.028 4.808 -3.658 9.814 -4.414 3.77 -0.568 5.664 0.522 8.654 2.244 1.956 1.124 3.624 4.088 4.506 6.288 2.596 6.464 1.514 16.914 0.164 22.036 -2.668 10.13 -8.208 20.194 -4.828 35.574 2.122 9.646 9.662 15.118 11.906 40.216 1.328 14.858 -0.514 50.116 -11.538 60.284 -3.74 3.45 -7.016 0.944 -9.17 -3.666 -5.564 -11.908 0.126 -40.09 1.418 -48.572 1.292 -8.482 -2.506 -12.692 -6.214 -13.382 -3.942 -0.732 -2.982 0.226 -4.688 -0.214 -0.624 -0.16 -1.108 0.246 -0.998 0.846 0.038 0.2 -0.204 0.084 1.354 3.404 0.122 0.26 0.48 0.312 0.434 0.796 -0.036 0.398 0.472 0.516 1.072 0.344 2.19 -0.628 4.458 1.062 4.524 3.712 0.118 4.72 -13.768 60.36 8.686 63.164 1.316 0.164 2.554 -0.292 3.724 -0.84 18.044 -8.48 19.8 -65.898 12.194 -87.532l0.01 -0.006Zm-93.176 -115.572c-12.794 -0.074 -16.15 -0.61 -17.442 -5.48 -1.69 -6.37 -2.708 -15.266 3.692 -16.848 9.916 -2.454 44.26 -2.556 49.55 0.34 4.368 2.39 5.098 16.052 1.76 19.662 -1.862 2.014 -7.586 2.498 -37.56 2.326Z" stroke-width="1"></path></g><g id="car"><path id="vector_13" fill="#153640" d="m290.83 274.992 -2.216 1.972c0.186 4.362 0.234 9.91 -0.11 13.576 -0.028 0.308 -1.318 0.452 -3.292 0.424 0.054 -3.414 -0.01 -7.41 -0.13 -10.842 -1.066 0.956 -1.782 1.602 -2.288 2.046 -1.388 1.224 -2.58 1.982 -3.546 0.448 -0.476 -0.754 -0.436 -1.396 0.496 -2.506 1.116 -1.33 2.978 -3.352 5.06 -5.544 -0.126 -1.816 -0.396 -3.856 -1.472 -5.332 1.056 -0.052 2.922 0.112 3.792 0.288 0.834 0.17 0.94 0.724 1.058 1.534l1.836 -1.882c-0.74 -2.116 -7.08 -1.842 -8.51 -1.654 -2.986 0.364 -4.534 1.012 -4.696 3.574 -0.154 1.134 -0.868 7.362 0.242 18.65 0.136 1.362 0.852 3.064 2.42 3.386 2.16 0.442 3.058 0.524 5.748 0.38 6.036 -0.32 5.844 -0.736 5.69 -11.994 -0.02 -1.61 0.014 -4.12 -0.082 -6.524Z" stroke-width="1"></path><path id="vector_14" fill="#153640" d="M297.85 310.76c-0.758 -1.254 2.77 -14.458 1.612 -30.95 -0.14 -1.982 -0.606 -7.554 -1.58 -11.046 -0.706 0.62 -2.024 1.786 -2.024 1.786 2.992 17.394 -0.226 33.412 -0.578 39.974 -0.008 0.138 -0.014 0.18 -0.014 0.18 -0.22 0.138 -0.374 -0.08 -4.486 0.308 -1.236 0.116 -7.274 0.702 -6.974 1.92 0.264 1.072 8.256 0.454 13.188 0.26 0.688 -0.038 0.644 0.346 0.914 1.174 0.326 1.012 0.582 1.81 0.628 4.678 0.344 20.052 -1.51 15.276 -27.532 16.522 0.066 -0.162 0.188 -0.41 0.312 -0.666 6.188 -12.584 5.894 -32.262 0.294 -41.73 -1.396 -2.36 -0.292 -0.306 -2.14 -7.66 -1.45 -5.754 -13.584 -9.586 -22.494 -2.71 -3.372 2.6 -5.762 6.796 -7.522 13.2 -4.622 16.822 -0.904 29.03 -4.424 37.324 -1.042 2.458 -0.838 2.434 -13.934 2.842 -47.868 1.5 -45.258 2.916 -44.5 1.338 5.754 -11.86 5.976 -28.262 1.426 -38.984 -0.63 -1.486 0.164 -2.88 -0.374 -5.448 -0.388 -1.87 -0.056 -5.846 -3.374 -9.212 -2.79 -2.834 -9.424 -5.19 -16.218 -3.976 -4.23 0.754 -9.948 3.144 -13.162 10.248 -6.492 14.344 -4.326 33.372 -5.674 42.928 -0.894 6.32 -1.288 5.742 -8.614 7.004 -17.704 3.064 -58.15 1.878 -73.394 0.236 -37.018 -3.986 -33.95 -0.856 -40.17198 -25.192 -2.02 -7.91 -1.388 -9.728 1.046 -16.054 2.09598 0.662 12.43598 3.41 13.65598 2.042 0.334 -0.38 0.9 -0.608 0.988 -1.318 0.392 -3.172 0.898 -12.292 0.33 -14.558 -0.454 -1.818 -1.146 -2.194 -6.166 -3.348 -2.254 -0.518 -3.216 -0.564 -4.358 -0.664 0.1 -0.25 0.196 -0.496 0.288 -0.74 1.414 -3.68 2.634 -6.858 21.908 -14.22 26.432 -10.094 26.968 -9.768 29.596 -12.848 36.708 -43.028 38.16 -43.642 133.794 -42.076 -6.14 1.424 -13.1 4.5 -18.35 8.948 -1.53 1.296 -1.19 1.01 -10.854 0.678 -38.666 -1.318 -38.846 -1.084 -55.816 -0.352 -14.132 0.608 -14.55 0.956 -16.336 2.46 -4.788 4.036 -20.642 24.584 -24.406 29.956 -1.828 2.61 -1.636 3.092 -2.142 2.93 -1.184 -0.386 -1.844 -0.204 -2.394 -0.834 -0.906 -1.042 -2.332 0.374 -1.662 1.41 1.834 2.83 20.648 3.402 24.006 3.616 33.682 2.122 45.38 0.374 46.7 1.018 -0.224 0.416 -1.986 1.67 -3.882 3.346 -14.294 12.636 -20.674 13.25 -21 15.258 -0.128 0.762 0.256 1.098 0.826 1.05 0.974 -0.074 7.794 -4.068 11.718 -7.006 24.766 -18.564 22.358 -22.322 44.654 -41.876 9.33 -8.184 14.958 -13.126 22.708 -16.116 18.964 -7.316 50.188 -4.274 60.52 1.584 6.424 3.644 12.162 22.288 15.226 30.61 3.07 8.348 5.806 10.12 12.098 14.662 1.626 1.174 2.824 2.146 3.712 3.074 0.624 -0.616 1.174 -1.15 1.622 -1.576 -2.384 -2.46 -5.134 -3.86 -8.886 -7 -6.582 -5.512 -6 -12.414 -13.95 -30.262 -5.016 -11.266 -9.132 -13.446 -22.834 -16.134 -9.03 -1.774 -16.778 -1.802 -30.842 -1.852 -44.556 -0.166 -38.248 -1.536 -71.762 0.366 -29.674 1.684 -42.096 5.868 -61.894 28.732 -2.488 -0.096 -17.268 -4.78 -19.556 6.998 -0.55 2.836 -0.098 5.12 1.422 7.186 0.972 1.322 1.986 1.354 3.774 1.74 -0.63 0.478 -0.018 0.23 -14.324 5.444 -22.234 8.102 -33.886 11.976 -35.666 20.876 -0.098 0.486 -0.098 0.43 -0.75798 0.554 -2.614 0.488 -2.242 1.596 -2.898 5.914 -0.688 4.544 -0.62 7.578 -0.282 10.984 -0.034 0.084 -0.114 0.24 -0.226 0.462 -0.85 1.698 -3.438 6.862 -2.552 12.262 0.924 5.628 4.404 24.218 10.38198 27.076 3.034 1.45 5.804 2.54 13.846 3.358 0.886 0.086 -0.25 0.818 3.24 5.428 2.428 3.204 5.316 4.608 9.482 5.952 7.95 2.562 12.88 2.644 18.262 1.952 6.784 -0.874 13.538 -2.622 17.022 -9.476 0.286 -0.562 0.18 -0.216 25.246 -0.406 1.014 -0.008 0.35 0.032 3.114 4.588 3.994 6.598 9.348 7.14 16.758 7.89 4.782 0.486 9.304 0.124 14.436 0.084 25.042 -0.212 28.048 -16.362 29.698 -16.45 7.232 -0.39 36.354 -1.654 36.592 -1.572 0.108 0.15 0.022 0.826 0.866 2.09 6.44 9.656 8.772 10.75 17.814 12.044 5.992 0.858 6.702 0.82 18.558 0.178 7.948 -0.43 15.658 -6.152 20.624 -15.306 0.056 -0.104 0.068 -0.14 0.068 -0.14 0.964 0.132 1.448 0.284 3.342 0.23 16.98 -0.486 25.556 1.044 27.176 -6.73 0.898 -4.3 2.116 -20.278 -2.52 -20.468l0.008 0.004Zm-148.256 -52.456c-0.37 0.39 -0.626 0.514 -3.584 0.55 -34.696 0.422 -61.39 -1.484 -63.556 -2.73 10.784 -15.088 24.21 -30.582 25.882 -31.908 1.01 -0.8 14.604 -1.554 35.476 -1.972 10.066 -0.202 35.528 0.72 41.98 1.062 -1.75 1.536 -6.854 4.032 -36.198 34.998ZM67.516 246.8c0.496 -7.702 7.888 -7.924 15.488 -6.58 -1.014 1.422 -1.526 1.378 -10.032 11.29 -0.582 0.68 -0.474 0.124 -2.35 0.032 -2.348 -0.116 -3.06 -3.052 -3.106 -4.742ZM18.81002 295.206c0.52 -7.676 0 -3.948 0.99 -11.58 0.036 -0.268 0.078 -0.328 0.078 -0.328s0.06 -0.036 0.32798 -0.016c3.708 0.224 6.818 1.106 10.45 1.97 0.834 0.824 0.164 13.196 -0.052 13.97 0 0 -0.068 0.006 -0.186 -0.012 -4.7 -0.744 -7.356 -0.988 -11.48598 -2.352 -0.242 -0.08 -0.234 0.01 -0.122 -1.652ZM160.39 351.908c-9.798 4.424 -18.686 -2.044 -22.398 -10.88 -0.076 -0.18 -0.07 -0.294 0.178 -0.418 7.088 -3.542 0.844 -24.84 7.71 -46.152 0.438 -1.36 3.612 -4.694 8.378 -6.494 15.108 -5.696 25.35 11.112 25.182 27.426 -0.168 16.254 -8.18 31.612 -19.052 36.516l0.002 0.002Zm80.064 -10.126c-1.076 -1.486 -1.902 -3.158 -2.702 -4.772 -0.884 -1.798 -0.996 -1.696 -0.496 -2.808 3.562 -7.954 0.188 -23.474 4.512 -36.996 0.88 -2.754 10.026 -14.614 20.188 -10.016 5.604 2.534 10.052 9.294 11.608 17.644 5.112 27.438 -18.566 57.01 -33.11 36.948Z" stroke-width="1"></path><path id="vector_15" fill="#153640" d="M261.464 233.14c-2.53 -6.422 -7.91 -11.116 -15.562 -13.574 -3.814 -1.226 -9.564 -1.624 -13.558 -1.82 -10.546 -0.5 -25.82 1.588 -34.406 7.38 -7.908 5.332 -23.448 19.562 -33.242 34.51 -2.822 4.302 -1.124 4.8 4.022 4.8 -1.522 2.068 -2.09 2.868 -1.968 4.15 0.004 1.304 0.208 2.634 1.59 3.498 1.064 0.666 2.354 1.082 3.67 1.082 5.826 0 3.69 -6.31 16.83 -6.644 0.692 -0.018 1.238 -0.032 1.644 -0.09 15.35 -2.206 0.738 -2.208 18.284 -2.376 5.566 -0.052 25.012 -1.23 56.236 -3.404 1.378 -0.096 2.906 0.006 3.598 -1.172 0.194 -0.33 0.356 -0.868 0.026 -1.552 -0.368 -0.754 -0.338 -7.46 -7.16 -24.788h-0.004Zm-64.162 29.226c-1.794 0.858 -2.488 0.942 -3.872 1.108 -3.004 0.364 -3.544 0.606 -5.692 0.552 -4.434 -0.122 -9.406 1.41 -12.828 5.058 -0.866 0.918 -1.55 1.648 -3.096 1.494 -5.24 -0.5 -1.59 -4.116 1.956 -9.156 4.552 -6.472 6.836 -9.722 15.408 -10.774 6.04 -0.74 11.052 -0.192 10.78 5.834 -0.158 3.508 -1.524 5.344 -2.656 5.886v-0.002Zm27.29 -1.45c-0.344 0.09 -23.608 1.446 -23.418 1.004 1.484 -3.226 1.99 -5.406 0.86 -9.06 -2.04 -6.578 -12.626 -5.79 -18.956 -3.378 -5.246 2.002 -7.87 5.596 -12.43 12.304 -0.506 0.744 -0.516 0.604 -4.78 0.584 -0.522 -0.004 -0.1 -0.42 2.696 -4.182 5.386 -7.25 5.096 -6.862 8.55 -10.752 4.03 -4.538 17.616 -17.75 24.532 -21.666 3.068 -1.734 5.956 -2.876 12.408 -3.934 0.056 -0.01 6.188 -0.96 8.668 -1.07 1.214 2.154 1.988 39.902 1.872 40.154l-0.002 -0.004Zm6.894 -3.26c-0.052 0.708 -1.146 0.734 -1.228 0.028 -0.996 -8.114 -1.194 -18.276 -1.786 -26.468 0.074 -1.078 -1.418 -11.694 1.038 -8.964 1.454 5.776 1.304 11.754 1.804 17.658 0.136 5.228 0.698 12.586 0.172 17.746Zm5.858 2.604c-0.856 -1.6 0.188 -19.87 -3.142 -39.39 -0.064 -0.368 -0.052 -0.48 -0.076 -0.484 0.094 -0.024 1.44 0.106 1.538 0.114 4.606 0.396 10.912 0.938 16.148 4.64 5.906 4.174 7.482 8.876 10.1 16.662 2.308 6.862 2.436 8.194 4.152 16.31 -1.69 0.648 -18.052 1.18 -28.72 2.146v0.002Z" stroke-width="1"></path><path id="vector_16" fill="#153640" d="M110.656 283.928c-10.62 0.754 -18.496 0.334 -24.636 2.466 -2.334 0.814 -2.804 2.338 -3.498 5.188 -0.822 3.376 -1.448 8.382 -1.46 9.702 -0.006 0.894 -0.826 2.972 1.66 3.666 4.112 1.15 18.39 0.81 22.606 0.666 2.186 -0.074 3.23 0.186 6.834 -1.214 3.594 -1.4 8.148 -16.984 8.34 -17.648 0.272 -0.938 0.206 -1.64 -0.206 -2.146 -1.046 -1.296 -4.098 -1.078 -9.638 -0.682l-0.002 0.002Zm7.15 2.826c-0.632 3.164 -4.21 11.662 -6.078 14.434 -1.192 1.766 -3.798 1.79 -6.098 1.812 -6.486 0.04 -6.23 0.546 -19.474 -0.204 -1.474 -0.084 -2.868 -0.164 -3.028 -0.368 -0.038 -0.048 0.006 -0.27 0.048 -0.476 1.418 -7.154 1.776 -12.538 2.642 -12.954 4.53 -2.158 14.596 -1.932 26.77 -2.65 5.474 -0.324 5.34 -0.222 5.218 0.406Z" stroke-width="1"></path><path id="vector_17" fill="#153640" d="M74.11 322.952c-40.684 -4.522 -40.272 -6.186 -40.242 -0.308 -0.018 0.068 -0.008 0.16 0.042 0.234 0.012 3.374 0.362 6.154 0.432 6.684 0.422 3.146 2.004 3.358 10.78 4.538 3.934 0.504 21.78 2.474 26.692 2.418 0.726 -0.01 2.482 -0.29 2.408 -1.084 -0.126 -1.406 -4.364 -1.024 -8.958 -1.356 -0.226 -0.016 -23.156 -2.36 -27.83 -3.708 -0.466 -0.134 -0.64 -0.356 -0.738 -0.948 -0.12 -0.724 -0.856 -8.226 -0.538 -8.506 0.762 -0.656 6.974 1.532 37.348 4.038 0.392 0.034 0.472 0.132 0.492 0.332 0.564 5.214 0.434 6.016 0.914 7.624 0.36 1.208 1.688 1.188 1.978 -0.084 0.072 -0.298 -0.018 -1.71 -0.046 -2.136 -0.488 -7.068 -0.64 -7.5 -2.732 -7.734l-0.002 -0.004Z" stroke-width="1"></path><path id="vector_18" fill="#153640" d="M102.18 318.096c0.762 0.016 0.642 -0.122 5.67 -0.16 2.566 -0.02 3.98 -0.03 5.474 -0.69 0.466 -0.206 0.958 -0.46 0.87 -0.866 -0.438 -2.014 -28.7 1.684 -68.454 -2.996 -28.91398 -3.41 -27.89598 -6.144 -28.70998 -4.67 -2.074 3.75 24.81998 6.556 29.83798 7.102 11.988 1.304 23.366 2.314 35.798 2.314 9.07 0 14.058 -0.566 19.512 -0.036l0.002 0.002Z" stroke-width="1"></path><path id="vector_19" fill="#153640" d="M91.704 324.088c-1.374 0.026 -1.712 1.77 -0.166 1.986 2.05 0.42 9.876 0.148 12.402 0.412 -0.566 0.434 -1.134 0.904 -1.574 1.578 -1.202 1.856 -1.104 4.282 0.234 5.77 6.33 7.034 17.966 2.45 14.55 -3.468 -4.622 -8 -14.402 -6.462 -25.446 -6.278Zm21.072 5c1.792 1.642 2.512 2.628 2.478 3.404 -0.02 0.476 -0.334 0.932 -0.99 1.434 -3.83 2.936 -12.218 -0.888 -9.83 -4.288 2.1 -2.988 5.744 -2.932 8.342 -0.55Z" stroke-width="1"></path><path id="vector_20" fill="#153640" d="M227.456 318.362c-37.324 0.492 -42.794 1.268 -43.392 1.89 -0.102 0.106 -0.12 0.216 -0.118 0.292 0.026 0.954 0.698 0.93 4.812 0.814 22.446 -0.61 35.584 -0.084 39.756 -1.386 0.964 -0.302 0.672 -1.6 -1.058 -1.612v0.002Z" stroke-width="1"></path><path id="vector_21" fill="#153640" d="M57.088 281.578c1.418 1.016 4.664 1.016 5.958 0.15 1.24 -0.83 0.812 -2.272 -0.756 -2.86 -2.254 -0.834 -3.664 -0.418 -4.594 -0.044 -1.228 0.49 -1.61 2.036 -0.608 2.754Z" stroke-width="1"></path><path id="vector_22" fill="#153640" d="M140.462 230.224c-0.004 -0.11 -0.08 -0.232 -0.176 -0.282 -0.186 -0.098 -0.372 -0.044 -1.094 0.444 -2.988 2.02 -27.122 20.708 -21.964 20.708 0.434 0 23.266 -19.728 23.236 -20.868l-0.002 -0.002Z" stroke-width="1"></path><path id="vector_23" fill="#153640" d="M128.47 231.848c0.578 -0.522 0.42 -0.834 0.326 -0.942 -0.552 -0.644 -3.948 1.588 -10.082 6.636 -3.92 3.226 -4.31 3.674 -6.248 5.63 -0.938 0.946 -0.678 1.514 -0.362 1.974 0.032 0.044 0.06 0.086 0.084 0.128 0.072 0.126 0.22 0.174 0.338 0.138 1.328 -0.332 14.97 -12.688 15.944 -13.566v0.002Z" stroke-width="1"></path><path id="vector_24" fill="#153640" d="M146.3 234.144c-0.296 -0.128 -0.738 -0.31 -14.98 11.748 -0.492 0.418 -0.886 0.932 -1.314 1.512 -0.372 0.512 -0.03 1.21 0.674 1.222 0.976 0.018 15.866 -12.978 15.818 -14.188 -0.004 -0.114 -0.094 -0.25 -0.198 -0.294Z" stroke-width="1"></path><path id="vector_25" fill="#153640" d="M152.268 338.19c4.312 2.592 8.78 1.068 12.264 -2.696 10.71 -10.352 8.58 -41.238 -6.342 -38.57 -13.352 2.37 -18.382 33.774 -5.922 41.264v0.002Zm14.13 -34.48c7.286 12.854 -1.382 36.176 -11.392 33.238 -3.744 -1.104 -6.5 -5.818 -7.376 -12.608 -2.226 -17.262 11.114 -34.128 18.768 -20.63Z" stroke-width="1"></path><path id="vector_26" fill="#153640" d="M250.676 335.05c2.934 1.376 5.886 0.49 8.306 -1.634 11.894 -10.446 7.858 -41.754 -5.646 -36.93 -11.596 4.138 -14.342 33.078 -2.66 38.566v-0.002Zm-3.318 -7.192c-6.024 -13.392 2.706 -32.918 10.63 -28.978 3.528 1.752 6.082 8.014 6.074 14.89 -0.016 14.374 -10.836 27.136 -16.704 14.088Z" stroke-width="1"></path><path id="vector_27" fill="#153640" d="M20.462 290.416c-0.368 1.354 0.468 1.93 1.094 1.314 1.29 -1.262 1.856 -2.214 4.152 -1.21 0.608 0.266 0.988 0.77 1.128 1.494 0.222 1.162 -0.246 2.494 -0.806 3.062 -0.826 0.832 -0.14 2.266 0.918 1.77 0.992 -0.47 1.826 -2.662 1.974 -3.656 0.85 -5.622 -7.416 -6.644 -8.46 -2.774Z" stroke-width="1"></path><path id="vector_28" fill="#153640" d="M211.772 231.94c-0.024 -0.144 -0.122 -0.256 -0.262 -0.304 -1.036 -0.328 -8.112 4.648 -12.616 8.91 -1.474 1.396 -0.558 3.002 1.488 1.432 11.582 -8.896 11.438 -9.756 11.39 -10.038Z" stroke-width="1"></path><path id="vector_29" fill="#153640" d="M211.526 236.584c-0.568 0 -6.73 3.484 -7.992 5.558 -0.238 0.42 0.052 1.152 0.942 1.078 0.49 -0.044 7.532 -5.272 7.492 -6.256 -0.008 -0.19 -0.146 -0.38 -0.442 -0.38Z" stroke-width="1"></path><path id="vector_30" fill="#153640" d="M255.542 237.596c-1.454 -0.182 -9.686 7.06 -11.458 9.55 -0.454 0.638 -0.588 1.054 -0.436 1.35 0.07 0.134 0.226 0.296 0.578 0.298 1.166 0.004 11.406 -10.116 11.568 -10.836 0.038 -0.168 -0.072 -0.34 -0.25 -0.364l-0.002 0.002Z" stroke-width="1"></path><path id="vector_31" fill="#153640" d="M253.356 232.632c0.058 -0.524 -0.602 -0.644 -0.93 -0.43 -1.056 0.672 -10.838 9.886 -11.502 10.834 -0.152 0.218 -0.162 0.506 -0.152 0.758 0.01 0.238 0.2 0.352 0.352 0.536 0.098 0.12 0.272 0.142 0.398 0.058 1.034 -0.694 11.656 -10.144 11.834 -11.756Z" stroke-width="1"></path><path id="vector_32" fill="#153640" d="M105.992 289.716c-3.7 0.188 -6.644 3.928 -5.816 7.462 0.374 1.59 1.442 2.952 2.792 3.552 1.692 0.758 3.688 1.37 4.78 -0.14 0.31 -0.432 0.074 -0.874 -0.418 -0.88 -1.456 -0.028 -3.052 -0.788 -3.974 -1.886 -2.404 -2.864 1.24 -7.012 4.942 -4.952 0.574 0.322 0.534 1.856 1.326 2.046 0.408 0.098 0.792 -0.214 1.048 -0.458 0.51 -0.484 0.57 -2.208 -0.402 -3.164 -1.106 -1.088 -2.666 -1.672 -4.276 -1.584l-0.002 0.004Z" stroke-width="1"></path><path id="vector_33" fill="#153640" d="M94.432 292.878c-5.388 -0.32 -6.718 6.452 -3.26 7.928 0.382 0.164 0.692 0.054 1.038 -0.12 0.204 -0.1 0.388 -0.134 0.438 -0.36 0.008 -0.034 0.07 -0.344 -0.112 -0.508 -0.306 -0.274 -0.85 -1.436 -0.828 -2.516 0.012 -0.554 0.176 -0.962 0.486 -1.216 0.406 -0.332 1.794 -1.34 2.664 -0.33 0.786 0.906 1.794 0.598 1.948 -0.182 0.288 -1.436 -1.07 -2.618 -2.374 -2.696Z" stroke-width="1"></path><path id="vector_34" fill="#153640" d="M156.42 323.056c1.468 -0.194 3.14 -2.41 3.336 -6.814 0.018 -0.426 -0.402 -1.198 -0.9 -1.112 -0.962 0.156 -1.34 3.598 -2.61 5.412 -1.078 -2.084 -0.246 -5.468 0.78 -6.416 0.266 0.2 0.472 0.438 0.666 0.44 0.34 0 0.654 0.028 0.864 -0.23 0.542 -0.662 -0.832 -3.886 -3.048 -1.58 -3.06 3.184 -2.066 10.714 0.912 10.3Z" stroke-width="1"></path><path id="vector_35" fill="#153640" d="M256.492 313.066c-0.042 -0.702 0.2 -1.392 -0.504 -1.488 -0.938 -0.144 -0.514 0.98 -2.246 4.546 -0.246 -0.482 -0.54 -2.04 0.058 -4.152 0.108 -0.388 0.18 -0.598 0.488 -0.746 1.234 -0.584 0.024 -2.518 -1.146 -1.864 -1.368 0.77 -2.508 4.786 -1.306 7.7 1.214 2.942 4.53 2.34 4.656 -3.996Z" stroke-width="1"></path><path id="vector_36" fill="#153640" d="M42.49 302.618c5.96 0.59 13.008 1.564 22.708 1.564 5.718 0 4.106 -0.204 8.264 -0.404 4.366 -0.212 3.564 -0.48 5.404 -11.14 1.394 -8.03 0.41 -4.836 -13.206 -6.1 -3.48 -0.326 -27.916 -1.408 -28.046 -1.408 -3.08 0.018 -2.038 4.92 -2.276 14.846 -0.05 1.926 1.332 2.064 7.152 2.642Zm-3.614 -13.176c0.696 -0.124 24.472 2.44 35.096 2.012 0.68 -0.026 0.912 -0.038 1.198 0.092 0.536 0.24 0.832 0.63 0.792 1.042 -0.048 0.482 -0.582 0.782 -0.856 0.782 -2.602 0.608 -31.312 -0.988 -36.232 -2.352 -0.868 -0.24 -0.894 -1.464 0.002 -1.576Zm-0.79 5.968c0.25 -0.056 1.682 0.102 5.716 0.558 9.726 1.098 13.566 1.522 27.196 1.836 3.12 0.072 3.86 0.088 4.174 0.452 2.928 3.416 -35.08 -0.028 -37.41 -1.584 -0.468 -0.316 -0.388 -1.11 0.322 -1.26l0.002 -0.002Z" stroke-width="1"></path></g><g id="elements"><path id="vector_37" fill="#153640" d="M256.624 86.528c-3.7 -1.41 -28.708 -17.494 -27.814 -18.004 0.402 -0.23 0.476 -0.036 0.624 0.046 19.068 10.476 32.092 17.032 27.192 17.96l-0.002 -0.002Z" stroke-width="1"></path><path id="vector_38" fill="#153640" d="M223.67 106.736c10.024 -0.982 28.126 -1.744 26.962 -1.694 2.33 -0.102 2.104 2.158 -1.112 2.284 -28.072 1.1 -27.938 -0.386 -25.85 -0.59Z" stroke-width="1"></path><path id="vector_39" fill="#153640" d="M307.578 43.33c1.404 -1.746 -3.068 25.718 -3.982 26.596 -0.526 0.504 -1.254 0.36 -1.452 -0.324 -0.626 -2.17 4.516 -25.132 5.434 -26.272Z" stroke-width="1"></path><path id="vector_40" fill="#153640" d="M327.562 71.164c2.802 -2.674 6.992 -6.706 9.556 -8.78 14.998 -12.136 7.93 -4.928 -5.566 8.4 -0.918 0.906 -1.928 1.724 -2.924 2.546 -1.312 1.084 -3.092 -0.234 -1.066 -2.166Z" stroke-width="1"></path><path id="vector_41" fill="#153640" d="M347.052 90.732c-0.524 0 -1.146 0.004 -1.268 -0.516 -0.096 -0.406 -0.102 -0.852 0.3 -1.112 2.294 -1.476 18.906 -5.34 20.05 -5.312 4.564 0.114 -14.154 6.062 -19.084 6.94h0.002Z" stroke-width="1"></path><path id="vector_42" fill="#153640" d="M272.59 69.704c0.028 1.186 -1.054 1.502 -1.546 0.698 -0.98 -1.604 -0.318 -0.104 -6.016 -16.708 -1.882 -5.484 -1.928 -4.988 -1.752 -5.528 1.994 1.046 8.318 18.334 9.314 21.538Z" stroke-width="1"></path></g><g id="lines 2"><path id="vector_43" fill="#153640" d="M323.594 287.128c-0.29 -0.084 -0.644 -0.078 -1 0.426 -0.55 0.986 -2.786 19.204 -1.218 19.34 0.116 0 0.292 -0.058 0.342 -0.206 0.934 -3.076 2.366 -16.066 2.558 -18.69 0.028 -0.366 -0.272 -0.746 -0.682 -0.87Z" stroke-width="1"></path><path id="vector_44" fill="#153640" d="M332.05 286.494c-0.234 -0.194 -1.036 -0.802 -1.708 0.632 -0.182 0.324 0.79 1.882 3.092 6.456 3.554 7.06 3.77 7.66 4.638 7.1 0.682 -0.438 -4.08 -12.582 -6.022 -14.188Z" stroke-width="1"></path><path id="vector_45" fill="#153640" d="M313.542 285.694c-0.384 -0.104 -0.75 0.048 -0.98 0.402 -1.874 2.87 -6.524 14.058 -6.722 14.734 -0.134 0.452 0.46 0.72 0.77 0.5 1.164 -0.85 6.494 -11.458 7.642 -14.638 0.12 -0.21 -0.136 -0.846 -0.708 -1l-0.002 0.002Z" stroke-width="1"></path></g><path id="vector_46" fill="#153640" d="M355.656 245.434c-0.246 -0.762 -0.6 -3.38 -2.924 -3.938 -0.804 -0.192 -1.73 -0.246 -2.522 -0.05 -3.584 0.894 -7.208 1.628 -10.732 2.752 -2.17 0.694 -1.558 0.46 -2.944 -0.71 -2.608 -2.202 -2.916 -1.604 -14.826 1.71 -2.888 0.804 -2.666 -4.798 -7.854 -2.312 -6.684 3.2 -8.042 4.15 -10.642 6.176 -2.132 1.66 -1.85 3.392 -1.932 4.59 -0.144 2.116 -1.246 2.386 -2.096 3.142 -3.396 3.018 -4.068 3.604 -4.018 4.466 0.008 0.122 0.09 0.348 0.108 0.588 -3.096 3.18 -15.552 15.968 -16.54 17.058 -0.952 1.048 -1.218 2.42 -0.716 3.67 0.22 0.544 1.268 1.788 1.448 1.972 1.056 1.082 2.302 0.6 3.456 -0.346 1.63 -1.334 13.816 -12.058 17.178 -15.018 0.482 0.306 1.032 1.326 2.776 0.712 3.364 -1.186 3.482 -1.604 4.098 -0.832 3.502 4.392 6.07 9.29 8.408 9.592 3.358 0.434 18.246 -4.06 23.456 -6.862 1.246 -0.668 1.666 -2.116 1.628 -3.034 -0.152 -3.954 -0.156 -7.316 -0.39 -10.72 -0.044 -0.676 -0.156 -0.402 9.604 -3.772 4.918 -1.698 6.084 -1.96 6.6 -3.17 0.958 -2.244 0.08 -3.498 -0.62 -5.664h-0.004Zm-74.002 37.222c-0.592 0.484 -0.812 0.51 -0.756 0.496 -0.196 -0.2 -0.918 -1.12 -1.026 -1.324 -0.124 -0.31 -0.248 -0.928 0.344 -1.58 0.91 -1.006 12.374 -12.778 16.042 -16.544l2.636 3.876c-3.148 2.772 -15.638 13.764 -17.24 15.076Zm49.732 -19.526c0 2.58 0.234 3.286 -1.366 3.654 -2.04 0.468 -4.064 1.038 -6.128 1.362 -4.578 0.726 -6.394 1.952 -7.098 0.68 -2.842 -5.11 -3.006 -4.97 -2.03 -5.532 1.472 -0.848 1.874 -0.914 9.876 -3.604 1.148 -0.386 0.364 0.446 0.212 3.912 -0.058 1.26 1.316 1.198 1.714 0.504 1.12 -1.952 1.144 -2.74 1.82 -5.144 0.202 -0.71 0.456 -0.518 1.19 -0.702 0.886 -0.222 1.514 -0.086 1.64 1.412 0.292 3.45 0.346 3.444 0.17 3.458Z" stroke-width="1"></path></g></svg>