<svg xmlns="http://www.w3.org/2000/svg" fill="none" viewBox="0 0 200 200" id="Car-Getting-Gas--Streamline-Milano.svg"><desc>Car Getting Gas Streamline Illustration: https://streamlinehq.com</desc><g id="car-getting-gas--travel-transportation-car-getting-gas"><g id="cloud"><path id="vector" fill="#000000" d="M55.355 81.508c-1.663 -0.02 -4.891 0.079 -4.864 -1.646 0.009 -0.545 0.369 -1.097 0.875 -1.342 2.714 -1.309 4.115 -1.546 5.587 -1.804 -0.165 -1.078 -0.456 -2.399 0.279 -3.256 0.404 -0.47 1.069 -0.689 1.925 -0.699 0.358 0.002 0.693 0.085 2.188 0.385 0.321 -2.246 1.214 -5.03 3.333 -5.784 3.239 -1.149 5.985 0.688 6.924 3.002 0.722 1.783 0.629 3.234 0.692 4.057 2.269 -0.397 5.391 -1.26 6.965 0.448 1.08 1.172 0.657 2.182 0.251 2.949 2.182 0.46 5.668 0.687 6.127 1.929 0.069 0.186 0.132 0.56 -0.216 0.973 -0.73 0.868 -2.327 1.002 -7.442 1.004 -9.2 0.004 -22.315 -0.249 -22.625 -0.215l0.001 -0.001Zm0.004 -1.004c24.293 0.138 28.557 0.453 29.298 -0.429 -0.318 -0.603 -5.111 -1.107 -6.059 -1.471 -0.274 -0.105 -0.399 -0.424 -0.27 -0.687 0.509 -1.037 0.993 -1.506 0.196 -2.371 -1.231 -1.335 -4.245 -0.426 -6.354 -0.091 -0.205 0.034 -0.404 -0.018 -0.555 -0.143 -0.656 -0.542 0.026 -2.187 -0.94 -4.572 -0.764 -1.884 -3.01 -3.378 -5.663 -2.436 -1.714 0.609 -2.4 3.168 -2.675 4.966 -0.059 0.389 -0.099 0.646 -0.343 0.817 -0.23 0.162 -0.478 0.113 -0.642 0.081 -1.787 -0.356 -1.985 -0.409 -2.234 -0.407 -1.536 0 -1.489 0.865 -1.226 2.495 0.367 2.288 -0.527 0.48 -6.092 3.164 -0.206 0.1 -0.45 0.481 -0.209 0.608 1.004 0.525 1.96 0.466 3.768 0.476Z" stroke-width="1"></path><path id="vector_2" fill="#000000" d="M10.226 49.993c0.045 -2.077 6.949 -3.173 9.035 -3.407 -0.107 -1.03 -0.358 -3.453 2.06 -5.229 0.799 -0.586 2.421 -1.045 3.188 -1.016 1.552 0.071 2.572 0.607 4.877 1.643 0.022 -0.204 0.041 -0.465 0.059 -0.708 0.139 -1.924 0.397 -5.506 3.041 -8.146 2.96 -2.955 5.976 -1.109 8.889 1.844 1.234 1.25 1.851 2.266 2.181 2.928 1.985 -4.011 5.717 -8.839 10.181 -9.655 3.293 -0.603 6.803 1.965 7.669 5.605 0.346 1.45 0.292 3.474 0.283 4.881 2.84 -1.842 7.028 -4.073 9.834 -2.229 3.201 2.1 2.875 5.706 1.24 9.168 -0.044 0.092 -0.091 0.192 -0.127 0.274 1.046 0.293 4.347 0.746 5.811 1.417 2.357 1.082 2 2.807 0.737 3.33 -1.308 0.543 -3.126 0.806 -4 0.819 -4.605 0.074 -1.861 0.308 -13.964 0.308 -23.686 0 -51.083 2.142 -50.996 -1.828l0.002 0.001Zm1.001 0.024c0.018 0 0.136 0.135 0.612 0.294 6.316 2.122 29.992 0.487 49.386 0.487 13.841 0 8.497 -0.197 13.947 -0.285 0.772 -0.011 2.459 -0.255 3.632 -0.743 0.185 -0.077 0.373 -0.245 0.376 -0.448 0.002 -0.122 -0.074 -0.557 -1.148 -1.049 -0.822 -0.377 -2.449 -0.701 -3.885 -0.987 -1.489 -0.295 -2.258 -0.375 -2.497 -0.865 -0.313 -0.64 0.4 -1.107 0.981 -3.222 0.759 -2.759 0.233 -4.621 -1.656 -5.86 -1.532 -1.007 -3.663 -0.396 -5.181 0.293 -3.749 1.705 -4.103 2.661 -4.767 2.305 -0.423 -0.228 -0.343 -0.745 -0.335 -1.579 0.012 -1.22 0.031 -3.064 -0.259 -4.276 -0.825 -3.465 -4.036 -5.306 -6.517 -4.854 -4.245 0.777 -7.836 5.677 -9.664 9.526 -0.258 0.543 -0.404 0.722 -0.724 0.713 -0.808 -0.022 -0.298 -1.192 -2.866 -3.794 -2.54 -2.574 -5.002 -4.304 -7.471 -1.838 -2.38 2.375 -2.621 5.715 -2.75 7.51 -0.073 1.019 -0.107 1.484 -0.479 1.707 -0.173 0.103 -0.382 0.114 -0.574 0.028 -2.723 -1.216 -3.557 -1.679 -4.926 -1.742 -0.52 -0.007 -1.901 0.345 -2.552 0.822 -1.956 1.438 -1.762 3.307 -1.658 4.312l0.025 0.263c0.057 0.754 -0.621 0.818 -1.219 0.875 -0.784 0.074 -2.243 0.212 -4.963 0.996 -2.011 0.579 -2.807 1.205 -2.871 1.411h0.003Z" stroke-width="1"></path></g><g id="ground"><path id="vector_3" fill="#000000" d="M56.989 173.773c-5.544 -0.086 -10.502 -0.135 -14.936 -0.153 -0.383 0.477 -0.813 0.885 -1.283 1.237 6.153 -0.046 12.247 -0.057 16.883 -0.003 -0.228 -0.331 -0.464 -0.732 -0.664 -1.081Z" stroke-width="1"></path><path id="vector_4" fill="#000000" d="M21.443 173.824c-19.21001 0.581 -16.33001 2.155 -16.23901 2.152 4.174 -0.115 3.066 -0.633 17.96701 -0.9 -0.634 -0.332 -1.205 -0.731 -1.728 -1.252Z" stroke-width="1"></path><path id="vector_5" fill="#000000" d="M110.188 174.746c-14.098 0.042 -16.795 -0.103 -25.853 -0.366 -0.483 0.464 -1.044 0.925 -1.7 1.359 27.674 1.063 29.043 0.98 32.963 0.649 -1.977 -0.283 -3.872 -0.535 -5.411 -1.643l0.001 0.001Z" stroke-width="1"></path><path id="vector_6" fill="#000000" d="M187.546 175.111c-0.952 -1.156 -6.648 -0.048 -15.261 -0.494 -6.647 -0.345 -24.68 -0.155 -42.565 0 -0.706 0.479 -1.457 0.883 -2.249 1.189 29.158 -0.725 61.423 0.944 60.074 -0.695h0.001Z" stroke-width="1"></path></g><g id="gas"><path id="vector_7" fill="#000000" d="M157.029 111.548c-4.749 0.033 -13.721 0.046 -18.175 -0.447 -2.334 -0.258 -2.272 -1.79 -2.258 -6.837 0.006 -2.104 0.074 -37.112 1.265 -38.689 1.191 -1.577 4.95 -1.432 6.857 -1.575 0.08 -0.006 10.468 -0.343 15.218 0.018 7.066 0.537 7.249 -0.012 7.647 3.033 0.262 2.006 0.271 1.983 0.269 2.003 -0.071 0.754 0.149 1.483 0.217 2.223 0.159 1.725 0.796 25.85 0.591 36.839 -0.068 3.634 -1.749 3.364 -11.631 3.432Zm0.357 -16.932c3.51 -2.783 1.138 -8.844 -0.357 -13.099 -2.933 -8.352 -2.479 -8.448 -3.607 -11.539 -0.106 -0.291 -0.515 -0.392 -0.72 0.219 -5.236 15.609 -8.666 21.606 -3.874 24.478 2.508 1.503 6.225 1.79 8.557 -0.059h0.001Zm-5.373 7.595c2.01 -0.062 5.74 -0.006 5.688 -0.808 -0.052 -0.802 -4.296 -0.522 -7.362 -0.673 -1.653 -0.081 -7.704 -0.242 -6.658 1.058 0.687 0.855 4.415 0.091 8.332 0.423Zm-7.38 1.661c-0.509 -0.006 -1.075 0.486 -0.742 0.874 0.804 0.937 4.876 0.447 5.629 0.593 1.226 0.237 5.301 -0.044 3.455 -0.861 -1.433 -0.634 -7.63 -0.598 -8.342 -0.606Zm-3.56 -30.819c2.2 -0.833 2.877 -3.266 1.782 -4.965 -1.053 -1.633 -1.869 -0.662 -2.069 -0.139 -0.508 1.325 1.075 1.312 1.118 1.536 0.081 0.424 0.25 0.863 -0.078 1.257 -0.363 0.437 -1.609 1.617 -1.23 2.016 0.129 0.136 0.244 0.295 0.478 0.295h-0.001Zm3.761 -0.605c0.156 0.365 0.591 0.408 0.82 0.084 0.448 -0.633 1.404 -3.807 0.554 -4.507 -0.351 -0.289 -0.894 -0.111 -0.997 0.332 -0.212 0.917 -0.747 3.227 -0.377 4.091Zm16.514 -4.942c0 0.021 0.533 0.002 0.714 -0.033 1.568 -0.301 1.987 -0.102 2.58 -0.459 1.434 -0.864 -4.716 -1.343 -4.341 0.1 0.121 0.465 0.649 0.392 1.047 0.392Zm3.433 4.665c0.447 -0.335 -0.15 -0.628 -0.707 -0.66 -0.601 -0.035 -1.991 -0.036 -2.606 -0.012 -0.533 0.021 -0.765 0.425 -0.689 0.671 0.315 1.015 3.486 0.389 4.003 0.002l-0.001 -0.001Zm-0.843 -2.926c0.007 -0.254 -0.484 -0.482 -0.576 -0.502 -2.893 -0.64 -2.885 1.048 -1.899 1.111 0.57 0.037 2.46 -0.037 2.475 -0.609Z" stroke-width="1"></path><path id="vector_8" fill="#000000" d="M142.418 51.729c0.387 0.337 2.234 0.644 2.471 -0.533 0.08 -0.398 -0.242 -0.721 -0.49 -0.65 -0.334 0.095 -1.082 0.013 -1.394 -0.406 -0.738 -0.989 3.367 -1.448 3.759 -1.304 0.693 0.254 0.631 0.92 0.129 1.171 -0.382 0.19 -0.599 0.119 -0.56 0.461 0.094 0.822 0.224 1.512 -0.867 2.489 -0.295 0.265 -0.777 0.549 -1.749 0.582 -3.726 0.127 -5.035 -4.319 -2.596 -7.071 1.605 -1.811 4.668 -1.14 5.141 0.568 0.24 0.867 -0.966 1.253 -1.288 0.509 -0.448 -1.037 -2.734 -1.38 -3.537 1.036 -0.417 1.253 -0.013 2.283 0.982 3.148h-0.001Z" stroke-width="1"></path><path id="vector_9" fill="#000000" d="M154.347 52.687c0.012 0.997 -0.812 1.056 -1.142 0.584 -0.699 -0.999 -0.675 -1.082 -0.774 -1.353 -0.07 -0.194 -0.139 -0.338 -0.436 -0.307 -0.289 0.03 -0.952 0.018 -1.874 0.146 -0.373 0.052 -0.112 -0.048 -0.401 0.937 -0.038 0.131 -0.301 0.865 -0.451 0.945 -0.469 0.25 -1.115 -0.148 -1.068 -0.687 0.136 -1.587 0.897 -5.718 1.645 -7.124 0.352 -0.663 1.581 -0.884 2.235 0.724 0.008 0.02 1.858 4.776 2.266 6.133v0.002Zm-2.522 -2.553c-0.206 -0.662 -0.878 -2.609 -1.05 -2.775 -0.172 0.211 -0.607 2.911 -0.58 2.952 0.403 0.048 1.291 -0.097 1.63 -0.177Z" stroke-width="1"></path><path id="vector_10" fill="#000000" d="M160.431 45.596c0.263 0.184 0.313 0.476 0.25 0.777 -0.13 0.625 -0.964 0.318 -1.546 0.051 -1.521 -0.696 -2.576 1.639 -1.343 1.8 1.503 0.197 2.407 -0.186 3.578 1.388 0.722 0.97 0.345 2.755 -1.696 3.429 -1.829 0.604 -3.741 -0.348 -3.34 -1.292 0.189 -0.447 1.134 -0.182 1.571 -0.086 1.452 0.32 2.904 -0.599 1.936 -1.585 -0.685 -0.697 -1.329 -0.23 -2.473 -0.509 -3.33 -0.812 -0.564 -6.521 3.064 -3.974l-0.001 0.001Z" stroke-width="1"></path><path id="vector_11" fill="#000000" d="M149.023 89.409c-0.218 0.417 -0.683 0.225 -0.607 -0.203 0.668 -3.745 2.986 -12.824 3.724 -12.548 0.712 0.267 -3.065 12.651 -3.117 12.751Z" stroke-width="1"></path><path id="vector_12" fill="#000000" d="M192.874 113.375c-3.174 -9.027 -3.644 -6.066 -4.403 -13.462 -0.178 -1.733 0.704 -6.053 1.238 -7.825 1.334 -4.417 1.863 -5.2 2.326 -9.271 0.387 -3.404 0.059 -7.602 -1.827 -10.464 -0.44 -0.669 -0.904 -1.355 -1.532 -1.815 -0.627 -0.459 -1.198 -1.021 -1.952 -1.273 -1.077 -0.36 -2.617 -1.035 -5.02 -0.611 -2.184 0.385 -4.611 1.625 -5.815 2.657 -0.617 0.529 0.217 -2.962 -1.647 -2.889 -0.172 0.007 -0.57 -0.139 -0.746 -0.076 -0.351 0.126 -0.708 0.079 -1.062 0.08 -0.428 0.001 -0.461 -0.037 -0.467 -0.471 -0.094 -6.876 -0.484 -7.056 -8.492 -7.616 -2.369 -0.166 -3.15 -0.233 -5.395 -0.308 -0.738 -0.024 -0.613 0.047 -0.679 -1.436 -0.012 -0.269 0.057 -0.198 1.06 -0.324 3.406 -0.427 4.952 -0.244 6.363 -1.608 2.725 -2.633 2.881 -6.381 1.946 -10.054 -0.41 -1.612 -1.391 -2.831 -2.992 -3.281 -2.838 -0.797 -9.523 -0.883 -12.456 -0.83 -7.104 0.128 -13.735 -0.49 -16.03 3.812 -0.478 0.896 -0.833 1.819 -0.9 2.832 -0.067 1.013 -0.117 2.038 0.063 3.058 1.147 6.478 2.927 6.14 10.737 6.398 0.929 0.031 0.653 0.016 0.533 1.22 -0.045 0.455 -0.01 0.351 -1.667 0.498 -12.893 1.149 -15.886 0.669 -16.178 4.77 -0.052 0.737 -1.371 6.976 -1.799 40.735 3.124 0.675 5.099 1.371 6.614 2.68 0.297 -22.526 0.92 -42.748 2.176 -45.372 0.821 -1.714 5.25 -1.332 7.204 -1.597 3.618 -0.491 12.929 -0.472 12.952 -0.472 3.422 -0.002 7.327 0.361 7.841 0.384 1.239 0.055 5.99 0.132 7.189 1.173 2.061 1.789 2.196 54.327 2.196 54.348 0.048 12.614 0.027 21.156 -0.605 57.179 -0.006 0.338 -0.008 0.342 -0.336 0.349 -20.998 0.4 -37.337 0.127 -38.277 0.191 -0.599 0.041 -0.515 -0.08 -0.517 -0.248 -0.005 -0.391 -0.012 -1.178 -0.019 -2.31 -1.21 1.386 -2.659 2.585 -4.299 3.367 3.606 0.272 13.914 0.154 43.417 -0.083 0.394 -0.003 0.853 -0.053 0.842 -0.336 -0.007 -0.176 1.716 -59.501 0.339 -93.16 -0.179 -4.368 -0.549 -2.894 2.169 -3.58 0.665 -0.168 1.009 -1.362 0.958 -2.487 -0.063 -1.391 -0.406 -1.39 1.437 -2.613 0.775 -0.514 2.404 -1.829 4.907 -2.207 1.885 -0.284 2.832 0.261 4.327 1.122 0.978 0.562 1.812 2.044 2.253 3.144 1.298 3.232 0.757 8.457 0.082 11.018 -1.334 5.065 -4.104 10.097 -2.414 17.787 1.061 4.823 4.831 7.559 5.953 20.108 0.664 7.429 -0.257 25.058 -5.769 30.142 -1.87 1.725 -3.508 0.472 -4.585 -1.833 -2.782 -5.954 0.063 -20.045 0.709 -24.286 0.646 -4.241 -1.253 -6.346 -3.107 -6.691 -1.971 -0.366 -1.491 0.113 -2.344 -0.107 -0.312 -0.08 -0.554 0.123 -0.499 0.423 0.019 0.1 -0.102 0.042 0.677 1.702 0.061 0.13 0.24 0.156 0.217 0.398 -0.018 0.199 0.236 0.258 0.536 0.172 1.095 -0.314 2.229 0.531 2.262 1.856 0.059 2.36 -6.884 30.18 4.343 31.582 0.658 0.082 1.277 -0.146 1.862 -0.42 9.022 -4.24 9.9 -32.949 6.097 -43.766l0.005 -0.003Zm-46.588 -57.786c-6.397 -0.037 -8.075 -0.305 -8.721 -2.74 -0.845 -3.185 -1.354 -7.633 1.846 -8.424 4.958 -1.227 22.13 -1.278 24.775 0.17 2.184 1.195 2.549 8.026 0.88 9.831 -0.931 1.007 -3.793 1.249 -18.78 1.163Z" stroke-width="1"></path></g><g id="car"><path id="vector_13" fill="#000000" d="m145.415 137.496 -1.108 0.986c0.093 2.181 0.117 4.955 -0.055 6.788 -0.014 0.154 -0.659 0.226 -1.646 0.212 0.027 -1.707 -0.005 -3.705 -0.065 -5.421 -0.533 0.478 -0.891 0.801 -1.144 1.023 -0.694 0.612 -1.29 0.991 -1.773 0.224 -0.238 -0.377 -0.218 -0.698 0.248 -1.253 0.558 -0.665 1.489 -1.676 2.53 -2.772 -0.063 -0.908 -0.198 -1.928 -0.736 -2.666 0.528 -0.026 1.461 0.056 1.896 0.144 0.417 0.085 0.47 0.362 0.529 0.767l0.918 -0.941c-0.37 -1.058 -3.54 -0.921 -4.255 -0.827 -1.493 0.182 -2.267 0.506 -2.348 1.787 -0.077 0.567 -0.434 3.681 0.121 9.325 0.068 0.681 0.426 1.532 1.21 1.693 1.08 0.221 1.529 0.262 2.874 0.19 3.018 -0.16 2.922 -0.368 2.845 -5.997 -0.01 -0.805 0.007 -2.06 -0.041 -3.262Z" stroke-width="1"></path><path id="vector_14" fill="#000000" d="M148.925 155.38c-0.379 -0.627 1.385 -7.229 0.806 -15.475 -0.07 -0.991 -0.303 -3.777 -0.79 -5.523 -0.353 0.31 -1.012 0.893 -1.012 0.893 1.496 8.697 -0.113 16.706 -0.289 19.987 -0.004 0.069 -0.007 0.09 -0.007 0.09 -0.11 0.069 -0.187 -0.04 -2.243 0.154 -0.618 0.058 -3.637 0.351 -3.487 0.96 0.132 0.536 4.128 0.227 6.594 0.13 0.344 -0.019 0.322 0.173 0.457 0.587 0.163 0.506 0.291 0.905 0.314 2.339 0.172 10.026 -0.755 7.638 -13.766 8.261 0.033 -0.081 0.094 -0.205 0.156 -0.333 3.094 -6.292 2.947 -16.131 0.147 -20.865 -0.698 -1.18 -0.146 -0.153 -1.07 -3.83 -0.725 -2.877 -6.792 -4.793 -11.247 -1.355 -1.686 1.3 -2.881 3.398 -3.761 6.6 -2.311 8.411 -0.452 14.515 -2.212 18.662 -0.521 1.229 -0.419 1.217 -6.967 1.421 -23.934 0.75 -22.629 1.458 -22.25 0.669 2.877 -5.93 2.988 -14.131 0.713 -19.492 -0.315 -0.743 0.082 -1.44 -0.187 -2.724 -0.194 -0.935 -0.028 -2.923 -1.687 -4.606 -1.395 -1.417 -4.712 -2.595 -8.109 -1.988 -2.115 0.377 -4.974 1.572 -6.581 5.124 -3.246 7.172 -2.163 16.686 -2.837 21.464 -0.447 3.16 -0.644 2.871 -4.307 3.502 -8.852 1.532 -29.075 0.939 -36.697 0.118 -18.509 -1.993 -16.975 -0.428 -20.08599 -12.596 -1.01 -3.955 -0.694 -4.864 0.523 -8.027 1.04799 0.331 6.21799 1.705 6.82799 1.021 0.167 -0.19 0.45 -0.304 0.494 -0.659 0.196 -1.586 0.449 -6.146 0.165 -7.279 -0.227 -0.909 -0.573 -1.097 -3.083 -1.674 -1.127 -0.259 -1.608 -0.282 -2.179 -0.332 0.05 -0.125 0.098 -0.248 0.144 -0.37 0.707 -1.84 1.317 -3.429 10.954 -7.11 13.216 -5.047 13.484 -4.884 14.798 -6.424 18.354 -21.514 19.08 -21.821 66.897 -21.038 -3.07 0.712 -6.55 2.25 -9.175 4.474 -0.765 0.648 -0.595 0.505 -5.427 0.339 -19.333 -0.659 -19.423 -0.542 -27.908 -0.176 -7.066 0.304 -7.275 0.478 -8.168 1.23 -2.394 2.018 -10.321 12.292 -12.203 14.978 -0.914 1.305 -0.818 1.546 -1.071 1.465 -0.592 -0.193 -0.922 -0.102 -1.197 -0.417 -0.453 -0.521 -1.166 0.187 -0.831 0.705 0.917 1.415 10.324 1.701 12.003 1.808 16.841 1.061 22.69 0.187 23.35 0.509 -0.112 0.208 -0.993 0.835 -1.941 1.673 -7.147 6.318 -10.337 6.625 -10.5 7.629 -0.064 0.381 0.128 0.549 0.413 0.525 0.487 -0.037 3.897 -2.034 5.859 -3.503 12.383 -9.282 11.179 -11.161 22.327 -20.938 4.665 -4.092 7.479 -6.563 11.354 -8.058 9.482 -3.658 25.094 -2.137 30.26 0.792 3.212 1.822 6.081 11.144 7.613 15.305 1.535 4.174 2.903 5.06 6.049 7.331 0.813 0.587 1.412 1.073 1.856 1.537 0.312 -0.308 0.587 -0.575 0.811 -0.788 -1.192 -1.23 -2.567 -1.93 -4.443 -3.5 -3.291 -2.756 -3 -6.207 -6.975 -15.131 -2.508 -5.633 -4.566 -6.723 -11.417 -8.067 -4.515 -0.887 -8.389 -0.901 -15.421 -0.926 -22.278 -0.083 -19.124 -0.768 -35.881 0.183 -14.837 0.842 -21.048 2.934 -30.947 14.366 -1.244 -0.048 -8.634 -2.39 -9.778 3.499 -0.275 1.418 -0.049 2.56 0.711 3.593 0.486 0.661 0.993 0.677 1.887 0.87 -0.315 0.239 -0.009 0.115 -7.162 2.722 -11.117 4.051 -16.943 5.988 -17.833 10.438 -0.049 0.243 -0.049 0.215 -0.37899 0.277 -1.307 0.244 -1.121 0.798 -1.449 2.957 -0.344 2.272 -0.31 3.789 -0.141 5.492 -0.017 0.042 -0.057 0.12 -0.113 0.231 -0.425 0.849 -1.719 3.431 -1.276 6.131 0.462 2.814 2.202 12.109 5.19099 13.538 1.517 0.725 2.902 1.27 6.923 1.679 0.443 0.043 -0.125 0.409 1.62 2.714 1.214 1.602 2.658 2.304 4.741 2.976 3.975 1.281 6.44 1.322 9.131 0.976 3.392 -0.437 6.769 -1.311 8.511 -4.738 0.143 -0.281 0.09 -0.108 12.623 -0.203 0.507 -0.004 0.175 0.016 1.557 2.294 1.997 3.299 4.674 3.57 8.379 3.945 2.391 0.243 4.652 0.062 7.218 0.042 12.521 -0.106 14.024 -8.181 14.849 -8.225 3.616 -0.195 18.177 -0.827 18.296 -0.786 0.054 0.075 0.011 0.413 0.433 1.045 3.22 4.828 4.386 5.375 8.907 6.022 2.996 0.429 3.351 0.41 9.279 0.089 3.974 -0.215 7.829 -3.076 10.312 -7.653 0.028 -0.052 0.034 -0.07 0.034 -0.07 0.482 0.066 0.724 0.142 1.671 0.115 8.49 -0.243 12.778 0.522 13.588 -3.365 0.449 -2.15 1.058 -10.139 -1.26 -10.234l0.004 0.002Zm-74.128 -26.228c-0.185 0.195 -0.313 0.257 -1.792 0.275 -17.348 0.211 -30.695 -0.742 -31.778 -1.365 5.392 -7.544 12.105 -15.291 12.941 -15.954 0.505 -0.4 7.302 -0.777 17.738 -0.986 5.033 -0.101 17.764 0.36 20.99 0.531 -0.875 0.768 -3.427 2.016 -18.099 17.499ZM33.758 123.4c0.248 -3.851 3.944 -3.962 7.744 -3.29 -0.507 0.711 -0.763 0.689 -5.016 5.645 -0.291 0.34 -0.237 0.062 -1.175 0.016 -1.174 -0.058 -1.53 -1.526 -1.553 -2.371ZM9.40501 147.603c0.26 -3.838 0 -1.974 0.495 -5.79 0.018 -0.134 0.039 -0.164 0.039 -0.164s0.03 -0.018 0.16399 -0.008c1.854 0.112 3.409 0.553 5.225 0.985 0.417 0.412 0.082 6.598 -0.026 6.985 0 0 -0.034 0.003 -0.093 -0.006 -2.35 -0.372 -3.678 -0.494 -5.74299 -1.176 -0.121 -0.04 -0.117 0.005 -0.061 -0.826ZM80.195 175.954c-4.899 2.212 -9.343 -1.022 -11.199 -5.44 -0.038 -0.09 -0.035 -0.147 0.089 -0.209 3.544 -1.771 0.422 -12.42 3.855 -23.076 0.219 -0.68 1.806 -2.347 4.189 -3.247 7.554 -2.848 12.675 5.556 12.591 13.713 -0.084 8.127 -4.09 15.806 -9.526 18.258l0.001 0.001Zm40.032 -5.063c-0.538 -0.743 -0.951 -1.579 -1.351 -2.386 -0.442 -0.899 -0.498 -0.848 -0.248 -1.404 1.781 -3.977 0.094 -11.737 2.256 -18.498 0.44 -1.377 5.013 -7.307 10.094 -5.008 2.802 1.267 5.026 4.647 5.804 8.822 2.556 13.719 -9.283 28.505 -16.555 18.474Z" stroke-width="1"></path><path id="vector_15" fill="#000000" d="M130.732 116.57c-1.265 -3.211 -3.955 -5.558 -7.781 -6.787 -1.907 -0.613 -4.782 -0.812 -6.779 -0.91 -5.273 -0.25 -12.91 0.794 -17.203 3.69 -3.954 2.666 -11.724 9.781 -16.621 17.255 -1.411 2.151 -0.562 2.4 2.011 2.4 -0.761 1.034 -1.045 1.434 -0.984 2.075 0.002 0.652 0.104 1.317 0.795 1.749 0.532 0.333 1.177 0.541 1.835 0.541 2.913 0 1.845 -3.155 8.415 -3.322 0.346 -0.009 0.619 -0.016 0.822 -0.045 7.675 -1.103 0.369 -1.104 9.142 -1.188 2.783 -0.026 12.506 -0.615 28.118 -1.702 0.689 -0.048 1.453 0.003 1.799 -0.586 0.097 -0.165 0.178 -0.434 0.013 -0.776 -0.184 -0.377 -0.169 -3.73 -3.58 -12.394h-0.002Zm-32.081 14.613c-0.897 0.429 -1.244 0.471 -1.936 0.554 -1.502 0.182 -1.772 0.303 -2.846 0.276 -2.217 -0.061 -4.703 0.705 -6.414 2.529 -0.433 0.459 -0.775 0.824 -1.548 0.747 -2.62 -0.25 -0.795 -2.058 0.978 -4.578 2.276 -3.236 3.418 -4.861 7.704 -5.387 3.02 -0.37 5.526 -0.096 5.39 2.917 -0.079 1.754 -0.762 2.672 -1.328 2.943v-0.001Zm13.645 -0.725c-0.172 0.045 -11.804 0.723 -11.709 0.502 0.742 -1.613 0.995 -2.703 0.43 -4.53 -1.02 -3.289 -6.313 -2.895 -9.478 -1.689 -2.623 1.001 -3.935 2.798 -6.215 6.152 -0.253 0.372 -0.258 0.302 -2.39 0.292 -0.261 -0.002 -0.05 -0.21 1.348 -2.091 2.693 -3.625 2.548 -3.431 4.275 -5.376 2.015 -2.269 8.808 -8.875 12.266 -10.833 1.534 -0.867 2.978 -1.438 6.204 -1.967 0.028 -0.005 3.094 -0.48 4.334 -0.535 0.607 1.077 0.994 19.951 0.936 20.077l-0.001 -0.002Zm3.447 -1.63c-0.026 0.354 -0.573 0.367 -0.614 0.014 -0.498 -4.057 -0.597 -9.138 -0.893 -13.234 0.037 -0.539 -0.709 -5.847 0.519 -4.482 0.727 2.888 0.652 5.877 0.902 8.829 0.068 2.614 0.349 6.293 0.086 8.873Zm2.929 1.302c-0.428 -0.8 0.094 -9.935 -1.571 -19.695 -0.032 -0.184 -0.026 -0.24 -0.038 -0.242 0.047 -0.012 0.72 0.053 0.769 0.057 2.303 0.198 5.456 0.469 8.074 2.32 2.953 2.087 3.741 4.438 5.05 8.331 1.154 3.431 1.218 4.097 2.076 8.155 -0.845 0.324 -9.026 0.59 -14.36 1.073v0.001Z" stroke-width="1"></path><path id="vector_16" fill="#000000" d="M55.328 141.964c-5.31 0.377 -9.248 0.167 -12.318 1.233 -1.167 0.407 -1.402 1.169 -1.749 2.594 -0.411 1.688 -0.724 4.191 -0.73 4.851 -0.003 0.447 -0.413 1.486 0.83 1.833 2.056 0.575 9.195 0.405 11.303 0.333 1.093 -0.037 1.615 0.093 3.417 -0.607 1.797 -0.7 4.074 -8.492 4.17 -8.824 0.136 -0.469 0.103 -0.82 -0.103 -1.073 -0.523 -0.648 -2.049 -0.539 -4.819 -0.341l-0.001 0.001Zm3.575 1.413c-0.316 1.582 -2.105 5.831 -3.039 7.217 -0.596 0.883 -1.899 0.895 -3.049 0.906 -3.243 0.02 -3.115 0.273 -9.737 -0.102 -0.737 -0.042 -1.434 -0.082 -1.514 -0.184 -0.019 -0.024 0.003 -0.135 0.024 -0.238 0.709 -3.577 0.888 -6.269 1.321 -6.477 2.265 -1.079 7.298 -0.966 13.385 -1.325 2.737 -0.162 2.67 -0.111 2.609 0.203Z" stroke-width="1"></path><path id="vector_17" fill="#000000" d="M37.055 161.476c-20.342 -2.261 -20.136 -3.093 -20.121 -0.154 -0.009 0.034 -0.004 0.08 0.021 0.117 0.006 1.687 0.181 3.077 0.216 3.342 0.211 1.573 1.002 1.679 5.39 2.269 1.967 0.252 10.89 1.237 13.346 1.209 0.363 -0.005 1.241 -0.145 1.204 -0.542 -0.063 -0.703 -2.182 -0.512 -4.479 -0.678 -0.113 -0.008 -11.578 -1.18 -13.915 -1.854 -0.233 -0.067 -0.32 -0.178 -0.369 -0.474 -0.06 -0.362 -0.428 -4.113 -0.269 -4.253 0.381 -0.328 3.487 0.766 18.674 2.019 0.196 0.017 0.236 0.066 0.246 0.166 0.282 2.607 0.217 3.008 0.457 3.812 0.18 0.604 0.844 0.594 0.989 -0.042 0.036 -0.149 -0.009 -0.855 -0.023 -1.068 -0.244 -3.534 -0.32 -3.75 -1.366 -3.867l-0.001 -0.002Z" stroke-width="1"></path><path id="vector_18" fill="#000000" d="M51.09 159.048c0.381 0.008 0.321 -0.061 2.835 -0.08 1.283 -0.01 1.99 -0.015 2.737 -0.345 0.233 -0.103 0.479 -0.23 0.435 -0.433 -0.219 -1.007 -14.35 0.842 -34.227 -1.498 -14.45699 -1.705 -13.94799 -3.072 -14.35499 -2.335 -1.037 1.875 12.40999 3.278 14.91899 3.551 5.994 0.652 11.683 1.157 17.899 1.157 4.535 0 7.029 -0.283 9.756 -0.018l0.001 0.001Z" stroke-width="1"></path><path id="vector_19" fill="#000000" d="M45.852 162.044c-0.687 0.013 -0.856 0.885 -0.083 0.993 1.025 0.21 4.938 0.074 6.201 0.206 -0.283 0.217 -0.567 0.452 -0.787 0.789 -0.601 0.928 -0.552 2.141 0.117 2.885 3.165 3.517 8.983 1.225 7.275 -1.734 -2.311 -4 -7.201 -3.231 -12.723 -3.139Zm10.536 2.5c0.896 0.821 1.256 1.314 1.239 1.702 -0.01 0.238 -0.167 0.466 -0.495 0.717 -1.915 1.468 -6.109 -0.444 -4.915 -2.144 1.05 -1.494 2.872 -1.466 4.171 -0.275Z" stroke-width="1"></path><path id="vector_20" fill="#000000" d="M113.728 159.181c-18.662 0.246 -21.397 0.634 -21.696 0.945 -0.051 0.053 -0.06 0.108 -0.059 0.146 0.013 0.477 0.349 0.465 2.406 0.407 11.223 -0.305 17.792 -0.042 19.878 -0.693 0.482 -0.151 0.336 -0.8 -0.529 -0.806v0.001Z" stroke-width="1"></path><path id="vector_21" fill="#000000" d="M28.544 140.789c0.709 0.508 2.332 0.508 2.979 0.075 0.62 -0.415 0.406 -1.136 -0.378 -1.43 -1.127 -0.417 -1.832 -0.209 -2.297 -0.022 -0.614 0.245 -0.805 1.018 -0.304 1.377Z" stroke-width="1"></path><path id="vector_22" fill="#000000" d="M70.231 115.112c-0.002 -0.055 -0.04 -0.116 -0.088 -0.141 -0.093 -0.049 -0.186 -0.022 -0.547 0.222 -1.494 1.01 -13.561 10.354 -10.982 10.354 0.217 0 11.633 -9.864 11.618 -10.434l-0.001 -0.001Z" stroke-width="1"></path><path id="vector_23" fill="#000000" d="M64.235 115.924c0.289 -0.261 0.21 -0.417 0.163 -0.471 -0.276 -0.322 -1.974 0.794 -5.041 3.318 -1.96 1.613 -2.155 1.837 -3.124 2.815 -0.469 0.473 -0.339 0.757 -0.181 0.987 0.016 0.022 0.03 0.043 0.042 0.064 0.036 0.063 0.11 0.087 0.169 0.069 0.664 -0.166 7.485 -6.344 7.972 -6.783v0.001Z" stroke-width="1"></path><path id="vector_24" fill="#000000" d="M73.15 117.072c-0.148 -0.064 -0.369 -0.155 -7.49 5.874 -0.246 0.209 -0.443 0.466 -0.657 0.756 -0.186 0.256 -0.015 0.605 0.337 0.611 0.488 0.009 7.933 -6.489 7.909 -7.094 -0.002 -0.057 -0.047 -0.125 -0.099 -0.147Z" stroke-width="1"></path><path id="vector_25" fill="#000000" d="M76.134 169.095c2.156 1.296 4.39 0.534 6.132 -1.348 5.355 -5.176 4.29 -20.619 -3.171 -19.285 -6.676 1.185 -9.191 16.887 -2.961 20.632v0.001Zm7.065 -17.24c3.643 6.427 -0.691 18.088 -5.696 16.619 -1.872 -0.552 -3.25 -2.909 -3.688 -6.304 -1.113 -8.631 5.557 -17.064 9.384 -10.315Z" stroke-width="1"></path><path id="vector_26" fill="#000000" d="M125.338 167.525c1.467 0.688 2.943 0.245 4.153 -0.817 5.947 -5.223 3.929 -20.877 -2.823 -18.465 -5.798 2.069 -7.171 16.539 -1.33 19.283v-0.001Zm-1.659 -3.596c-3.012 -6.696 1.353 -16.459 5.315 -14.489 1.764 0.876 3.041 4.007 3.037 7.445 -0.008 7.187 -5.418 13.568 -8.352 7.044Z" stroke-width="1"></path><path id="vector_27" fill="#000000" d="M10.231 145.208c-0.184 0.677 0.234 0.965 0.547 0.657 0.645 -0.631 0.928 -1.107 2.076 -0.605 0.304 0.133 0.494 0.385 0.564 0.747 0.111 0.581 -0.123 1.247 -0.403 1.531 -0.413 0.416 -0.07 1.133 0.459 0.885 0.496 -0.235 0.913 -1.331 0.987 -1.828 0.425 -2.811 -3.708 -3.322 -4.23 -1.387Z" stroke-width="1"></path><path id="vector_28" fill="#000000" d="M105.886 115.97c-0.012 -0.072 -0.061 -0.128 -0.131 -0.152 -0.518 -0.164 -4.056 2.324 -6.308 4.455 -0.737 0.698 -0.279 1.501 0.744 0.716 5.791 -4.448 5.719 -4.878 5.695 -5.019Z" stroke-width="1"></path><path id="vector_29" fill="#000000" d="M105.763 118.292c-0.284 0 -3.365 1.742 -3.996 2.779 -0.119 0.21 0.026 0.576 0.471 0.539 0.245 -0.022 3.766 -2.636 3.746 -3.128 -0.004 -0.095 -0.073 -0.19 -0.221 -0.19Z" stroke-width="1"></path><path id="vector_30" fill="#000000" d="M127.771 118.798c-0.727 -0.091 -4.843 3.53 -5.729 4.775 -0.227 0.319 -0.294 0.527 -0.218 0.675 0.035 0.067 0.113 0.148 0.289 0.149 0.583 0.002 5.703 -5.058 5.784 -5.418 0.019 -0.084 -0.036 -0.17 -0.125 -0.182l-0.001 0.001Z" stroke-width="1"></path><path id="vector_31" fill="#000000" d="M126.678 116.316c0.029 -0.262 -0.301 -0.322 -0.465 -0.215 -0.528 0.336 -5.419 4.943 -5.751 5.417 -0.076 0.109 -0.081 0.253 -0.076 0.379 0.005 0.119 0.1 0.176 0.176 0.268 0.049 0.06 0.136 0.071 0.199 0.029 0.517 -0.347 5.828 -5.072 5.917 -5.878Z" stroke-width="1"></path><path id="vector_32" fill="#000000" d="M52.996 144.858c-1.85 0.094 -3.322 1.964 -2.908 3.731 0.187 0.795 0.721 1.476 1.396 1.776 0.846 0.379 1.844 0.685 2.39 -0.07 0.155 -0.216 0.037 -0.437 -0.209 -0.44 -0.728 -0.014 -1.526 -0.394 -1.987 -0.943 -1.202 -1.432 0.62 -3.506 2.471 -2.476 0.287 0.161 0.267 0.928 0.663 1.023 0.204 0.049 0.396 -0.107 0.524 -0.229 0.255 -0.242 0.285 -1.104 -0.201 -1.582 -0.553 -0.544 -1.333 -0.836 -2.138 -0.792l-0.001 0.002Z" stroke-width="1"></path><path id="vector_33" fill="#000000" d="M47.216 146.439c-2.694 -0.16 -3.359 3.226 -1.63 3.964 0.191 0.082 0.346 0.027 0.519 -0.06 0.102 -0.05 0.194 -0.067 0.219 -0.18 0.004 -0.017 0.035 -0.172 -0.056 -0.254 -0.153 -0.137 -0.425 -0.718 -0.414 -1.258 0.006 -0.277 0.088 -0.481 0.243 -0.608 0.203 -0.166 0.897 -0.67 1.332 -0.165 0.393 0.453 0.897 0.299 0.974 -0.091 0.144 -0.718 -0.535 -1.309 -1.187 -1.348Z" stroke-width="1"></path><path id="vector_34" fill="#000000" d="M78.21 161.528c0.734 -0.097 1.57 -1.205 1.668 -3.407 0.009 -0.213 -0.201 -0.599 -0.45 -0.556 -0.481 0.078 -0.67 1.799 -1.305 2.706 -0.539 -1.042 -0.123 -2.734 0.39 -3.208 0.133 0.1 0.236 0.219 0.333 0.22 0.17 0 0.327 0.014 0.432 -0.115 0.271 -0.331 -0.416 -1.943 -1.524 -0.79 -1.53 1.592 -1.033 5.357 0.456 5.15Z" stroke-width="1"></path><path id="vector_35" fill="#000000" d="M128.246 156.533c-0.021 -0.351 0.1 -0.696 -0.252 -0.744 -0.469 -0.072 -0.257 0.49 -1.123 2.273 -0.123 -0.241 -0.27 -1.02 0.029 -2.076 0.054 -0.194 0.09 -0.299 0.244 -0.373 0.617 -0.292 0.012 -1.259 -0.573 -0.932 -0.684 0.385 -1.254 2.393 -0.653 3.85 0.607 1.471 2.265 1.17 2.328 -1.998Z" stroke-width="1"></path><path id="vector_36" fill="#000000" d="M21.245 151.309c2.98 0.295 6.504 0.782 11.354 0.782 2.859 0 2.053 -0.102 4.132 -0.202 2.183 -0.106 1.782 -0.24 2.702 -5.57 0.697 -4.015 0.205 -2.418 -6.603 -3.05 -1.74 -0.163 -13.958 -0.704 -14.023 -0.704 -1.54 0.009 -1.019 2.46 -1.138 7.423 -0.025 0.963 0.666 1.032 3.576 1.321Zm-1.807 -6.588c0.348 -0.062 12.236 1.22 17.548 1.006 0.34 -0.013 0.456 -0.019 0.599 0.046 0.268 0.12 0.416 0.315 0.396 0.521 -0.024 0.241 -0.291 0.391 -0.428 0.391 -1.301 0.304 -15.656 -0.494 -18.116 -1.176 -0.434 -0.12 -0.447 -0.732 0.001 -0.788Zm-0.395 2.984c0.125 -0.028 0.841 0.051 2.858 0.279 4.863 0.549 6.783 0.761 13.598 0.918 1.56 0.036 1.93 0.044 2.087 0.226 1.464 1.708 -17.54 -0.014 -18.705 -0.792 -0.234 -0.158 -0.194 -0.555 0.161 -0.63l0.001 -0.001Z" stroke-width="1"></path></g><g id="elements"><path id="vector_37" fill="#000000" d="M128.312 43.264c-1.85 -0.705 -14.354 -8.747 -13.907 -9.002 0.201 -0.115 0.238 -0.018 0.312 0.023 9.534 5.238 16.046 8.516 13.596 8.98l-0.001 -0.001Z" stroke-width="1"></path><path id="vector_38" fill="#000000" d="M111.835 53.368c5.012 -0.491 14.063 -0.872 13.481 -0.847 1.165 -0.051 1.052 1.079 -0.556 1.142 -14.036 0.55 -13.969 -0.193 -12.925 -0.295Z" stroke-width="1"></path><path id="vector_39" fill="#000000" d="M153.789 21.665c0.702 -0.873 -1.534 12.859 -1.991 13.298 -0.263 0.252 -0.627 0.18 -0.726 -0.162 -0.313 -1.085 2.258 -12.566 2.717 -13.136Z" stroke-width="1"></path><path id="vector_40" fill="#000000" d="M163.781 35.582c1.401 -1.337 3.496 -3.353 4.778 -4.39 7.499 -6.068 3.965 -2.464 -2.783 4.2 -0.459 0.453 -0.964 0.862 -1.462 1.273 -0.656 0.542 -1.546 -0.117 -0.533 -1.083Z" stroke-width="1"></path><path id="vector_41" fill="#000000" d="M173.526 45.366c-0.262 0 -0.573 0.002 -0.634 -0.258 -0.048 -0.203 -0.051 -0.426 0.15 -0.556 1.147 -0.738 9.453 -2.67 10.025 -2.656 2.282 0.057 -7.077 3.031 -9.542 3.47h0.001Z" stroke-width="1"></path><path id="vector_42" fill="#000000" d="M136.295 34.852c0.014 0.593 -0.527 0.751 -0.773 0.349 -0.49 -0.802 -0.159 -0.052 -3.008 -8.354 -0.941 -2.742 -0.964 -2.494 -0.876 -2.764 0.997 0.523 4.159 9.167 4.657 10.769Z" stroke-width="1"></path></g><g id="lines 2"><path id="vector_43" fill="#000000" d="M161.797 143.564c-0.145 -0.042 -0.322 -0.039 -0.5 0.213 -0.275 0.493 -1.393 9.602 -0.609 9.67 0.058 0 0.146 -0.029 0.171 -0.103 0.467 -1.538 1.183 -8.033 1.279 -9.345 0.014 -0.183 -0.136 -0.373 -0.341 -0.435Z" stroke-width="1"></path><path id="vector_44" fill="#000000" d="M166.025 143.247c-0.117 -0.097 -0.518 -0.401 -0.854 0.316 -0.091 0.162 0.395 0.941 1.546 3.228 1.777 3.53 1.885 3.83 2.319 3.55 0.341 -0.219 -2.04 -6.291 -3.011 -7.094Z" stroke-width="1"></path><path id="vector_45" fill="#000000" d="M156.771 142.847c-0.192 -0.052 -0.375 0.024 -0.49 0.201 -0.937 1.435 -3.262 7.029 -3.361 7.367 -0.067 0.226 0.23 0.36 0.385 0.25 0.582 -0.425 3.247 -5.729 3.821 -7.319 0.06 -0.105 -0.068 -0.423 -0.354 -0.5l-0.001 0.001Z" stroke-width="1"></path></g><path id="vector_46" fill="#000000" d="M177.828 122.717c-0.123 -0.381 -0.3 -1.69 -1.462 -1.969 -0.402 -0.096 -0.865 -0.123 -1.261 -0.025 -1.792 0.447 -3.604 0.814 -5.366 1.376 -1.085 0.347 -0.779 0.23 -1.472 -0.355 -1.304 -1.101 -1.458 -0.802 -7.413 0.855 -1.444 0.402 -1.333 -2.399 -3.927 -1.156 -3.342 1.6 -4.021 2.075 -5.321 3.088 -1.066 0.83 -0.925 1.696 -0.966 2.295 -0.072 1.058 -0.623 1.193 -1.048 1.571 -1.698 1.509 -2.034 1.802 -2.009 2.233 0.004 0.061 0.045 0.174 0.054 0.294 -1.548 1.59 -7.776 7.984 -8.27 8.529 -0.476 0.524 -0.609 1.21 -0.358 1.835 0.11 0.272 0.634 0.894 0.724 0.986 0.528 0.541 1.151 0.3 1.728 -0.173 0.815 -0.667 6.908 -6.029 8.589 -7.509 0.241 0.153 0.516 0.663 1.388 0.356 1.682 -0.593 1.741 -0.802 2.049 -0.416 1.751 2.196 3.035 4.645 4.204 4.796 1.679 0.217 9.123 -2.03 11.728 -3.431 0.623 -0.334 0.833 -1.058 0.814 -1.517 -0.076 -1.977 -0.078 -3.658 -0.195 -5.36 -0.022 -0.338 -0.078 -0.201 4.802 -1.886 2.459 -0.849 3.042 -0.98 3.3 -1.585 0.479 -1.122 0.04 -1.749 -0.31 -2.832h-0.002Zm-37.001 18.611c-0.296 0.242 -0.406 0.255 -0.378 0.248 -0.098 -0.1 -0.459 -0.56 -0.513 -0.662 -0.062 -0.155 -0.124 -0.464 0.172 -0.79 0.455 -0.503 6.187 -6.389 8.021 -8.272l1.318 1.938c-1.574 1.386 -7.819 6.882 -8.62 7.538Zm24.866 -9.763c0 1.29 0.117 1.643 -0.683 1.827 -1.02 0.234 -2.032 0.519 -3.064 0.681 -2.289 0.363 -3.197 0.976 -3.549 0.34 -1.421 -2.555 -1.503 -2.485 -1.015 -2.766 0.736 -0.424 0.937 -0.457 4.938 -1.802 0.574 -0.193 0.182 0.223 0.106 1.956 -0.029 0.63 0.658 0.599 0.857 0.252 0.56 -0.976 0.572 -1.37 0.91 -2.572 0.101 -0.355 0.228 -0.259 0.595 -0.351 0.443 -0.111 0.757 -0.043 0.82 0.706 0.146 1.725 0.173 1.722 0.085 1.729Z" stroke-width="1"></path></g></svg>