<svg viewBox="0 0 400 400" xmlns="http://www.w3.org/2000/svg" id="Enter-Password-4--Streamline-Brooklyn.svg" height="400" width="400"><path d="M219.64 101.23c-2.346 -4.882 -8.28 -9.904 -12.864 -12.864a76.172 76.172 0 0 1 -8.7 -5.674c-6.132 -4.6 -6.84 -11.412 -8.7 -19.292 -3.684 -15.6 -17.892 -25.348 -34.048 -25.348 -13.708 0 -25.102 7.868 -28 14a8.738 8.738 0 0 0 0.756 9.458 13.2 13.2 0 0 0 7.984 5.062 50.336 50.336 0 0 1 -11.766 13.096c-7.13 5.866 -21.4 11.212 -23.454 20.43 -2.476 6.6 6.446 19.06 10.6 24.588 0 0.378 34.8 5.298 34.8 4.54 0.756 -5.674 2.27 -11.348 3.026 -17.024 0 -0.756 -14.878 1.132 -14.376 -11.726 0.498 -12.702 6.518 -27.17 9.516 -33.246C154.468 66.8 162.388 63.87 171.6 60c-1.38 20.704 11.502 25.88 12.106 38.588 0.378 7.944 -6.816 11.72 -11.728 17.024 -4.546 4.912 -8.322 11.348 -8.322 18.536 0 12.106 15.888 21.186 17.024 20.8 32.52 -13.24 40.426 -50.668 38.96 -53.718Zm-88.524 -18.538c-4.472 10.62 -18.182 11.824 -20.8 22.32a10.8 10.8 0 0 0 0 4.918 22.74 22.74 0 0 0 2.27 4.162c0.378 0.756 -0.378 1.514 -1.134 1.514 -3.4 -0.378 -4.918 -5.298 -4.918 -8.324 0 -13.54 17.082 -15.4 23.454 -24.968 0.37 -0.756 1.506 0 1.128 0.378Zm42 -29.128a32.08 32.08 0 0 1 -10.6 6.436 58.218 58.218 0 0 1 -10.6 3.026c-6.734 1.422 -16.578 2.024 -19.672 -4.16a5.212 5.212 0 0 1 -0.378 -4.162 4.238 4.238 0 0 1 2.648 -3.026c0.378 -0.378 1.136 0.378 0.756 0.756 -1.89 0.378 -1.89 2.648 -1.512 4.162A8.282 8.282 0 0 0 137.546 60c3.616 1.446 9.89 0.378 12.486 0.378 10.768 -2.154 11.636 -2.888 21.94 -8.322 0.75 -0.4 1.892 0.744 1.136 1.508ZM189 110.688c-8.13 9.716 -21.668 16.628 -9.836 35.56 0.378 0.758 -0.762 1.898 -1.134 1.514 -11.164 -11.544 -4.918 -24.212 0 -29.886 5.674 -5.676 12.862 -10.6 14.754 -18.16 0 -0.756 1.134 -0.378 1.134 0.38a23.674 23.674 0 0 1 -4.918 10.592Z" fill="#678e98" stroke-width="1"></path><path d="M314.6 75.884c-4.236 -8.666 -18.818 -7.852 -26.86 0.378 -9.72 9.95 -29.128 13.618 -32.912 26.102 0 12.484 -3.882 88.972 8.322 38.588 5.034 -20.78 18.538 -26.104 18.538 -38.588 -9.458 -1.512 3.782 -13.24 4.162 -4.54 1.89 3.028 4.16 -3.4 5.674 -8.7 6.426 1.134 29.388 -0.324 23.076 -13.24Zm-21.942 9.078a1.318 1.318 0 0 1 0.38 -0.756 2.272 2.272 0 0 1 1.512 -0.378 17.488 17.488 0 0 0 11.35 -2.648 2.87 2.87 0 0 1 1.512 -0.758c0.758 0 1.514 0.38 1.514 1.136 -0.378 1.134 -1.892 1.892 -2.648 2.27a17.182 17.182 0 0 1 -13.626 1.134Z" fill="#678e98" stroke-width="1"></path><path d="M289.626 102.742c-2.648 1.986 -2.928 7 -1.134 8.324 0.872 0.64 1.512 0.184 1.512 -0.378 0 -2.126 -0.268 -5.6 0.758 -6.81 0.688 -0.818 -0.38 -1.514 -1.136 -1.136Z" fill="#153640" stroke-width="1"></path><path d="M350.156 137.926c1.238 2.476 6.964 1.668 5.296 0 -0.932 -0.932 -2.932 0.054 -3.578 -0.548a3.664 3.664 0 0 1 -0.2 -3.236 14.094 14.094 0 0 1 1.514 -1.134c2.566 -1.486 -5.502 -2.49 -3.032 4.918Z" fill="#153640" stroke-width="1"></path><path d="M305.516 285.466a7.044 7.044 0 0 0 -3.784 4.918c0 3.348 7.126 2.914 9.458 0 0.378 -0.378 0 -1.136 -0.378 -0.758 -5.026 1.676 -6.044 1.898 -7.188 1.136 -1.514 -0.756 1.51 -4.168 2.27 -4.54 0.796 -0.39 0.398 -1.054 -0.378 -0.756Z" fill="#153640" stroke-width="1"></path><path d="M304.758 295.302c6.58 1.644 10.284 -4.764 5.296 -2.27a8.324 8.324 0 0 1 -5.296 0.756c-0.758 0 -0.758 1.136 0 1.514Z" fill="#153640" stroke-width="1"></path><path d="M334.644 261.632a17.706 17.706 0 0 1 6.054 0.756c0.378 0 0.756 -0.378 0.378 -0.756 -1.418 -1.418 -5.062 -1.338 -6.81 -0.756 -0.402 0 -0.74 0.756 0.378 0.756Z" fill="#153640" stroke-width="1"></path><path d="M258.6 14.976c-44.494 -8.214 -112.956 -4.76 -158.134 0 -14.748 1.554 -30.264 3.782 -45.4 5.674a0.772 0.772 0 0 0 -0.212 0.154 1.142 1.142 0 0 0 -0.544 0.982c13 93.912 13.168 147.032 16.644 189.91 0 0.756 1.526 0.756 1.514 0 -0.584 -38.542 -7.966 -136.6 -16.482 -189.646 63.67 -7.818 139.338 -14.17 202.24 -5.182a0.97 0.97 0 0 0 0.374 -1.892Z" fill="#153640" stroke-width="1"></path><path d="M115.984 389.5a301.446 301.446 0 0 0 -6.054 -32.912c-8.03 -36.4 -33.046 -94.758 -55.61 -125.22 -0.758 -0.758 -1.892 0 -1.514 0.756 31.104 51.842 50.048 93.032 62.042 157 0.378 1.132 1.136 1.132 1.136 0.376Z" fill="#153640" stroke-width="1"></path><path d="M108.038 370.2a111.776 111.776 0 0 1 -34.426 -14.376c-7.356 -5.254 -10.112 -8.904 -6.052 -17.024 1.514 -3.026 3.026 -6.43 2.27 -9.836 -0.378 -3.4 -3.026 -6.43 -5.296 -8.7 -14.66 -14.66 -21.932 -19.05 -26.482 -27.238 -4.6 -10.372 4.124 -12.588 5.674 -19.672 1.748 -7.978 -3.12 -15.078 -6.8 -21.564a202.486 202.486 0 0 1 -10.972 -23.076 166.892 166.892 0 0 1 -7.574 -23.828c-1.4 -5.702 -4.47 -15.678 3.784 -18.538a14.482 14.482 0 0 1 9.456 0.758 50.29 50.29 0 0 1 9.836 4.54c13.15 8.218 21.646 21.74 28.374 35.56 1.852 3.8 3.88 7.524 5.674 11.728 0.8 1.874 1.892 3.782 2.648 5.674a29.84 29.84 0 0 0 2.648 4.918c2.618 3.428 6.81 1.514 10.6 0.756 3.4 -0.378 7.58 -0.4 10.6 1.892 7.368 5.6 4.918 17.8 4.918 43.506 0 7.908 6 5.294 12.862 14.754 9.37 12.928 7.454 29.476 3.4 43.884a121.922 121.922 0 0 1 -3.784 12.106c-0.378 1.512 1.892 2.27 2.27 0.756 2.68 -7.372 6.156 -18.262 6.8 -26.104 2.61 -17.4 -3.6 -31.638 -14 -39.344 -1.52 -1.126 -3.4 -1.512 -4.54 -3.026 -1.512 -1.514 -1.134 -3.782 -1.134 -5.674 0 -19.156 1.902 -27.9 -0.758 -36.318 -2.8 -7.448 -7.77 -10.686 -16.266 -9.836 -1.892 0.378 -3.784 0.756 -6.054 1.136a3.234 3.234 0 0 1 -2.648 0c-0.872 -0.436 -0.8 -0.908 -7.188 -14 -7.07 -14.488 -14.382 -29.4 -27.238 -40.1 -7.692 -6.4 -19.724 -13.742 -29.13 -10.216a10.4 10.4 0 0 0 -6.052 7.566 23.954 23.954 0 0 0 0.756 10.6c5.148 20.8 9.4 30.524 18.538 48.8 1.892 3.782 4.162 7.188 6.052 10.97 5.482 13.706 -1.76 14.762 -4.54 21.186 -5.422 12.534 13.072 23.664 27.24 37.83 2.648 2.648 5.296 5.674 5.296 9.458 0 3.4 -2.704 6.788 -3.784 9.836 -2.746 7.76 1.8 12.694 8.702 17.024a91.228 91.228 0 0 0 22.698 10.6 119.742 119.742 0 0 0 12.106 3.026c1.896 1.126 2.652 -0.394 1.516 -0.394Z" fill="#153640" stroke-width="1"></path><path d="M106.904 193.916c28.752 0 57.89 -0.452 86.632 -1.514a245.292 245.292 0 0 0 24.6 -1.136 0.762 0.762 0 1 0 0 -1.512c-13.028 -0.686 -11.984 0.762 -111.6 3.026 -0.388 0.008 -0.388 1.136 0.368 1.136Z" fill="#153640" stroke-width="1"></path><path d="M158.732 82.692a6.4 6.4 0 0 1 3.784 -1.134c1.474 0 2.828 1.612 3.782 1.134a0.812 0.812 0 0 0 0.756 -0.756c0 -2.132 -3.644 -3.026 -4.538 -3.026A6.654 6.654 0 0 0 157.6 81.18a0.706 0.706 0 0 0 0 1.134 1.866 1.866 0 0 0 1.132 0.378Z" fill="#153640" stroke-width="1"></path><path d="M150.788 75.504a76.976 76.976 0 0 0 -6.81 8.696c-1.562 2.342 -2.112 3.562 0 5.674 0.378 0.378 0.756 1.136 1.514 1.514a1.388 1.388 0 0 0 1.134 -0.378A3.136 3.136 0 0 0 145.492 88a0.708 0.708 0 0 1 0 -1.136 8.282 8.282 0 0 1 1.134 -1.892 39.516 39.516 0 0 0 4.918 -8.7c0 -0.388 -0.378 -1.146 -0.756 -0.768Z" fill="#153640" stroke-width="1"></path><path d="M159.866 94.42c0 -0.756 -0.756 -1.134 -1.512 -0.756 -2.27 1.134 -13.62 4.918 -14.376 5.674 -0.378 0.378 0 0.756 0.378 0.756a13.788 13.788 0 0 0 5.674 -1.134 9.862 9.862 0 0 0 2.65 3.782 4.05 4.05 0 0 0 4.16 -0.378 8.054 8.054 0 0 0 3.026 -7.944Zm-7.566 4.162c1.892 -0.758 3.4 -1.136 5.298 -1.892 0.756 2.648 -3.028 6.81 -5.298 1.892Z" fill="#153640" stroke-width="1"></path><path d="M384.2 231.366c-4.038 -2.018 -14.026 0.652 -17.4 6.054 -1.89 0 -3.782 0.756 -5.674 0.756a21.862 21.862 0 0 1 -6.5 -0.658 8.47 8.47 0 0 0 2.718 -0.854c1.134 -0.378 2.27 -0.378 3.026 -0.758a15.826 15.826 0 0 0 5.296 -3.4 3.4 3.4 0 0 0 -1.892 -5.296c-2.63 -0.814 -5.296 1.514 -7.188 3.4a14.184 14.184 0 0 1 -8.7 4.918c-2.648 -1.134 -5.296 -2.27 -7.566 -3.4 -0.756 -0.378 -1.136 0.756 -0.756 1.134 9.4 5.486 15.2 8.31 26.48 6.432 0 0 3.772 1.18 6.432 1.892 8.112 2.172 14.376 -2.76 14.376 -6.432a5.8 5.8 0 0 0 -2.652 -3.788Zm-24.2 -1.134c2.064 -2.064 5 -0.464 3.026 1.514a14.632 14.632 0 0 1 -7.944 3.026 57.926 57.926 0 0 1 4.918 -4.54Zm22.32 7.188a15.35 15.35 0 0 1 -14 0.756 21.386 21.386 0 0 1 5.296 -3.4c6.81 -3.026 10.214 -1.136 10.6 0.378 -0.016 0.752 -1.148 1.51 -1.904 2.266Z" fill="#153640" stroke-width="1"></path><path d="M335.78 227.962c-1.36 -4.4 -7.46 -6.366 -11.35 -8.7 -3.218 -2.576 -6.956 -12.428 -18.914 -24.968 -0.37 -0.388 -1.136 0 -0.758 0.756 12.988 17.858 14.082 21.17 16.646 24.59 1.892 1.892 4.15 2.29 6.054 3.4 2.632 1.542 5.674 3.028 6.052 6.432a15.276 15.276 0 0 1 0 4.162 4.8 4.8 0 0 1 -0.378 2.27 25.42 25.42 0 0 1 -2.648 -4.162c-0.758 -1.514 -1.892 -3.026 -2.648 -4.54 -0.378 -0.756 -1.514 -0.378 -1.136 0.378a21.6 21.6 0 0 0 4.162 8.324c0.756 1.134 1.514 2.648 3.026 2.648s1.892 -1.514 1.892 -2.648a19.6 19.6 0 0 0 0 -7.942Z" fill="#153640" stroke-width="1"></path><path d="M246.122 359.236c-0.38 -1.136 -1.514 -0.758 -1.892 0 -0.758 3.026 -1.892 5.674 -2.648 8.7a69.512 69.512 0 0 1 -1.136 -12.484c0 -1.134 -1.512 -1.134 -1.892 -0.378 -1.134 3.4 -1.89 6.81 -3.026 10.214a13.566 13.566 0 0 1 -1.512 4.162c-1.136 1.512 -3.028 1.134 -4.54 1.134 -7.188 0.378 -14 0.378 -21.186 0.378a0.568 0.568 0 0 0 0 1.136 174.856 174.856 0 0 0 23.456 0c3.456 0 3.832 -2.038 4.918 -5.296 0.378 -1.892 1.134 -3.784 1.512 -5.676a34.784 34.784 0 0 0 1.892 10.6c0.378 0.756 1.538 1.142 1.892 0 0.814 -2.632 1.892 -5.676 2.648 -8.324a101.528 101.528 0 0 0 2.648 10.216 0.968 0.968 0 1 0 1.892 -0.38 83.616 83.616 0 0 0 -3.026 -14.002Z" fill="#153640" stroke-width="1"></path><path d="M283.952 358.478a33.984 33.984 0 0 0 -10.6 6.81c1.512 -2.648 3.026 -5.674 4.538 -8.322 1.136 -2.27 2.648 -4.54 3.784 -6.81 1.134 -1.892 2.648 -3.784 1.514 -6.052 -0.38 -0.38 -1.136 -0.758 -1.514 -0.38a58.308 58.308 0 0 0 -20.05 25.726c-0.378 0.756 0.77 1.14 1.134 0.378a66.788 66.788 0 0 1 18.16 -23.456 48.1 48.1 0 0 0 -2.648 4.54c-2.282 3.8 -10.102 18.33 -10.216 18.538a0.948 0.948 0 1 0 1.514 1.134 58.14 58.14 0 0 1 12.106 -9.458c-0.756 1.136 -1.162 2.632 -1.892 3.784a18.912 18.912 0 0 0 -3.026 6.432c0 0.756 0.756 1.512 1.134 0.756 2.8 -3.504 3.098 -6.298 6.81 -12.484 0.764 -0.378 0.008 -1.514 -0.748 -1.136Z" fill="#153640" stroke-width="1"></path><path d="M172.73 372.476a94.752 94.752 0 0 0 -13.62 -0.378c0 -3.784 -0.378 -7.188 -0.378 -10.972 0 -1.134 -1.134 -1.134 -1.892 -0.378l-6.81 10.214c1.136 -7.566 1.892 -15.132 3.028 -22.32 0 -0.756 -1.12 -1.504 -1.514 -0.756a120.384 120.384 0 0 0 -9.08 21.564c-0.378 0.756 -0.378 1.892 -0.756 2.648 -0.378 1.134 -0.378 1.892 -1.514 1.892 -7.548 0 -13.654 -0.1 -18.914 0.378 -0.758 0 -0.758 0.756 0 1.134a164.582 164.582 0 0 0 20.05 0.758c3.546 -0.888 1.63 -5.264 9.836 -22.7 -1.136 7.188 -1.892 14 -3.026 21.186a1.06 1.06 0 0 0 1.89 0.756c2.65 -3.782 4.918 -7.566 7.568 -10.97v9.078a1 1 0 0 0 1.134 1.136h14.376c0.378 -0.746 0.756 -2.27 -0.378 -2.27Z" fill="#153640" stroke-width="1"></path><path d="M66.046 360a119.926 119.926 0 0 0 -17.4 -13.62c-0.756 -0.378 -1.89 0.38 -1.134 1.136 3.782 5.296 7.626 10.556 10.97 16.268a72.316 72.316 0 0 1 4.54 7.566 38.63 38.63 0 0 1 3.4 8.322c0.378 0.378 1.134 0.378 1.134 0a30.6 30.6 0 0 0 -2.648 -8.322 173.104 173.104 0 0 0 -12.862 -20.43c18.06 13.136 18.278 17.69 21.184 21.564a41.716 41.716 0 0 0 2.27 4.162c0.378 0.378 1.514 0.378 1.514 -0.378a18.424 18.424 0 0 0 -4.162 -8.702A62.014 62.014 0 0 0 66.046 360Z" fill="#153640" stroke-width="1"></path><path d="M326.7 136.8c-0.378 -0.378 -1.512 0.378 -1.892 0.378 -0.756 0.38 -1.512 0.38 -2.268 0.758 -1.514 0.378 -3.028 1.134 -4.54 1.512 -0.378 0 -0.758 0.758 -0.758 1.136a15.426 15.426 0 0 0 1.892 3.4c0.378 0.378 0.756 1.136 1.136 1.514s0.756 1.134 1.512 0.756 0.378 -1.134 0.378 -1.512c-0.378 -0.38 -0.756 -1.136 -1.134 -1.514s-0.756 -1.136 -1.136 -1.514 -0.756 -1.134 -1.134 -1.512c0 0.378 -0.378 0.756 -0.378 1.134 1.962 -0.98 1.622 -0.432 6.81 -3.026 0.378 -0.378 1.89 -0.756 1.512 -1.514v0.378c0.378 -0.006 0 -0.374 0 -0.374Z" fill="#153640" stroke-width="1"></path><path d="M112.2 182.944c35.676 0 3.31 -0.244 69.23 -1.134 4.11 -0.056 2.558 -0.38 10.214 -0.38h0.38c0.756 0 0.756 -1.512 0 -1.512h-8.702c-14.318 0 -68.846 1.892 -71.122 1.892 -1.134 0 -1.134 1.134 0 1.134Z" fill="#153640" stroke-width="1"></path><path d="M119.01 209.8a2.242 2.242 0 0 0 -3.4 -1.134 2.2 2.2 0 0 0 1.89 3.782 2.152 2.152 0 0 0 1.51 -2.648Z" fill="#678e98" stroke-width="1"></path><path d="M130.36 209.8a2.242 2.242 0 0 0 -3.4 -1.134 2.2 2.2 0 0 0 1.892 3.782 2.154 2.154 0 0 0 1.508 -2.648Z" fill="#678e98" stroke-width="1"></path><path d="M141.708 209.8a2.242 2.242 0 0 0 -3.4 -1.134 2.2 2.2 0 0 0 1.89 3.782 2.152 2.152 0 0 0 1.51 -2.648Z" fill="#678e98" stroke-width="1"></path><path d="M153.058 209.8a2.242 2.242 0 0 0 -3.4 -1.134 2.2 2.2 0 0 0 1.892 3.782 2.152 2.152 0 0 0 1.508 -2.648Z" fill="#678e98" stroke-width="1"></path><path d="M164.4 209.8a2.242 2.242 0 0 0 -3.4 -1.134 2.2 2.2 0 0 0 1.892 3.782 2.152 2.152 0 0 0 1.508 -2.648Z" fill="#678e98" stroke-width="1"></path><path d="M218.882 208.67a106.42 106.42 0 0 0 -0.378 -10.972c0.378 -0.378 0 -1.134 -0.756 -1.134 -13.06 -0.688 -11.984 0.762 -111.6 3.026a0.568 0.568 0 1 0 0 1.134c28.75 0 57.89 -0.45 86.632 -1.512a232.974 232.974 0 0 0 24.212 -1.136c-0.49 4.4 -0.378 8.718 -0.378 20.428a204.726 204.726 0 0 0 -21.564 0.38c-15.162 0.8 -80.61 2.252 -88.902 2.648a25.382 25.382 0 0 0 0 -7.566 67.022 67.022 0 0 0 -0.378 -8.702 0.568 0.568 0 0 0 -1.136 0 67.022 67.022 0 0 0 -0.378 8.702c0 2.648 0 8.704 0.756 8.7 2.124 0 111.98 -0.97 111.98 -3.026 2.27 -3.784 1.89 -7.566 1.89 -10.97Z" fill="#153640" stroke-width="1"></path><path d="M218.882 177.648a67.052 67.052 0 0 0 -0.378 -8.702c0.378 -0.378 0.378 -1.512 -0.378 -1.512 -13.06 -0.688 -11.984 0.764 -111.6 3.026 -0.378 0 -0.756 0.378 -0.378 0.756a72.98 72.98 0 0 0 -0.378 9.08 36.496 36.496 0 0 0 0.378 9.08c0 0.378 0.756 0.378 0.756 0a100.382 100.382 0 0 0 0 -17.782c28.752 0 57.512 -0.45 86.254 -1.512a225.784 225.784 0 0 0 23.834 -1.136c0 2.648 -0.378 5.298 -0.378 8.324a36.476 36.476 0 0 0 0.378 9.078c0 0.38 0.756 0.38 0.756 0 1.514 -2.648 1.134 -5.674 1.134 -8.7Z" fill="#153640" stroke-width="1"></path><path d="M207.534 338.05a4.148 4.148 0 0 0 1.134 -4.54 4.09 4.09 0 0 0 -4.16 -2.648c-3.4 0 -4.162 1.514 -6.81 4.162 -1.892 1.512 -3.4 5.296 -6.054 7.188a324.442 324.442 0 0 1 11.728 -31.022 8.868 8.868 0 0 1 3.026 -2.27c5.676 -3.782 12.508 -4.508 18.16 -8.7 3.038 -2.254 8.29 -7.528 4.16 -10.972 -7.626 -6.36 -17.4 12.484 -22.698 15.132a18.348 18.348 0 0 0 1.136 -2.648c6.35 -19.05 7.1 -18.6 11.726 -35.56 1.376 -8.248 2.446 -9.43 3.784 -12.106a0.37 0.37 0 0 1 0.378 -0.378c2.648 -6.81 7.012 -15.838 4.918 -23.456a6.162 6.162 0 0 0 -7.188 -4.54c-3.774 0.8 -5.674 4.54 -5.674 8.324a30.276 30.276 0 0 0 1.892 7.944c4.49 11.228 2.518 14.518 -0.378 26.104 -0.758 3.026 -2.65 9.836 -3.784 12.862 -0.756 -4.162 0.4 -7.944 0.756 -11.728 0.4 -4.16 -0.378 -15.132 -6.8 -13.618a5.306 5.306 0 0 0 -3.784 4.538c-1.062 4.934 2.648 9.458 4.162 14 1.134 2.648 3.782 6.432 3.782 12.862 -0.824 2.062 -6.058 13.528 -13.618 34.048 -0.378 -4.918 3.4 -14 0.378 -17.4 -1.136 -1.134 -2.648 -2.27 -4.162 -1.514a4.918 4.918 0 0 0 -3.026 4.54c-0.668 7.342 4.316 15.032 3.4 22.32a172.986 172.986 0 0 0 -6.052 19.294 99.55 99.55 0 0 0 -3.026 23.834 25.758 25.758 0 0 0 0.756 7.566c0.378 0.756 1.514 1.134 1.892 0 1.018 -6.11 -0.744 -12.416 3.026 -28.752 4.502 -10.142 12.984 -7.486 17.02 -12.866Z" fill="#678e98" stroke-width="1"></path><path d="M243.852 308.164a3.858 3.858 0 0 0 -3.028 -1.892c-1.512 0 -2.648 1.514 -3.4 2.648 -0.378 1.514 -0.378 3.026 -0.756 4.54a31.8 31.8 0 0 1 -13.62 23.834c1.892 -3.784 4.162 -7.944 3.4 -12.106a6.062 6.062 0 0 0 -1.892 -3.784c-1.136 -0.756 -2.648 -1.512 -3.784 -0.756 -2.27 1.134 -1.892 4.162 -1.892 6.432a30.482 30.482 0 0 1 0 8.322 12.446 12.446 0 0 1 -1.512 6.432 21.088 21.088 0 0 1 -5.296 6.43 52.342 52.342 0 0 0 -14 20.428 16.85 16.85 0 0 0 -1.134 8.702c0.378 0.378 1.134 -0.378 1.134 -1.134a38.756 38.756 0 0 1 3.784 -11.728c1.89 -3.4 4.16 -7.566 8.322 -8.324 4.2 -1.4 9.904 -1.54 13.618 -3.026 2.27 -0.756 5.676 -2.648 5.676 -5.296s-4.912 -2.24 -6.81 -1.892a36.86 36.86 0 0 0 -8.322 3.4c10.9 -11.476 30.264 -23.07 30.264 -36.696a8.878 8.878 0 0 0 -0.752 -4.534Z" fill="#678e98" stroke-width="1"></path><path d="m370.962 372.098 -6.43 -5.296 1.512 -1.514a0.8 0.8 0 1 0 -1.134 -1.134c-0.756 0.378 -1.514 1.134 -2.27 1.512 0 0 -2.27 -1.892 -3.4 -2.648 0 0 1.514 -1.134 1.514 -1.514 0.378 -0.378 0 -1.134 -0.756 -1.134a7.6 7.6 0 0 0 -3.028 1.514 7.876 7.876 0 0 0 -2.268 -1.514 55.25 55.25 0 0 0 -3.4 -5.674c-1.078 -1.08 -3.866 1.26 -3.814 1.818a29.414 29.414 0 0 0 -3.534 -6.156c4 -4.4 1.962 -10.674 -2.488 -10.038 -2.648 0 -3.026 2.27 -4.54 3.782a13.16 13.16 0 0 1 -4.926 4.162c-1.126 0.482 -3 0.896 -4.668 1.56 -10.95 -15.424 -51.034 -61.46 -71.748 -108.85 0 -0.932 0 -10.512 0.014 -15.918a86.436 86.436 0 0 0 24.572 -7.308c5.582 -2.662 14.972 -7.692 19.618 -11.774a249.658 249.658 0 0 1 13.656 15.2 36.88 36.88 0 0 0 -9.818 -1.162c-0.378 0 -0.378 0.756 0.378 1.136a50.122 50.122 0 0 1 11.618 2.688 357.74 357.74 0 0 1 24.7 35.142c0.756 1.514 2.648 3.4 1.892 5.296a7.682 7.682 0 0 1 -1.382 1.754 14.13 14.13 0 0 1 -3.916 -1 8.282 8.282 0 0 1 -3.782 -3.4c-0.378 -0.756 -1.514 0 -1.134 0.756a10.222 10.222 0 0 0 6.73 5.544c-4.434 3.4 -10.478 6.932 -14.676 9.588 -8.886 5.626 -9.924 5.764 -11.234 7.526 -5.858 -13.092 -12.666 -30.668 -15.59 -39.22 2.23 2.938 5 3.822 10.178 9a9.184 9.184 0 0 0 0.916 0.858 32.816 32.816 0 0 0 -3.186 4.06c0 1.136 1.136 1.514 1.514 0.758 3.582 -5.374 8.49 -7.738 10.214 -9.458a5.268 5.268 0 0 0 1.514 -1.136 0.724 0.724 0 0 0 -0.378 -1.134 7.214 7.214 0 0 0 -3.784 1.89 26.694 26.694 0 0 0 -4.486 3.6c-0.372 -0.314 -0.824 -0.6 -1.188 -0.956 -7.4 -7.4 -10.092 -7.532 -11.728 -11.35a0.6 0.6 0 0 0 -0.852 0.062c-1.968 -6.068 -3.706 -12.128 -5.478 -18.2 -0.292 -1.1 -0.858 -0.4 -0.858 0.36 10.8 41.216 21.81 63.8 40.102 102.142 1.092 2.292 2.27 4.54 3.026 6.432 1.134 2.27 1.89 4.918 3.782 6.432 0.758 0.756 1.892 0 1.514 -1.136A17.374 17.374 0 0 0 335.4 332c-0.662 -1.654 -19.864 -40.956 -21.574 -44.712 2.522 -0.564 3.822 -2 11.36 -6.36 3.372 -1.948 6.43 -4.162 9.836 -6.052 4.268 -2.848 11.962 -6.93 10.6 -11.73a14.844 14.844 0 0 0 -3.026 -5.294c-0.438 -0.728 -6.644 -10.416 -9.836 -15.134a204.952 204.952 0 0 0 -13.044 -17.098 9.176 9.176 0 0 0 3.964 1.588c0.756 0 1.136 -0.756 0.756 -1.134 -0.71 -1.422 -4.97 -3.052 -7.688 -3.926 -5.05 -5.832 -10.558 -11.83 -16.038 -17q0.33 -0.31 0.65 -0.63a3.4 3.4 0 0 0 0.378 -4.162c-0.378 -0.378 -2.648 -4.16 -3.026 -3.782a188.55 188.55 0 0 0 24.59 -24.6 120.766 120.766 0 0 0 10.548 -13.548 28.374 28.374 0 0 0 4.584 -0.072c5.134 0 8.846 0.4 12.862 -1.892 4.038 -2.69 4.754 -5.8 7.188 -9.456 0.756 -1.136 1.892 -2.27 2.648 -3.4 0.754 -1.504 -2.544 0.218 9.458 -3.784 0.756 0.758 1.514 -0.378 0.756 -1.134a74.468 74.468 0 0 0 -15.132 -11.728h-0.378c0 -1.666 -12.418 3.214 -14 4.162 -0.756 0.378 0 1.136 0.38 1.136 1.26 -0.42 13.24 -3.364 13.24 -4.54 2.27 1.89 4.9 3.8 7.188 5.674 1.876 1.532 3.4 3.4 5.296 4.918a34.666 34.666 0 0 0 -4.54 1.512c-3.326 1.11 -20.116 5.572 -20.428 5.676a2.4 2.4 0 0 0 -0.508 0.324 4.04 4.04 0 0 1 -2.518 -2.216 8.412 8.412 0 0 1 0 -2.648 6.324 6.324 0 0 0 1.89 -0.378 11.83 11.83 0 0 0 3.4 -2.648c0.756 -0.38 0.378 -1.514 -0.378 -1.892a79.922 79.922 0 0 0 -7.946 -4.162 5.954 5.954 0 0 0 -6.43 1.892 39.448 39.448 0 0 0 -3.784 6.81 20.628 20.628 0 0 0 -1.89 8.322 0.664 0.664 0 0 0 0.032 0.2c-1.244 -1.2 -3.322 1.718 -5.33 3.2a244.568 244.568 0 0 1 -23.454 15.512c1.512 -4.918 2.18 -10.234 3.4 -15.512 2.3 -9.908 -6.052 -17.776 -6.43 -18.536 -0.378 -0.378 -1.514 -1.134 -1.514 -1.892 -1.8 -5.4 -4.782 -9.6 -10.212 -11.664a16.514 16.514 0 0 1 0.722 -5.178c0.244 0.2 0.504 0.386 0.788 0.576a14.826 14.826 0 0 0 3.784 3.026 6.94 6.94 0 0 0 8.7 -1.514c2.27 -2.648 3.4 -6.052 5.298 -9.08a6.244 6.244 0 0 1 3.782 -3.026c1.892 -0.756 1.892 -1.892 1.892 -3.782A29.848 29.848 0 0 0 304 88.366a0.71 0.71 0 0 0 -1.136 0c0 2.27 0.38 4.54 0.38 6.81a41.156 41.156 0 0 0 0.378 6.81c0 0.584 -0.53 1.134 -1.514 1.134a14.894 14.894 0 0 0 -4.908 5.68c-1.512 3.026 -3.4 7.944 -7.188 7.944 -1.892 0 -3.4 -1.512 -4.918 -2.648 -1.134 -0.756 -2.27 -1.892 -3.4 -2.648 -1.136 -1.136 -2.27 0.378 -1.514 1.514a9.74 9.74 0 0 0 1.02 1.296 11.704 11.704 0 0 0 -1.666 5.388 11.6 11.6 0 0 0 -8.812 0.88c-1.134 0.38 -0.756 0.758 -0.378 0.758 6.16 -3.08 16.102 1.224 18.916 12.484 1.894 7.576 1.186 21.412 0 30.266 -0.81 6.044 -2.27 12.104 -3.026 18.158 0 1.134 1.134 1.512 1.512 0.378a104.45 104.45 0 0 0 3.028 -10.214 190.486 190.486 0 0 0 30.264 -18.538c1.246 -1.246 4.618 -3.238 4 -4.47a0.946 0.946 0 0 0 1.302 -0.448 40.532 40.532 0 0 1 5.296 -13.24c0.952 -1.902 3.96 -2.85 5.296 -1.514a41.4 41.4 0 0 1 5.676 3.026 5.336 5.336 0 0 1 -5.296 1.136 0.85 0.85 0 0 0 -0.758 1.512c-1.1 2.2 1.238 7.946 6.81 7.946 1.176 0 1.6 -0.67 1.526 -1.212a77.4 77.4 0 0 0 13.432 -2.914c-2.39 2.356 -4.128 7.75 -7.77 10.178 -2.556 2.13 -10.846 2.648 -12.106 2.648a12.464 12.464 0 0 0 -4.702 0.744 0.508 0.508 0 0 0 -0.6 0.014c-3.4 3.782 -6.054 7.566 -9.458 11.348 -8.058 10.074 -30.526 30.946 -43.126 38.966 -3.4 2.648 -8.702 6.81 -13.242 4.918s-5.674 -7.566 -6.052 -12.106c-0.758 -5.296 -1.158 -10.97 -1.514 -16.268 -0.4 -6.05 0 -31.4 1.136 -35.56a0.372 0.372 0 0 1 -0.38 -0.378 15.2 15.2 0 0 1 -4.638 6.064c0.132 -26.476 1.8 -104.422 2 -125.61a43.4 43.4 0 0 1 0.378 -6.8c0.38 -0.758 -0.756 -0.758 -0.756 -0.378 -8.2 150.2 -4.09 327.638 -0.378 349.934a1.136 1.136 0 0 0 2.27 0c0 -10.846 -0.73 -16.922 -1.44 -38.848 4.06 2.046 7.832 -1.44 8.628 -5.416 0.378 -1.134 0 -3.024 0.378 -3.782 1.892 -2.648 3.4 -5.296 5.296 -7.944 0.378 0 2.648 0.756 3.4 0.378s0.756 -0.756 0.378 -1.514a6.4 6.4 0 0 0 -2.27 -1.134c0.756 -0.758 1.134 -1.892 1.892 -2.648a3.32 3.32 0 0 0 2.646 0.378c0.38 0 1.136 -0.378 0.758 -1.136 0 -0.756 -1.514 -1.134 -1.892 -1.512l0.756 -1.514a5.644 5.644 0 0 0 2.648 -1.134c1.136 -0.756 4.162 -2.648 3.028 -4.54a5.498 5.498 0 0 0 -2.222 -1.866 9.814 9.814 0 0 0 3.43 -2.278 536.864 536.864 0 0 0 22.624 31.382c2.976 3.824 14.654 19.04 17.712 22.818a3.06 3.06 0 0 0 -1.066 3.664c0.87 2.6 4.918 2.828 7.6 2.572a12.818 12.818 0 0 0 2.618 3.858c-0.756 0 -1.134 0.758 -1.512 1.136 -1.136 2.27 -1.136 18.916 0 20.8a6 6 0 0 0 3.782 3.028c4.162 0.378 21.51 2.8 38.2 -1.136 8.232 -1.954 6.41 -12.868 -3.794 -12.868Zm-94.2 -66.582c-0.756 0.756 -1.514 1.892 -2.27 2.648a30.314 30.314 0 0 1 -6.81 -4.54c-0.378 -0.756 -1.512 -0.378 -1.134 0.378a9.4 9.4 0 0 0 6.43 6.052c-0.756 0.758 -1.134 1.892 -1.89 2.65a18.968 18.968 0 0 1 -6.054 -3.784c-0.378 -0.378 -1.134 -0.378 -1.134 0.378 0 2.27 5.296 5.296 5.674 5.676 -1.512 2.27 -3.4 4.918 -4.918 7.188 -0.378 0.378 0.378 4.16 -1.892 6.43a3.142 3.142 0 0 1 -4.958 0.378c-0.218 -6.81 -1.232 -33.626 -1.436 -40.268 3.56 -0.632 17.064 -2.326 17.744 -0.966 -1.892 1.134 -5.314 2.26 -5.674 3.026 -1.6 3.37 1.134 7.188 3.4 9.836a5.242 5.242 0 0 0 6.432 0.756s1.512 1.514 1.89 1.514a20.8 20.8 0 0 0 -3.398 2.648Zm2.648 -7.188c-0.378 -0.378 -0.756 -0.378 -1.514 0 -1.512 0.378 -1.89 1.892 -3.4 1.134a8.6 8.6 0 0 1 -3.784 -7.944c0 -0.378 4.54 -1.89 5.298 -2.648 0 0 -0.378 -3.026 -1.514 -3.4 -1.512 -0.6 -13.188 0.24 -18.2 1q-0.612 -20.766 -0.71 -41.928c7.24 17.944 17.494 34.69 28.268 50.922a21.588 21.588 0 0 0 -4.442 2.864Zm49.936 56.746a3.138 3.138 0 0 1 -3.026 -1.134c-0.756 -1.136 0.378 -1.892 1.514 -1.892a12.324 12.324 0 0 0 5.296 -1.514 26.558 26.558 0 0 0 3.4 -2.27 14.07 14.07 0 0 0 2.27 -2.648c0.758 -1.134 1.514 -3.784 3.784 -2.648 2.41 0.8 1.346 7.528 -6.81 10.972a16.906 16.906 0 0 1 -6.426 1.134Zm3.826 1.978a16.6 16.6 0 0 0 9.624 -5.556c0.848 2.428 3.2 6.414 3.2 6.982a1.72 1.72 0 0 0 0 1.892c4.162 4.918 -9.836 10.6 -7.566 3.784 0.306 -0.924 -3.146 -4.856 -5.256 -7.102Zm43.464 23.368a7.258 7.258 0 0 1 -4.918 2.27 106.226 106.226 0 0 1 -34.426 0.758c-1.136 0 -1.514 -0.758 -2.27 -1.892 -0.38 -1.136 -0.38 -14.376 -0.38 -15.512s-0.378 -3.026 0.758 -3.4c0 0 0.756 1.134 1.134 1.134a3.444 3.444 0 0 0 0.378 4.162c1.514 1.892 4.552 1.542 6.432 0.758 8.756 -3.654 5.674 -9.08 5.674 -9.46l1.892 -1.89c0.378 0.378 2.27 5.296 5.296 6.052a14.928 14.928 0 0 0 -4.162 7.946 0.726 0.726 0 0 0 1.136 0.378l0.756 -0.756c0.378 -0.38 3.784 -6.432 4.162 -6.054 1.134 0.756 3.4 2.648 3.4 2.648 -1.89 2.648 -3.4 5.674 -3.026 6.052 0 0.378 0.378 0.758 0.756 0.378 0.758 -0.756 2.27 -3.4 3.784 -5.294 1.892 1.512 4.162 3.4 6.052 4.916 0.38 0.378 5.472 0.934 6.81 2.27a3.322 3.322 0 0 1 0.764 4.536Z" fill="#153640" stroke-width="1"></path><path d="M210.182 59.238a70.556 70.556 0 0 0 -29.886 -23.076 67.502 67.502 0 0 0 -8.696 -3.028 0.966 0.966 0 1 0 -0.378 1.892 95.814 95.814 0 0 1 16.646 7.944c47.754 27.284 37.078 91.782 -6.126 110.892 -5.22 -4.506 -15.1 -13.706 -15.816 -14.424 -17.332 4.876 -28.266 -4.982 -33.22 -10.98a89.04 89.04 0 0 0 14.304 1.902c0.326 0 2.63 -13.266 3.252 -17.854 9.644 -1.328 18.644 -9 23.6 -16.95 1.136 -0.38 0 -1.136 -0.756 -0.38 -4.918 3.784 -8.752 8.616 -14 11.728a20.732 20.732 0 0 1 -16.644 2.648 9.346 9.346 0 0 1 -6.054 -5.296c-2.304 -5.736 3.14 -21.4 5.296 -27.238 1.258 -3.4 2.74 -6.564 4.276 -9.884 -0.744 0.056 -1.498 0.096 -2.258 0.118a92.58 92.58 0 0 0 -9.962 27.924 24.8 24.8 0 0 0 0 9.458c2.322 6.2 8.476 8.49 15 8.026 -1.132 4.16 -3.27 14.476 -3.27 15.43 -0.724 0 -10.77 -1.036 -13.974 -1.128 -1.2 -1.6 -1.832 -2.656 -1.916 -2.656 -1.872 -1.122 -15.6 -3.356 -27.24 2.826a63.414 63.414 0 0 1 -4.16 -51.248c10.082 -29.302 38.834 -45.704 68.474 -42 0.758 -0.38 1.136 -1.136 0.378 -1.136a54.974 54.974 0 0 0 -20.428 -0.378c-51.422 8.57 -70.16 68.6 -39.722 105.548a64.724 64.724 0 0 0 80.58 15.888c33.234 -17.912 45.678 -64.13 22.7 -94.568Z" fill="#153640" stroke-width="1"></path><path d="M167.812 77.018a4.556 4.556 0 0 0 -3.784 -2.648 4.8 4.8 0 0 0 -2.27 0.378 1.15 1.15 0 0 1 -1.512 0 1.662 1.662 0 0 1 0.378 -1.892 5.382 5.382 0 0 1 8.322 1.892c0.378 0.756 0.378 1.892 0.756 2.648a1.4 1.4 0 0 1 -0.378 1.136c-1.124 -0.378 -1.512 -1.132 -1.512 -1.514Z" fill="#678e98" stroke-width="1"></path><path d="M295.68 95.176a2.532 2.532 0 0 1 2.648 -1.512 2.866 2.866 0 0 1 1.512 0.756 1.4 1.4 0 0 0 1.136 0.378c0.378 -0.378 0 -1.134 0 -1.512a3.052 3.052 0 0 0 -5.296 0 2.832 2.832 0 0 0 -0.378 1.89c0 0.38 0 0.758 0.378 0.758 -0.38 0 -0.38 -0.378 0 -0.758Z" fill="#678e98" stroke-width="1"></path><path d="M144.826 80.43a1.892 2.27 8.291 1 0 0.656 -4.494 1.892 2.27 8.291 1 0 -0.656 4.494Z" fill="#153640" stroke-width="1"></path><path d="M298.936 96.91a1.25 1.25 0 0 0 -1.062 -0.582 2.164 2.164 0 0 0 -1.878 2.36 1.246 1.246 0 0 0 1.282 1.012 1.938 1.938 0 0 0 1.658 -2.79Z" fill="#153640" stroke-width="1"></path><path d="M358.08 137.924a1 1 0 0 1 -0.8 -1.164 3.722 3.722 0 0 0 -0.926 -3.268 1 1 0 1 1 1.2 -1.6c1.96 1.484 2.628 6.37 0.526 6.032Z" fill="#153640" stroke-width="1"></path></svg>