<svg xmlns="http://www.w3.org/2000/svg" fill="none" viewBox="0 0 48 48" id="User-Circle-Avatar-Happy--Streamline-Plump.svg" height="48" width="48"><g id="User-Circle-Avatar-Happy--Streamline-Plump.svg"><path id="Union" fill="#153640" fill-rule="evenodd" d="M1.5 24C1.5 11.574 11.574 1.5 24 1.5c12.427 0 22.5 10.074 22.5 22.5S36.427 46.5 24 46.5C11.574 46.5 1.5 36.426 1.5 24Zm10 -2.5a12.5 12.5 0 0 0 7.013 11.234 12.73 12.73 0 0 0 -4.541 3.64c-0.934 1.192 -0.46 2.886 0.904 3.545A20.916 20.916 0 0 0 24 42c3.27 0 6.365 -0.747 9.125 -2.08 1.364 -0.66 1.838 -2.354 0.904 -3.547a12.729 12.729 0 0 0 -4.542 -3.639A12.5 12.5 0 0 0 36.5 21.5C36.5 14.596 30.904 9 24 9c-6.903 0 -12.5 5.596 -12.5 12.5Zm10 -3.5a1.5 1.5 0 1 0 -3 0v1a1.5 1.5 0 0 0 3 0v-1Zm6.5 -1.5a1.5 1.5 0 0 0 -1.5 1.5v1a1.5 1.5 0 0 0 3 0v-1a1.5 1.5 0 0 0 -1.5 -1.5Zm-8.686 7.455a1.25 1.25 0 0 1 1.731 0.36c0.597 0.908 1.719 1.435 2.955 1.435s2.359 -0.527 2.955 -1.436a1.25 1.25 0 0 1 2.09 1.372C27.892 27.444 25.89 28.25 24 28.25c-1.889 0 -3.891 -0.806 -5.045 -2.564a1.25 1.25 0 0 1 0.36 -1.731Z" clip-rule="evenodd" stroke-width="1"></path></g></svg>