<svg viewBox="0 0 400 400" xmlns="http://www.w3.org/2000/svg" id="Enter-Password-2--Streamline-Brooklyn.svg" height="400" width="400"><path d="M93.754 222a3.106 3.106 0 1 0 3.106 -3.106A3.108 3.108 0 0 0 93.754 222Z" fill="#153640" stroke-width="1"></path><path d="M105 222a3.106 3.106 0 1 0 3.106 -3.106A3.108 3.108 0 0 0 105 222Z" fill="#153640" stroke-width="1"></path><path d="M116.352 222a3.106 3.106 0 1 0 3.106 -3.106A3.11 3.11 0 0 0 116.352 222Z" fill="#153640" stroke-width="1"></path><path d="M127.6 222a3.106 3.106 0 1 0 3.106 -3.106A3.11 3.11 0 0 0 127.6 222Z" fill="#153640" stroke-width="1"></path><path d="M138.952 222a3.106 3.106 0 1 0 3.106 -3.106A3.108 3.108 0 0 0 138.952 222Z" fill="#153640" stroke-width="1"></path><path d="M150.2 222a3.106 3.106 0 1 0 3.106 -3.106A3.108 3.108 0 0 0 150.2 222Z" fill="#153640" stroke-width="1"></path><path d="M161.55 222a3.106 3.106 0 1 0 3.106 -3.106A3.108 3.108 0 0 0 161.55 222Z" fill="#153640" stroke-width="1"></path><path d="M172.8 222a3.106 3.106 0 1 0 3.106 -3.106A3.108 3.108 0 0 0 172.8 222Z" fill="#153640" stroke-width="1"></path><path d="M251.516 210.53c-20.4 -3.694 -45.2 27.362 -51.624 35.236a1.182 1.182 0 0 0 0.964 1.928c1.714 0 3.318 0.04 4.928 0.108 6.742 0.278 13.494 0 20.35 0 2.034 0 5.644 -0.714 7.282 0.642 2 1.652 2.832 4.694 3.748 7.068a1.164 1.164 0 0 0 2.25 -0.214c1.8 -9.856 8.846 -23.046 11.138 -27.954 2.312 -4.946 2.036 -12.958 1.822 -15.636a1 1 0 0 0 -0.858 -1.178Z" fill="#678e98" stroke-width="1"></path><path d="M327.238 233.556a0.952 0.952 0 0 0 -1.6 -0.106l-8.676 11.032s-12.316 -35.452 -28.276 -23.67c0 0 -12.638 4.6 -12.2 16.172s-10.39 64.904 -10.39 64.904h50.324s10.818 -0.964 17.78 -14.03 15.85 -37.38 15.85 -37.38 -18.936 -9.114 -22.812 -16.922Zm-11.674 14.46c-0.4 1.2 -2.274 3.232 -5.248 8.14 -3.436 5.668 -3.848 7.984 -4.6 9 -0.436 0.728 -1 1.87 -1.82 2.142 -4.22 0 8.502 -22.632 11.352 -21.2 0.708 0.228 0.536 1.258 0.316 1.918Z" fill="#678e98" stroke-width="1"></path><path d="M249.8 231.414c0 0.4 0.334 -1.076 -1.712 3.428l26.774 3.428c0.108 -1.286 0.322 -2.464 0.43 -3.536Z" fill="#678e98" stroke-width="1"></path><path d="m242.092 251.55 30.2 3.856 0.428 -3.534 -29.774 -3.75c-0.546 1.922 -0.262 1.058 -0.854 3.428Z" fill="#678e98" stroke-width="1"></path><path d="M238.986 266.652c-0.302 0 0.136 0.5 0.75 2.034l30.094 3.428c0.108 -1.072 0.322 -2.25 0.536 -3.534l-30.738 -3.536a3.66 3.66 0 0 1 -0.642 1.608Z" fill="#678e98" stroke-width="1"></path><path d="m248.732 288.822 18.422 2.142a1.38 1.38 0 0 1 0.106 -0.644c0.108 -0.748 0.214 -1.82 0.428 -2.89l-20.562 -2.358c0.534 1.18 1.074 2.464 1.606 3.75Z" fill="#678e98" stroke-width="1"></path><path d="M307.532 85.97a29.908 29.908 0 0 0 -5.464 -14.566 31.634 31.634 0 0 0 -22.17 -12.96c-1.936 -0.138 16.822 -0.108 -237.554 -0.108a32.33 32.33 0 0 0 -9 1.072A31.214 31.214 0 0 0 10.428 84.576 29.634 29.634 0 0 0 10 88.968c0 0.75 0.732 172.864 0.856 175.542 0.19 4.07 0.43 6.426 0.75 3.962 1.216 -9.366 1.178 -128.366 1.178 -170.912 8.082 1.154 291.926 -0.55 292.82 -0.774 0 0.536 0.22 27.018 0.262 29.698 0.09 5.724 1.322 5.8 1.6 -0.03 0.534 -11.178 0.472 -37.226 0.066 -40.484ZM12.678 95.93V90.04a28.694 28.694 0 0 1 17.672 -26.776 30.306 30.306 0 0 1 7.818 -1.928c3.27 0 -32.668 -0.108 240.124 -0.108A28.6 28.6 0 0 1 305.6 88.112v7.638c-13.78 -2.624 -211.032 0.18 -292.922 0.18Z" fill="#153640" stroke-width="1"></path><path d="M34.742 80.292a6.854 6.854 0 1 0 13.708 0 6.854 6.854 0 1 0 -13.708 0Z" fill="#678e98" stroke-width="1"></path><path d="M45.986 73.224a8.268 8.268 0 0 0 -10.6 12.424c2.57 2.938 6.916 2.6 6.104 1.4 -0.26 -0.518 -1.83 -0.652 -3.428 -2.248a5.748 5.748 0 0 1 2.572 -9.64 5.512 5.512 0 0 1 5.674 2.24 6.05 6.05 0 0 1 -2.892 8.784l-1.286 0.642c-0.32 0.214 -0.534 0.428 -0.32 0.75 0.106 0.214 0.428 0.322 0.75 0.428a6.578 6.578 0 0 0 6.746 -3.962 9.752 9.752 0 0 0 0.536 -1.822 9.274 9.274 0 0 0 -3.856 -8.996Z" fill="#153640" stroke-width="1"></path><path d="M67.622 73.224a8.27 8.27 0 0 0 -10.6 12.424c2.572 2.938 6.918 2.6 6.106 1.4 -0.26 -0.518 -1.83 -0.652 -3.428 -2.248a5.748 5.748 0 0 1 2.57 -9.64 5.514 5.514 0 0 1 5.674 2.24 6.052 6.052 0 0 1 -2.892 8.784l-1.286 0.642c-0.322 0.214 -0.536 0.428 -0.322 0.75 0.108 0.214 0.43 0.322 0.75 0.428a6.582 6.582 0 0 0 6.748 -3.962 9.978 9.978 0 0 0 0.536 -1.822 9.274 9.274 0 0 0 -3.856 -8.996Z" fill="#153640" stroke-width="1"></path><path d="M89.256 73.224a8.268 8.268 0 0 0 -10.6 12.424c2.572 2.938 6.918 2.6 6.104 1.4 -0.258 -0.518 -1.828 -0.652 -3.426 -2.248a5.748 5.748 0 0 1 2.57 -9.64 5.512 5.512 0 0 1 5.674 2.24 6.05 6.05 0 0 1 -2.892 8.784l-1.284 0.642c-0.322 0.214 -0.536 0.428 -0.322 0.75 0.108 0.214 0.428 0.322 0.75 0.428a6.582 6.582 0 0 0 6.748 -3.962 9.916 9.916 0 0 0 0.534 -1.822 9.274 9.274 0 0 0 -3.856 -8.996Z" fill="#153640" stroke-width="1"></path><path d="M227.312 204.318H90.648a5.944 5.944 0 0 1 -5.89 -5.892V191.68a5.944 5.944 0 0 1 5.89 -5.892h136.664a5.944 5.944 0 0 1 5.888 5.892v6.746a5.944 5.944 0 0 1 -5.888 5.892Z" fill="#678e98" stroke-width="1"></path><path d="M230.952 204.424a2.95 2.95 0 0 0 2.678 -2.57c0 -0.2 0.6 -13.472 0.322 -14.244a4.124 4.124 0 0 0 -2.57 -2.786c-1.082 -0.36 -143.484 -0.496 -144.482 -0.428a4.258 4.258 0 0 0 -3 2.356c-0.042 0.128 -0.428 1.258 -0.428 1.4 0 14.474 -0.05 13.5 0.108 13.816a4.176 4.176 0 0 0 4.176 3.534c128.488 -0.344 147.082 -0.532 142.018 -1.6 -5 -1.064 -51.154 -1.178 -59.548 -1.178 -88.516 0 -82.982 0.236 -83.648 -0.43 -0.6 -0.6 -0.428 0.096 -0.428 -13.922a1.622 1.622 0 0 1 1.07 -1.072c0.168 -0.082 138.694 -0.214 139.02 -0.214 3.448 0 1.52 -0.108 4.4 -0.108a2.174 2.174 0 0 1 0.856 0.43 1.928 1.928 0 0 1 0.536 0.75 0.646 0.646 0 0 1 0.106 0.428c0 3.708 0.216 2.644 0.216 9.2 0 3.186 0.666 4.91 -0.964 6a6.256 6.256 0 0 1 -0.858 0.428c-0.214 0.108 -0.322 0.108 -0.322 0.214 0.208 -0.11 0.422 -0.004 0.742 -0.004Z" fill="#153640" stroke-width="1"></path><path d="M158.98 105.354a36.2 36.2 0 1 0 36.2 36.2 36.156 36.156 0 0 0 -36.2 -36.2Zm15.636 39.628v5.462a10.346 10.346 0 0 1 -1.712 4.714 9.02 9.02 0 0 1 -5.356 3.64c-0.214 0 -0.428 0.108 -0.642 0.108a31.766 31.766 0 0 1 0.106 4.82c0.2 0 -0.026 -0.03 1.286 0.32a43.964 43.964 0 0 1 4.176 1.714c1.02 0.51 2.308 1.8 2.036 2.892 -0.336 0.67 -1.756 0.388 -2.036 0.108 -0.756 -0.252 -1.678 -0.882 -2.892 -1.286 -1.914 1.916 -8.4 3.428 -11.46 3.428 -3.18 0 -8.016 -1 -9.852 -3.75 -0.532 0 -3.924 2.24 -5.034 1.5 -1.252 -0.626 0.482 -2.368 1.714 -3.106a26.186 26.186 0 0 1 5.354 -2.146 15.786 15.786 0 0 1 0.214 -4.712 9.088 9.088 0 0 1 -5.568 -4.288 8.832 8.832 0 0 1 -1.178 -3.748c-0.098 -0.772 0 0.168 0 -5.57 -0.216 0 -0.43 -0.108 -0.644 -0.108a3.136 3.136 0 0 1 -1.284 -0.856 5.588 5.588 0 0 1 -1.4 -2.25 7.582 7.582 0 0 1 0.216 -6.104 3.114 3.114 0 0 1 2.57 -1.82c-3.214 -3.106 -8.062 -9.886 0.32 -17.566 5.872 -5.378 12.854 -4.4 18.2 -2.142 0 0 12.752 4.276 15.53 6.426 1.932 1.494 -0.75 8.568 -2.57 13.174 1.768 0 3.642 1.712 3.642 4.82 0.762 2.252 -1.194 6.644 -3.736 6.326Z" fill="#678e98" stroke-width="1"></path><path d="M164.014 127.524c-0.918 0.92 0.654 1.924 1.284 1.714a4.644 4.644 0 0 1 1.6 0.108c1.152 0.33 2.108 1.284 2.57 1.284 0.772 0 1.388 -0.6 1.07 -1.712s-4.82 -3.098 -6.524 -1.394Z" fill="#153640" stroke-width="1"></path><path d="M156.838 147.124c0.336 0.084 0.252 0.214 2.248 0.214a2.514 2.514 0 0 0 2.142 -1.6c0 -1.23 -1.458 -1.178 -2.676 -1.178a77.534 77.534 0 0 1 2.462 -7.496c0 -1.212 0.038 -1.738 -0.856 -2.036 -0.902 -0.226 -1.852 1.218 -2.25 2.142a44.958 44.958 0 0 0 -2.356 7.6c0 0.83 0.344 2.122 1.286 2.354Z" fill="#153640" stroke-width="1"></path><path d="M165.728 133.094c-0.75 0 -1.4 0.858 -1.5 1.928a1.902 1.902 0 0 0 1.284 2.142c0.75 0 1.4 -0.856 1.5 -1.928s-0.536 -2.142 -1.284 -2.142Z" fill="#153640" stroke-width="1"></path><path d="M153.41 133.094c-1.652 -0.236 -2.21 3.8 -0.32 4.07 1.648 0.236 2.202 -3.802 0.32 -4.07Z" fill="#153640" stroke-width="1"></path><path d="M163.478 148.088a10.22 10.22 0 0 1 -3.106 2.356c-3.558 1.336 -2.8 -1.212 -4.712 -0.106 -0.878 0.508 0.074 2.242 1.178 2.784 3.292 1.618 7.31 -1.134 9.424 -4.07a2.974 2.974 0 0 0 0 -1.4 1.624 1.624 0 0 0 -2.784 0.436Z" fill="#153640" stroke-width="1"></path><path d="M175.8 133.736a1.314 1.314 0 0 0 -0.642 -0.106c1.928 -4.6 4.478 -11.752 2.57 -13.174 -2.816 -2.1 -15.53 -6.426 -15.53 -6.426 -5.462 -2.25 -12.4 -3.188 -18.2 2.142 -8.322 7.64 -3.536 14.458 -0.322 17.564a2.164 2.164 0 0 0 -1.178 0.322 5.174 5.174 0 0 0 -1.4 1.5 7.684 7.684 0 0 0 1.178 8.354 3.864 3.864 0 0 0 1.284 0.856 1.358 1.358 0 0 0 0.644 0.108v5.568a9.852 9.852 0 0 0 1.178 3.75 9.084 9.084 0 0 0 5.57 4.284 15.6 15.6 0 0 0 -0.216 4.712 17.906 17.906 0 0 0 -6.64 3.106c-0.356 0.356 -0.312 0.302 -0.75 1.178 0 0.108 -0.106 0.214 -0.106 0.322a0.976 0.976 0 0 0 1.284 0.75 34.958 34.958 0 0 0 4.178 -1.6c2.432 3.648 8.612 3.672 9.854 3.75 3.03 0.188 9.528 -1.496 11.46 -3.428a15.826 15.826 0 0 0 4.39 1.6c0.75 -0.374 0.8 -0.846 0.428 -1.4a6.768 6.768 0 0 0 -4.068 -2.892 20.3 20.3 0 0 0 -3.322 -1.07 38.214 38.214 0 0 0 -0.106 -4.82c0.214 0 0.428 -0.108 0.642 -0.108a8.954 8.954 0 0 0 6.748 -6.64c0.436 -1.38 0.322 -1.584 0.322 -7.176 2.588 0.324 4.176 -3.84 4.176 -6.426a4.214 4.214 0 0 0 -3.426 -4.6Zm-31.702 8.14a4.88 4.88 0 0 1 -0.536 -5.248c0.256 -0.254 0.262 -0.214 0.536 -0.214 0.238 0 0.37 -1.308 -0.006 5.462Zm7.07 24.42s1.084 -0.274 1.982 -0.514a0.644 0.644 0 0 0 0.48 -0.624 47.512 47.512 0 0 0 -0.106 -6.144h11.138c-0.264 1.058 -0.22 0.874 -0.214 5.946 0 1.244 1.4 1.128 2.034 1.444 -1.612 -0.404 -6.434 4.336 -15.32 -0.108Zm15 -10.068c-14.35 0 -13.6 0.056 -13.924 -0.106a6.024 6.024 0 0 1 -4.07 -2.464c-1.6 -2.412 -1.284 -2.624 -1.284 -12.746 0 -1.906 -0.186 -3.72 -0.536 -7.924 -0.09 -0.536 -0.154 -2.19 -0.536 -2.572a6.964 6.964 0 0 0 2.142 0c0 0.216 -0.118 0.848 0.214 1.178a1.738 1.738 0 0 0 2.57 -0.214 6.95 6.95 0 0 1 2.036 -1.498c15.63 -3.126 17.6 -5.974 18.956 -4.6 0.108 0.106 0.216 0.322 0.322 0.428 0 0.108 0.108 0.214 0.108 0.322V149.8c-0.012 0.822 -1.616 6.428 -6.01 6.428Zm8.556 -14.028v-6.214c0.566 0.566 1.538 0.8 1.286 2.57a6.166 6.166 0 0 1 -1.286 3.644Z" fill="#153640" stroke-width="1"></path><path d="M109.4 256.584c-1.378 -3 -6 -3.856 -10.818 -2.25 1.45 -8.212 -5.498 -11.788 -11.354 -4.712 -2.726 -6.2 -9.224 -6.018 -11.566 1.714 -2.784 -4.4 -7.268 -6.51 -10.39 -4.712 -2.452 1.4 -3.212 5.032 -2.034 8.888 -4.6 -0.428 -8.566 1.4 -9.318 4.498 -0.854 3.536 2.88 7.55 8.246 8.676a30.048 30.048 0 0 0 3 0.428V272h29.766v-3.32c8.406 0.806 16.758 -7.08 14.468 -12.096Z" fill="#678e98" stroke-width="1"></path><path d="M103.07 291.128c1.572 -8.466 0.228 -20.39 -0.212 -23.62a13.8 13.8 0 0 0 7.284 -7.498c0.534 -0.32 0.642 -1.284 0.428 -2.142 -0.436 -1.304 -1.07 -1.6 -0.858 -0.962 0.814 3.254 -3.2 8.868 -10.282 10.28h-10.388c4.262 -6.088 10.916 -5.158 10.282 -6.426 -0.8 -1.2 -6.856 -1.366 -11.888 4.928 1.564 -6.778 4.818 -10.864 4.818 -12 0.568 -1.706 -2.8 0.582 -4.712 5.248a36.618 36.618 0 0 0 -2.462 8.464h-3.536c0 -0.966 -0.014 -1.93 0 -3 0.094 -7.334 0.516 -8.84 0.214 -9.746 0 -2.548 -2.462 -4.47 -2.462 12.746h-1.6c-0.066 -0.2 -1.47 -9.186 -6.104 -13.816 -0.214 -0.108 -0.948 -1.01 -1.178 -0.322a2.302 2.302 0 0 0 0.322 1.4 60.446 60.446 0 0 1 4.4 11.138c-5.366 -7.376 -12.974 -5.904 -11.782 -4.712 0.664 1 5.762 0.474 10.176 6.212 -12.51 0 -11.658 0.222 -13.6 -0.75 -2.6 -1.302 -5.098 -3.79 -4.284 -6.64 1.84 -3.68 5.852 -3.43 9.532 -3.214a13.522 13.522 0 0 1 -0.642 -6.532c1.036 -3.626 4.156 -3.8 7.282 -1.714a20.142 20.142 0 0 1 4.6 5.354c2.978 -10.426 8.224 -9.21 10.924 -2.462 3.8 -5.064 9.2 -7.17 10.6 -1.928a11.58 11.58 0 0 1 0.106 5.784c1.456 -0.364 5.364 -2.078 8.782 -0.858a7.214 7.214 0 0 1 2.786 1.822c0.754 0.378 0 -2.738 -4.284 -3.642a17.22 17.22 0 0 0 -5.356 0c0.732 -1.462 -0.53 -7.844 -4.6 -8.354a8.44 8.44 0 0 0 -7.6 3c0 -0.2 0.036 -0.058 -0.322 -0.534a6.174 6.174 0 0 0 -8.782 -1.822 11.978 11.978 0 0 0 -3 3.748c-5.912 -7.092 -15.154 -4.8 -13.494 5.142 -10.616 0 -13.168 10.042 -1.6 15a69.058 69.058 0 0 0 -0.68 22.552c-8.982 0.026 -47.05 -0.47 -43.232 1.438 3.126 1.564 40.186 1.118 43.634 1.102a8.656 8.656 0 0 0 7.24 6.504c9.108 1.042 25.382 2.246 31.168 -0.858a9.2 9.2 0 0 0 3.822 -5.866C128.64 293.4 153.6 293.2 154.8 293c9.6 -2.4 -42.032 -1.896 -51.73 -1.872Z" fill="#153640" stroke-width="1"></path><path d="M188.218 281.11c0 12.332 13.688 12.118 15.744 2.464 0.618 -2.898 0.108 -3.534 -2.784 -3.214 -1.348 0 -2.98 0.4 -3.962 -1.07a3.902 3.902 0 0 1 0 -4.178c1.16 -2.472 0.536 -3.266 -2.142 -3.212 -3.042 0.06 -6.856 3.338 -6.856 9.21Z" fill="#153640" stroke-width="1"></path><path d="M197.43 270.936c3.856 0 6.532 -1.822 7.282 -4.6a2.4 2.4 0 0 0 -0.642 -1.928 6.706 6.706 0 0 0 -9.426 4.498c-0.218 1.07 0.108 1.714 1.18 1.928 0.642 -0.006 1.284 0.102 1.606 0.102Z" fill="#153640" stroke-width="1"></path><path d="M282.8 212.35c0.33 -1.562 1.286 -5.05 1.286 -5.784 0 -0.904 0.09 -2.034 -0.858 -2.034 -0.98 0 -1.8 1.978 -2.034 2.89l-1.768 7.17a1.218 1.218 0 0 0 0.78 1.444c5.178 1.818 6.302 2.226 6.986 1.884a0.664 0.664 0 0 0 0.642 -0.75c0 -0.956 -1.848 -2.016 -2.784 -2.248 -0.126 0 -2.734 -0.964 -2.892 -0.964a6.32 6.32 0 0 0 0.642 -1.608Z" fill="#153640" stroke-width="1"></path><path d="m301.534 194.036 3.106 -0.536c3.32 -1.178 1.284 -5.784 -0.108 -8.246 4.71 0.522 9.722 -3.136 7.926 -7.926 -0.214 -0.428 -0.428 -0.75 -0.642 -1.178a38.432 38.432 0 0 0 8.674 -7.4c7.36 -10.644 -18.866 -44.39 -41.556 -41.984 -18.536 1.966 -20.028 16.922 -13.388 24.634 1.258 0.784 1.256 -0.356 -1.82 4.6 -4.022 6.486 -12.826 21.69 -11.566 29.24 1.228 7.378 5.51 9.616 12.316 13.28 -1.222 1.63 -1.144 1.886 -4.284 11.888 -0.926 0 -3.512 -0.016 -4.498 0.108 -0.648 0 -2.6 0.652 -2.036 1.498 0.326 1.298 5 1.246 7.528 1.2a1.584 1.584 0 0 0 1.484 -1.122c2.386 -7.81 3.734 -11.914 3.734 -12.6 11.368 5.052 18.558 3.058 16.6 2.57 -2.148 -0.718 -6.82 0.27 -18.1 -6 -6.82 -3.786 -11.8 -7.346 -9.96 -15 2.422 -10.074 8.472 -19.938 14.244 -28.488l2.036 -0.322c-0.588 0.6 -1.096 1.044 -0.43 1.714 0.4 0.586 1.672 0.566 2.358 0.428 4.776 0 2.33 -0.768 7.496 1.82 0.2 0.2 3.03 0.532 1.4 -1.928 -2.876 -4.316 -17.978 -0.888 18.2 -6.104 8.19 4.68 6.694 19.2 3.534 27.098 2.386 0.4 4.7 1.136 5.462 3.426S306.666 182.8 305.6 182.8a5.2 5.2 0 0 1 -2.784 -0.108c-0.838 -0.418 -2.174 -0.68 -2.464 -0.106 -0.106 0.214 -0.32 0.322 -0.428 0.428a112.712 112.712 0 0 1 -10.068 13.28c-1.6 1.784 -3.8 4.01 -2.462 3.536a19.128 19.128 0 0 0 4.176 -3c0.536 0.214 1.4 0.642 2.572 1.072 6.32 1.81 7.392 -3.866 7.392 -3.866Z" fill="#153640" stroke-width="1"></path><path d="M266.4 174.436a3.248 3.248 0 0 0 -0.536 2.034c0 1.67 4.984 4.63 8.248 3a0.616 0.616 0 0 0 0.214 -0.75c-0.422 -0.842 -4.722 -2.044 -5.57 -2.892 0 -1.366 13.6 -12.292 13.6 -13.708 0 -1.948 -3.694 0.518 -5.14 1.82 -0.322 0.214 -3.322 2.784 -6.212 5.568a25.058 25.058 0 0 0 -4.604 4.928Z" fill="#153640" stroke-width="1"></path><path d="M289.86 168.652c-0.858 1.4 -0.75 3 0.214 3.534 2.33 1.296 5.242 -3.894 3 -5.14 -0.966 -0.536 -2.474 0.214 -3.214 1.606Z" fill="#153640" stroke-width="1"></path><path d="M271.544 164.046c2.332 1.296 5.244 -3.894 3 -5.14 -2.332 -1.294 -5.244 3.894 -3 5.14Z" fill="#153640" stroke-width="1"></path><path d="M295.964 162.226c2.094 1.676 2.8 5.67 4.712 4.712 0.63 -0.42 0.644 -0.966 0.644 -1.714 0 -3.96 -7.506 -8.56 -8.676 -7.388 -0.948 0 -1.128 1.232 -0.536 1.82 0.468 1.168 1.82 0.72 3.856 2.57Z" fill="#153640" stroke-width="1"></path><path d="M266.51 187.716c3.216 3.188 8.934 2.832 13.068 1.178a5.6 5.6 0 0 0 2.784 -2.034c0.248 -0.248 0.306 -0.918 0 -1.07 -1.024 -0.686 -3.5 0.418 -5.89 1.07s-6.4 0.814 -7.926 -0.964c-1.24 -1.062 -1.366 -3.106 -2.678 -3.106 -0.974 0.324 -1.268 3.01 0.642 4.926Z" fill="#153640" stroke-width="1"></path><path d="M293.5 218.562c-1.6 -0.532 -8.2 2.072 -12.744 5.248 -4 0 -18.5 7.212 -26.67 -5.034 -0.106 -0.214 -0.32 -0.32 -0.428 -0.534 0 -1.222 -0.152 -5.898 -1.286 -5.142 -0.93 0.698 -1.6 10.702 -2.354 12.21 0 1.096 -6.116 9.084 -9.854 22.17 -1.254 4.4 -3.054 13.116 -2.142 17.672 -0.074 -0.072 -5.356 -11.446 -5.356 -11.674a6.102 6.102 0 0 0 -2.57 -2.464c-1.67 -0.836 -0.8 -0.642 -13.71 -0.642a41.3 41.3 0 0 0 1.928 -3.962c2.506 -6.266 10.2 -15.626 11.032 -18.102 0.302 -0.302 0.094 -1.966 -1.5 -0.856 -3.436 2.4 -13.28 17.144 -13.28 22.706h-16.922c8.236 -8.236 24.624 -32.922 50.874 -40.058 5.8 -1.546 -4.022 -3.062 -14.962 3.104a3.478 3.478 0 0 0 -2.068 -1.6c-0.746 -0.248 -144.24 -0.67 -144.482 -0.428a4.46 4.46 0 0 0 -3.426 3.75c0 14.472 -0.052 13.5 0.106 13.816a4.182 4.182 0 0 0 4.178 3.534c65.468 -0.35 102.4 -0.482 122.22 -0.668 -8.916 9.2 -14.582 17.742 -14.582 18.66 -44.038 0 -41.272 -0.058 -41.77 0.108a6.14 6.14 0 0 0 -5.142 7.282c0 1.108 18.422 46.734 18.422 41.984 -0.434 -4.754 -15.85 -42.54 -15.85 -42.732a3.302 3.302 0 0 1 2.57 -3.642c0.89 -0.298 74.022 0 74.222 0a3.776 3.776 0 0 1 2.034 1.6c0.23 0.228 14.24 31.538 20.564 43.484 0.108 0.32 0.322 0.534 0.428 0.856 -57.384 0 -77.492 -0.2 -83.218 1.714 -2.02 0.674 -1.772 2.28 3.428 2.786 6.122 0.6 12.316 1.176 18.528 1.176 90.88 0 91.936 -0.158 96.07 -0.75 11.624 -0.826 13.2 -4.926 -18.742 -4.926 2.928 -3.66 11.138 -64.958 11.138 -65.868 0 -6.072 5.876 -8.518 10.926 -11.674 1.224 -0.762 5.596 -2.802 4.39 -3.104Zm-207.242 9.532c0 -14.522 -1 -14.03 2.784 -14.03 149.688 0 141.666 -0.828 142.674 0.232a102.932 102.932 0 0 0 -19.902 15.552c-118.252 -2.286 -125.556 2.062 -125.556 -1.754Zm189.356 4.498c0 4.588 -9.014 58.29 -9.014 65.6 0 0.724 -1.342 0.852 -13.8 0.92 -4.514 -12.412 -12.54 -29.294 -13.816 -32.132 1.708 0 0.636 -13.11 7.71 -29.024 3.782 -8.506 6.856 -11.4 6.856 -15.958 5.962 7.442 14.756 7.522 23.884 5.034a8.546 8.546 0 0 0 -1.82 5.568Z" fill="#153640" stroke-width="1"></path><path d="M367.294 206.352a25.506 25.506 0 0 1 4.498 -3.428c3.71 -2.266 6.128 -2.83 6.426 -3.426 1.92 -0.962 0.872 -4.442 -8.032 1.072 -9.634 5.964 -8.042 10.93 -2.892 5.782Z" fill="#153640" stroke-width="1"></path><path d="M376.934 206.888c-5.156 2.58 -5.454 3.526 -6.534 4.6 -0.522 1.046 -0.6 1.422 0 1.82 0.786 0.262 1.03 -0.036 2.892 -0.964 0.654 -0.328 0.282 -0.332 1.072 -0.856 6.86 -4.574 14.73 -5.132 13.6 -7.39 -1.188 -1.778 -9.116 1.832 -11.03 2.79Z" fill="#153640" stroke-width="1"></path><path d="M389.144 212.35c-1.674 -0.42 -2.382 -0.024 -6.534 1.286 -8.236 2.6 -7.75 5.354 -5.676 5.354a6.628 6.628 0 0 0 2.034 -0.642c6.94 -3.47 10.142 -3.04 11.032 -4.82 -0.274 -0.274 0.128 -0.686 -0.856 -1.178Z" fill="#153640" stroke-width="1"></path><path d="M330.664 236.984c1.294 0.324 3.076 -2 3.964 -2.892 3.292 -3.292 6.972 -6.28 7.284 -6.748 0.212 -0.214 0.428 -0.856 0.642 -1.07 0 -0.108 0.106 -0.214 0.106 -0.322a0.856 0.856 0 0 0 -1.178 -0.75 5.498 5.498 0 0 0 -2.248 1.072 79.418 79.418 0 0 0 -7.284 6.64c-0.452 0.6 -1.82 1.8 -1.82 3.32 0 0.33 -0.082 0.442 0.534 0.75Z" fill="#153640" stroke-width="1"></path><path d="M386.572 220.17c-15.306 0 -20.97 4.068 -19.064 4.068 2.85 0 2.4 -1.714 18.2 -1.714 0.108 0 0 0.108 0 0.108 -5.384 3.6 -5.92 2.746 -10.818 5.248 -4.134 2.112 -8.978 6.93 -12.958 9.318a14.774 14.774 0 0 1 -7.07 2.678c-8.43 0 -16.144 69.276 -46.482 58.8 -4.8 -1.658 -6.748 -6.8 -6.748 -4.926 0 3.148 4.582 8.248 13.6 8.248 25.39 0 32.856 -52.564 39.842 -59.55 6.5 0 14.542 -8.642 20.244 -12 3.286 -1.644 15.948 -5.64 12.744 -9.638 0.01 -0.158 -1.328 -0.64 -1.49 -0.64Z" fill="#153640" stroke-width="1"></path><path d="M346.624 220.17c0 -3.97 -0.48 -5.172 0.32 -7.176 1.178 -2.356 3.256 -4.304 4.5 -8.034 0.6 -2.4 0.8 -5.4 -0.964 -7.176 -1.8 -0.904 -0.8 3.2 -1.928 6.748 -1.25 3.898 -5.14 6.218 -4.6 11.032 -0.292 5.95 2.672 6.884 2.672 4.606Z" fill="#153640" stroke-width="1"></path><path d="M358.298 230.45c1.058 0.354 1.576 -1.078 3.106 -2.034 2.4 -1.496 2.452 -0.846 2.892 -1.286a0.854 0.854 0 0 0 0.642 -1.07c-0.728 -2.186 -7.39 1.342 -7.39 3.962 0.28 0 0.4 0.254 0.75 0.428Z" fill="#153640" stroke-width="1"></path><path d="M305.6 226.274a46.36 46.36 0 0 1 4.498 6.746 10.924 10.924 0 0 0 1.6 2.358c0.722 0.72 0.78 0.856 1.072 0.856 0.6 0.3 1.234 -0.364 0.964 -1.178 -0.4 -4.36 -8.16 -13.986 -12.104 -15.958a7 7 0 0 0 -1.928 -0.856c-0.276 -0.094 -1.2 -0.2 -1.4 0a0.832 0.832 0 0 0 0.108 1.498c0.856 0.75 1.6 1.5 2.462 2.142 0.108 0 0.214 0.214 0.536 0.428a26.044 26.044 0 0 1 4.192 3.964Z" fill="#153640" stroke-width="1"></path><path d="M144.414 324.6a22.304 22.304 0 0 0 0.106 3.642c0 0.896 1.286 0.972 1.286 -0.644 0 -4.022 -0.148 -2.636 0.428 -3.212l21.1 -11.888a2.118 2.118 0 0 0 -0.75 -3.964c-12.104 -1.28 -24.106 -2.4 -36.2 -3.748 -13.044 -1.46 -11.486 -0.73 -22.814 3.534 -4.822 1.816 -9.638 3.642 -14.566 5.462a2.148 2.148 0 0 0 0.644 4.07Z" fill="#678e98" stroke-width="1"></path><path d="M168.834 313.776c-0.216 -0.642 -0.43 -1.07 -0.75 -0.642a3.55 3.55 0 0 0 -0.428 1.4 2.34 2.34 0 0 0 -0.108 0.856 0.644 0.644 0 0 1 -0.108 0.43 0.4 0.4 0 0 1 -0.106 0.32 4.8 4.8 0 0 1 -2.57 3.534c-3.368 1.444 -16.92 8.76 -17.138 8.89a5.038 5.038 0 0 1 -2.142 0.75c-0.314 0 -50.672 -6.318 -50.872 -6.318 0 -0.636 -0.108 -0.44 -0.108 -1.822 -0.108 -0.536 -0.108 -0.964 -0.214 -1.4 -0.214 -0.642 -0.428 -1.07 -0.75 -0.642a15.582 15.582 0 0 0 -0.75 3.748 1.936 1.936 0 0 0 0.214 1.072 2.75 2.75 0 0 0 1.822 1.4c3.32 0.642 6.632 1.236 10.066 1.6 1.178 0.126 38.344 4.926 39.308 5.034a7.764 7.764 0 0 0 3.32 -0.428c0.106 -0.108 0.322 -0.108 0.428 -0.214a17.946 17.946 0 0 0 2.142 -1.072c2.332 -1.332 1.616 -0.722 6.426 -3.428 6.686 -3.758 5.48 -2.858 8.568 -4.712a6.924 6.924 0 0 1 1.178 -0.642 6.18 6.18 0 0 0 2.464 -3 10.824 10.824 0 0 0 0.428 -1.712v-0.858c-0.108 -0.32 -0.194 -1.638 -0.32 -2.144Z" fill="#678e98" stroke-width="1"></path><path d="M295.75 323.952c1.164 -0.652 6.378 -3.366 7.6 -3.856a0.106 0.106 0 0 0 0.108 -0.108h0.106c0.228 -0.228 0.2 -0.096 0.536 -0.428a3.044 3.044 0 0 0 -0.322 -5.034c-0.954 -0.476 -0.856 -0.428 -1.178 -0.428 -0.222 0 -32.6 -5.528 -36.2 -6.106 -2.574 -0.412 -5.148 -0.706 -7.6 -1.07 -0.866 -0.128 -5.678 -0.882 -5.678 0a1.13 1.13 0 0 0 0.43 0.106c0.214 0 0.32 0.108 0.534 0.216 2.764 1.38 46.71 9.492 46.912 9.532 1.474 0.29 1.4 0.07 1.4 0.534v0.108h-0.106c-0.154 0.152 -6.65 3.324 -11.14 5.57a0.104 0.104 0 0 0 -0.106 0.106c-6.23 3.064 -31.258 15.53 -31.382 15.53 -2.136 -0.534 -58.342 -11.46 -58.692 -11.46 -0.174 0 -0.04 -0.214 -0.214 -0.214v-0.322l0.106 -0.106c0.286 0 4.446 -1.512 5.892 -2.036 12.364 -4.472 51.942 -18.086 46.054 -17.564 -5.96 0.526 -52.6 17.068 -52.8 17.136a2.74 2.74 0 0 0 -1.4 1.072 3.09 3.09 0 0 0 1.178 4.712c0.116 0.116 58.462 11.384 59.656 11.782a3.642 3.642 0 0 0 2.142 -0.322c25.354 -12.678 27.712 -13.744 34.164 -17.35Z" fill="#153640" stroke-width="1"></path><path d="M251.41 330.484c-35.326 -6.744 -30.53 -6.212 -35.13 -6.212a1.81 1.81 0 0 0 -0.75 0.108c-0.322 0.106 -0.642 0.32 -0.428 0.642 0.612 1.226 6.328 2.52 7.71 2.784 31.918 6.094 29.474 6.212 35.13 6.212a1.842 1.842 0 0 0 0.75 -0.106c0.322 -0.108 0.642 -0.322 0.428 -0.642 -0.6 -1.204 -6.204 -2.498 -7.71 -2.786Z" fill="#153640" stroke-width="1"></path><path d="M273.366 328.342a1.846 1.846 0 0 0 0.75 -0.106c0.32 -0.108 0.642 -0.322 0.428 -0.644 -0.614 -1.224 -6.326 -2.52 -7.712 -2.784 -33.054 -6.31 -31.2 -6.212 -33.524 -6.212a7.508 7.508 0 0 0 -2.356 0.108c-1.122 0.374 -0.132 1.156 0.964 1.6a32.888 32.888 0 0 0 6.32 1.82c32.05 6.124 29.538 6.218 35.13 6.218Z" fill="#153640" stroke-width="1"></path><path d="M288.252 322.13a1.842 1.842 0 0 0 0.75 -0.106c0.322 -0.108 0.642 -0.322 0.428 -0.644 -0.612 -1.224 -6.324 -2.52 -7.71 -2.784 -33.054 -6.31 -31.2 -6.212 -33.524 -6.212a7.508 7.508 0 0 0 -2.356 0.108c-1.122 0.374 -0.132 1.156 0.964 1.6a32.868 32.868 0 0 0 6.318 1.82c32.05 6.124 29.538 6.218 35.13 6.218Z" fill="#153640" stroke-width="1"></path></svg>