<svg viewBox="0 0 400 400" xmlns="http://www.w3.org/2000/svg" id="Add-Profile-Picture-2--Streamline-Brooklyn.svg" height="400" width="400"><path d="M151.8 219.54c0.496 -0.518 2.032 0 1.524 1.018 -7.064 12.36 -20.14 25.924 -17.79 44.726a48.716 48.716 0 0 0 6.1 16.264 31.928 31.928 0 0 1 -9.656 -15.756c-4.512 -17.804 8.382 -34.298 19.822 -46.252Z" fill="#153640" stroke-width="1"></path><path d="M165.526 207.342a5.058 5.058 0 0 1 2.032 -5.6c2.682 -2.2 8.46 -1.558 9.658 2.034 0 0.508 0.508 1.524 0 1.016a6.484 6.484 0 0 0 -6.1 -1.016c-2.032 0.518 -5.59 1.024 -5.59 3.566Z" fill="#153640" stroke-width="1"></path><path d="M186.872 199.21a4.12 4.12 0 0 1 -2.54 -2.032c-2.158 -4.124 1.066 -9.098 4.066 -6.1 -2.766 1.384 -2.276 5.122 -1.526 8.132Z" fill="#153640" stroke-width="1"></path><path d="M186.364 178.88c-2.54 -1.524 -7.624 -5.6 -10.672 -2.54a7.084 7.084 0 0 0 -1.526 4.574c0 0.508 0.508 3.558 0 3.558 -2.54 1.524 -5.6 3.048 -8.132 4.574 -3.05 1.524 -5.6 3.558 -8.64 5.082 -4.066 -1.016 -11.69 -2.54 -11.182 3.558a14.076 14.076 0 0 0 0.508 4.574 22.466 22.466 0 0 0 3.05 8.132c1.524 2.542 5.082 7.624 6.6 5.6 0.508 -0.51 -2.542 -2.034 -4.576 -6.1s-4.066 -8.64 -3.048 -13.214a23.758 23.758 0 0 1 8.64 1.524h1.524l18.298 -10.164c2.016 -1 1.016 -4.18 1.016 -7.624a27.332 27.332 0 0 1 6.6 3.558c8.222 4.934 13.722 10.584 13.722 20.33 0 8.782 -8.726 15.656 -16.772 19.314 0.712 0.948 4.168 0.296 8.144 -2.464 -3.822 9.844 -6.26 29.74 -5.094 39.058a22.8 22.8 0 0 0 0.508 5.59c0 1.524 1.016 3.558 1.016 5.082 1.148 -19.514 -1.08 -21.386 4.574 -47.776a18.356 18.356 0 0 0 0.644 -3.2 32.652 32.652 0 0 0 10.03 -15.094c1.278 -8.844 -2.854 -18.858 -15.232 -25.932Z" fill="#153640" stroke-width="1"></path><path d="M182.298 201.244c1.016 -1.016 2.8 -1.586 3.05 0a9.456 9.456 0 0 1 0 1.524 3.056 3.056 0 0 1 -2.034 0.508 1.21 1.21 0 0 1 -1.016 -2.032Z" fill="#153640" stroke-width="1"></path><path d="M184.332 212.934a12.252 12.252 0 0 0 2.54 -7.116 0.498 0.498 0 0 1 0.508 -0.508 8.148 8.148 0 0 0 7.116 0 4.8 4.8 0 0 1 -5.6 3.05 4.744 4.744 0 0 1 -4.564 4.574Z" fill="#153640" stroke-width="1"></path><path d="M294.622 125.514c-26.234 -17.576 -66.072 -5.082 -73.188 20.33 0.508 0 37.694 -20.878 54.892 15.756 10.724 22.848 -1.018 60.482 -21.856 78.78s-27.954 10.672 -27.954 10.672l2.542 -24.4a23.776 23.776 0 0 1 -12.706 -12.706 7.224 7.224 0 0 1 -1.018 -3.05c-3.048 -12.2 -3.556 39.644 -10.164 40.662s-37.612 6.6 -58.958 21.854a45.122 45.122 0 0 0 -13.214 13.214c3.05 1.018 6.104 1.504 8.132 2.034a302.144 302.144 0 0 0 33.544 7.116c45.2 6.448 91.274 -0.524 135.2 -10.166 -4.066 -8.132 -10.634 -17.4 -19.314 -20.33 -17.2 -5.818 6.748 -17.228 22.364 -58.958 15.382 -41.112 7.816 -63.31 -18.302 -80.808Zm15.756 54.886a98.832 98.832 0 0 1 -14.738 35.068 1.142 1.142 0 0 1 -2.034 -1.016c3.05 -7.624 6.248 -15.2 8.64 -23.38 4.882 -16.686 5.89 -28.362 -2.032 -45.234 -2.612 -5.558 -5.6 -8.64 -5.6 -9.656 0 -1.526 5.046 3.588 7.116 6.098a44.214 44.214 0 0 1 8.648 38.12Z" fill="#678E98" stroke-width="1"></path><path d="M88.272 182.946a20.136 20.136 0 0 0 -5.084 -7.624 25.8 25.8 0 0 0 -8.132 -4.574 25.182 25.182 0 0 0 -8.64 -1.016c0 -2.032 0 -5.082 -0.508 -4.574 -0.508 0 -0.508 3.558 -0.508 5.082a0.498 0.498 0 0 0 0.508 0.508 30.45 30.45 0 0 1 15.248 6.1 32.636 32.636 0 0 1 5.082 6.6c1.524 2.542 2.034 8.642 3.05 8.132a12.528 12.528 0 0 0 -1.016 -8.634Z" fill="#153640" stroke-width="1"></path><path d="M274.8 171.766c-1.11 -12.224 -9.33 -24.258 -21.346 -27.954a33.872 33.872 0 0 0 -23.38 1.524c-5.578 2.57 -12.676 5.6 -17.28 23.38 -4.838 18.674 -3.618 30.314 0 41.168 3.43 8 7.05 14.442 15.756 16.772a30.8 30.8 0 0 0 11.69 1.018c4.066 -0.51 11.18 -4.066 10.164 -4.576 -0.508 -1.016 -3.034 2.146 -10.164 3.05 -5.51 0.7 -9.322 -0.114 -15.248 -4.066 -3.818 -2.544 -6.838 -8.828 -8.132 -13.214 -3.458 -11.72 -2.214 -23.93 0.508 -35.578a43.052 43.052 0 0 1 4.066 -11.69 55.824 55.824 0 0 0 26.43 -8.132c4.066 17.28 24.904 34.562 26.428 30.496 1.016 -1.526 0.508 -10.164 0.508 -12.198Z" fill="#153640" stroke-width="1"></path><path d="M224.98 184a3.05 2.542 -79.49 1 0 1.114 -5.998 3.05 2.542 -79.49 1 0 -1.114 6Z" fill="#153640" stroke-width="1"></path><path d="M246.334 187.81a3.05 2.542 -79.49 1 0 1.112 -6 3.05 2.542 -79.49 1 0 -1.112 6Z" fill="#153640" stroke-width="1"></path><path d="M243.288 176.34a7.904 7.904 0 0 1 8.642 -2.542 6.43 6.43 0 0 1 4.07 6.1c0 7.124 -5.2 -7.06 -12.2 -3.558 0 0 -0.826 0.628 -0.512 0Z" fill="#153640" stroke-width="1"></path><path d="M227.024 168.716c-5.144 0 -7.2 5 -6.6 5.6 0.324 0.324 1.03 -0.228 1.524 -0.508 4.184 -2.37 8.788 -2.902 12.2 0.508 0.814 -2.474 -4.62 -5.6 -7.124 -5.6Z" fill="#153640" stroke-width="1"></path><path d="M234.648 179.388c0.824 1.65 -4.376 10.276 -5.082 11.69 -0.508 1.526 0.4 2.582 1.016 4.066 0.436 1.05 1.016 1.526 1.016 2.542a15.826 15.826 0 0 1 -4.574 -3.558c-2.032 -2.542 0 -5.082 1.526 -7.116a31 31 0 0 1 6.098 -7.624Z" fill="#153640" stroke-width="1"></path><path d="M245.322 203.276c2.026 2.026 0.352 7.554 -5.082 8.642 -3.372 1.122 -9.15 -1.11 -9.15 -4.576 8.988 5.136 13.654 -4.642 14.232 -4.066Z" fill="#153640" stroke-width="1"></path><path d="M329.692 103.658a0.762 0.762 0 0 1 1.524 0c0.55 10.446 2.034 35.44 2.034 48.286 0 44.6 0.13 49.84 -0.508 59.464 -0.6 9.144 -0.508 17.8 -1.016 26.938a0.764 0.764 0 0 1 -1.526 0c-0.508 -9.148 -0.508 -17.788 -1.016 -26.938 0 -6.6 0 -13.214 -0.508 -19.82 0 -46.63 -0.13 -51.18 0.508 -59.466 0 -9.15 0 -18.806 0.508 -28.464Z" fill="#153640" stroke-width="1"></path><path d="M325.118 92.986c0 4.46 -53.634 2.764 -76.746 3.558a976.988 976.988 0 0 1 -103.684 -1.018c-8.64 -0.508 -26.938 -0.508 -25.414 -2.032 0.51 -0.508 17.282 0 25.922 0 0 0 120.964 -1.524 129.6 -1.524 16.268 0 50.322 -1.526 50.322 1.016Z" fill="#153640" stroke-width="1"></path><path d="M272.768 304.928s-123.506 0 -132.146 -0.508c-23.01 0 -20.06 -0.814 -23.888 -1.016 0.506 -8.106 1.524 -42.982 1.524 -50.826 0 -17.79 -1.016 -133.164 -1.016 -133.164 -0.508 -8.64 0 -19.822 -1.526 -19.822 -3.556 0 0 28.464 0 46.252l-3.048 159.6a3.378 3.378 0 0 0 2.032 2.542l6.6 0.508a185 185 0 0 1 19.822 0.508c8.64 0 61.496 -0.084 79.288 -0.508 91.976 -2.2 105.716 -1.8 105.716 -3.05 -0.5 -3.058 -53.358 -0.516 -53.358 -0.516Z" fill="#153640" stroke-width="1"></path><path d="M322.576 323.734c-4.066 0 -35.07 -0.51 -34.56 -2.542 0.508 -1.524 7.624 -1.016 11.69 -1.524 0 0 30.478 -3.11 34.052 -4.066a3.694 3.694 0 0 1 4.574 3.048c-0.508 6.1 -11.69 5.084 -15.756 5.084Z" fill="#678E98" stroke-width="1"></path><path d="M87.762 193.62c-5.082 0 -52.858 -1.016 -56.924 -1.016l0 -1.262c3.812 -11.036 15.142 -18.2 26.428 -20.086a0.492 0.492 0 0 0 0.508 -0.508c-0.034 -1.736 0.042 -3.632 0 -4.928 1.972 0.518 4.06 0.468 4.06 -0.154 0.508 -0.508 -3.558 -0.508 -5.082 -2.542 -1.896 -1.894 -1.526 -5.368 -1.526 -9.656a6.184 6.184 0 0 1 3.05 -6.1 6.6 6.6 0 0 1 5.6 0 7 7 0 0 1 3.048 4.066c1.094 3.536 1.526 8.132 -0.508 11.182a5.462 5.462 0 0 1 -2.54 2.034c0.508 0.508 4.066 -0.508 4.574 -3.05 1.524 -5.082 1.016 -12.706 -3.558 -15.248a8.426 8.426 0 0 0 -10.166 1.016 11.2 11.2 0 0 0 -2.54 8.132 13.6 13.6 0 0 0 2.54 8.642 4.638 4.638 0 0 0 1.944 1.316c0.022 1.528 0.09 3.2 0.09 4.274a16.318 16.318 0 0 0 -8.64 1.016 32.896 32.896 0 0 0 -17.168 13.892c0.15 -3.134 0.4 -2.716 0.4 -19.99a142.894 142.894 0 0 0 -0.508 -14.74c-0.508 -5.082 1.016 -14.74 -1.016 -14.74l-1.028 29.48s-0.508 24.4 -1.018 29.478a1.348 1.348 0 0 0 1.526 1.524 142.1 142.1 0 0 0 14.74 0c5.082 0 24.904 0 29.986 -0.508 5.596 0 14.238 0.508 13.728 -1.524Z" fill="#153640" stroke-width="1"></path><path d="M90.304 130.6c-4.378 -0.438 -37.566 0.368 -43.71 1.016 -5.08 0.538 -9.656 0.51 -14.74 1.018 -0.508 2.032 28.972 1.016 28.972 1.016s23.38 0.508 27.446 0.508c0 0.2 -0.096 44.726 1.524 44.726h0.43l1.094 -34.56a78.74 78.74 0 0 1 0.508 -11.182c0 -1.53 -0.508 -2.542 -1.524 -2.542Z" fill="#153640" stroke-width="1"></path><path d="M109.618 238.346c-8.132 0 -79.8 0.508 -95.044 0.508 -0.508 -9.656 -0.508 -18.8 -0.508 -28.462 0 0 -0.94 -84.93 -1.17 -90.978 13.742 0 27.042 0.246 40.814 0a1167.85 1167.85 0 0 1 42.186 0 1.34 1.34 0 0 0 1.524 -1.524 1.354 1.354 0 0 0 -1.524 -1.524c-19.914 -0.356 -64.466 0.354 -84.372 0 -0.508 -0.01 -1.016 0.508 -1.016 2.032a1.092 1.092 0 0 0 1.016 1.016c0 9.55 -0.034 19.482 -0.508 28.972 0 0 -1.016 82.844 -1.016 93.01a2.188 2.188 0 0 0 2.034 2.034c31.078 0 63.76 -1.34 97.076 -2.034a1.63 1.63 0 0 0 1.524 -1.524c0 -0.51 -0.508 -1.526 -1.016 -1.526Z" fill="#153640" stroke-width="1"></path><path d="M94.878 207.852c2.034 0 0.508 2.032 -0.508 2.032 -4.574 1.016 -22.872 1.016 -27.954 1.016a328.97 328.97 0 0 1 -37.102 -2.032c-2.034 -0.508 -1.016 -2.542 0.508 -3.05a132.518 132.518 0 0 1 25.92 -1.016 296.2 296.2 0 0 1 39.136 3.05Z" fill="#153640" stroke-width="1"></path><path d="M84.2 222.082c0 3.05 -15.758 1.98 -18.298 2.034 -12.2 0.254 -24.4 1.016 -36.6 -1.526 -1.526 -0.508 -0.508 -2.032 0.508 -2.032a189.932 189.932 0 0 1 29.478 -0.508c5.604 0 23.392 -0.51 24.912 2.032Z" fill="#153640" stroke-width="1"></path><path d="m389.158 306.96 -22.872 -18.8s9.2 -9.728 10.166 -10.674a1.304 1.304 0 0 0 -0.508 -2.032c-19.844 -8.136 -68.938 -29.542 -70.648 -28.972a1.858 1.858 0 0 0 -1.016 2.542l36.6 64.548a1.256 1.256 0 0 0 2.032 0.508l9.15 -9.148 24.4 20.33h1.016l12.2 -17.28s0.496 -0.512 -0.52 -1.022Zm-12.706 17.8 -23.888 -21.856a1.548 1.548 0 0 0 -2.034 0c-2.032 3.05 -5.102 5.576 -7.624 9.15 -0.626 0.888 -1.826 -0.674 -2.54 -2.034l-30.496 -56.924L372.894 278l-8.132 9.658a0.704 0.704 0 0 0 0 1.016l21.346 19.822Z" fill="#153640" stroke-width="1"></path><path d="M51.168 159.058c-2.032 0 -4.574 -1.524 -4.574 -3.558 0 -2.73 4.412 -4.168 4.066 -2.032 -0.082 0.502 -0.86 0.742 -1.524 1.016a2.084 2.084 0 0 0 -1.016 1.526c0 1.524 1.524 2.032 3.048 2.032 1.018 -0.508 1.018 1.016 0 1.016Z" fill="#153640" stroke-width="1"></path><path d="M70.99 159.058c-0.494 -0.116 -1.016 -0.508 -1.016 -1.016s1.03 -0.4 1.524 -0.508c2.212 -0.522 0.51 -5.082 -1.524 -4.574 -0.508 0 -1.016 0 -1.016 -0.508s0.032 -0.838 0.508 -1.018c1.574 -0.6 3.05 0.51 4.066 2.034a4.346 4.346 0 0 1 0 4.574 2.636 2.636 0 0 1 -2.542 1.016Z" fill="#153640" stroke-width="1"></path><path d="M149.77 319.158c-5.082 -0.508 -40.152 -2.032 -44.218 -2.032 -1.646 0 -1.616 -35.988 -3.558 -55.4 0 -1.016 0 -4.574 -1.016 -5.082 -1.526 -0.508 -1.526 3.558 -1.526 4.574 0 1.524 -1.27 32.522 -1.016 46.252 0.156 8.386 -0.674 13.216 2.034 15.246 2.032 1.526 5.6 0.508 8.132 0.508 13.722 0 55.908 -0.508 56.416 -1.524 1.524 -3.558 -10.166 -2.032 -15.248 -2.542Z" fill="#678E98" stroke-width="1"></path><path d="M136.048 75.2c-11.2 -0.254 -22.872 -1.016 -34.054 1.018a2.724 2.724 0 0 0 -2.542 2.54c-0.648 12.346 0.51 52.838 0.51 61 0 3.556 2.032 1.524 2.54 -0.51 1.016 -6.6 0.63 -13.2 1.016 -19.822 0.742 -12.694 1.526 -24.904 1.526 -37.6 14.738 -1.524 29.498 -1.272 44.726 -2.542 5.09 -0.424 19.822 0.508 19.822 -1.524s-11.182 -1.524 -12.706 -1.524c-2.542 -0.532 -16.266 -0.936 -20.838 -1.036Z" fill="#678E98" stroke-width="1"></path><path d="M350.022 79.77a3.732 3.732 0 0 0 -1.016 -3.048c-1.524 -2.542 -7.624 -1.526 -10.674 -1.526 -4.066 0 -54.382 0 -54.892 1.526 -0.508 2.032 47.268 4.066 51.334 4.066 0.508 0 8.64 0 8.64 0.508 0 1.524 2.542 60.482 4.068 60.482 1.016 0 0.976 -10.678 1.524 -15.756 1.424 -13.222 1.016 -43.71 1.016 -46.252Z" fill="#678E98" stroke-width="1"></path></svg>